<svg width="209" height="32" viewBox="0 0 209 32" fill="none" xmlns="http://www.w3.org/2000/svg">
<path d="M11.55 31C11.27 31 11.018 30.902 10.794 30.706C10.598 30.482 10.5 30.23 10.5 29.95V20.92L0.756 2.944C0.672 2.692 0.63 2.538 0.63 2.482C0.63 2.258 0.714 2.062 0.882 1.894C1.078 1.698 1.302 1.6 1.554 1.6H6.804C7.364 1.6 7.854 1.894 8.274 2.482L14.28 13.318L20.328 2.482C20.664 1.894 21.154 1.6 21.798 1.6H27.048C27.3 1.6 27.51 1.698 27.678 1.894C27.846 2.062 27.93 2.258 27.93 2.482C27.93 2.622 27.902 2.776 27.846 2.944L18.102 20.92V29.95C18.102 30.258 17.99 30.51 17.766 30.706C17.57 30.902 17.318 31 17.01 31H11.55ZM36.4219 31.42C33.9579 31.42 31.9699 30.594 30.4579 28.942C28.9459 27.262 28.1899 24.924 28.1899 21.928V10.21C28.1899 9.902 28.2879 9.65 28.4839 9.454C28.6799 9.258 28.9319 9.16 29.2399 9.16H34.4899C34.7979 9.16 35.0499 9.258 35.2459 9.454C35.4699 9.65 35.5819 9.902 35.5819 10.21V21.676C35.5819 24.42 36.7999 25.792 39.2359 25.792C40.4119 25.792 41.3359 25.428 42.0079 24.7C42.6799 23.972 43.0159 22.964 43.0159 21.676V10.21C43.0159 9.902 43.1139 9.65 43.3099 9.454C43.5339 9.258 43.7859 9.16 44.0659 9.16H49.3159C49.6239 9.16 49.8759 9.258 50.0719 9.454C50.2679 9.65 50.3659 9.902 50.3659 10.21V29.95C50.3659 30.23 50.2679 30.482 50.0719 30.706C49.8759 30.902 49.6239 31 49.3159 31H44.4439C44.1639 31 43.9119 30.902 43.6879 30.706C43.4919 30.482 43.3939 30.23 43.3939 29.95V28.354C41.9379 30.398 39.6139 31.42 36.4219 31.42ZM56.3561 31C56.0761 31 55.8241 30.902 55.6001 30.706C55.4041 30.482 55.3061 30.23 55.3061 29.95V2.23C55.3061 1.922 55.4041 1.67 55.6001 1.474C55.8241 1.278 56.0761 1.18 56.3561 1.18H61.2281C61.5361 1.18 61.7881 1.278 61.9841 1.474C62.1801 1.67 62.2781 1.922 62.2781 2.23V16.3L68.1161 9.874C68.1721 9.818 68.2701 9.72 68.4101 9.58C68.5781 9.44 68.7461 9.342 68.9141 9.286C69.0821 9.202 69.2781 9.16 69.5021 9.16H75.1301C75.3821 9.16 75.5921 9.258 75.7601 9.454C75.9561 9.622 76.0541 9.832 76.0541 10.084C76.0541 10.392 75.9421 10.63 75.7181 10.798L68.1581 18.946L76.7681 29.404C76.9921 29.628 77.1041 29.838 77.1041 30.034C77.1041 30.314 77.0061 30.552 76.8101 30.748C76.6421 30.916 76.4181 31 76.1381 31H70.3841C70.0201 31 69.7401 30.944 69.5441 30.832C69.3761 30.72 69.1661 30.538 68.9141 30.286L62.2781 22.306V29.95C62.2781 30.23 62.1801 30.482 61.9841 30.706C61.7881 30.902 61.5361 31 61.2281 31H56.3561ZM78.6565 31C78.4325 31 78.2225 30.916 78.0265 30.748C77.8585 30.552 77.7745 30.342 77.7745 30.118C77.7745 29.95 77.7885 29.824 77.8165 29.74L87.6865 2.776C87.7705 2.44 87.9525 2.16 88.2325 1.936C88.5125 1.712 88.8765 1.6 89.3245 1.6H95.5405C95.9885 1.6 96.3525 1.712 96.6325 1.936C96.9125 2.16 97.0945 2.44 97.1785 2.776L107.006 29.74L107.09 30.118C107.09 30.342 106.992 30.552 106.796 30.748C106.628 30.916 106.418 31 106.166 31H101C100.328 31 99.8805 30.706 99.6565 30.118L98.0185 25.834H86.8045L85.2085 30.118C84.9845 30.706 84.5225 31 83.8225 31H78.6565ZM96.3385 19.786L92.4325 8.698L88.5265 19.786H96.3385ZM117.841 31.42C115.097 31.42 112.955 30.566 111.415 28.858C109.903 27.122 109.077 24.686 108.937 21.55L108.895 20.08L108.937 18.568C109.049 15.544 109.875 13.15 111.415 11.386C112.983 9.622 115.125 8.74 117.841 8.74C120.389 8.74 122.447 9.566 124.015 11.218V2.23C124.015 1.922 124.113 1.67 124.309 1.474C124.505 1.278 124.757 1.18 125.065 1.18H130.189C130.497 1.18 130.749 1.278 130.945 1.474C131.141 1.67 131.239 1.922 131.239 2.23V29.95C131.239 30.23 131.141 30.482 130.945 30.706C130.749 30.902 130.497 31 130.189 31H125.443C125.163 31 124.911 30.902 124.687 30.706C124.491 30.482 124.393 30.23 124.393 29.95V28.606C122.853 30.482 120.669 31.42 117.841 31.42ZM120.151 25.792C121.411 25.792 122.349 25.4 122.965 24.616C123.581 23.804 123.931 22.768 124.015 21.508C124.043 21.144 124.057 20.612 124.057 19.912C124.057 19.24 124.043 18.722 124.015 18.358C123.959 17.21 123.609 16.258 122.965 15.502C122.321 14.746 121.383 14.368 120.151 14.368C118.835 14.368 117.883 14.76 117.295 15.544C116.735 16.328 116.413 17.406 116.329 18.778C116.301 19.058 116.287 19.492 116.287 20.08C116.287 20.668 116.301 21.102 116.329 21.382C116.413 22.754 116.735 23.832 117.295 24.616C117.883 25.4 118.835 25.792 120.151 25.792ZM137.239 31C136.931 31 136.679 30.902 136.483 30.706C136.287 30.51 136.189 30.258 136.189 29.95V10.21C136.189 9.902 136.287 9.65 136.483 9.454C136.679 9.258 136.931 9.16 137.239 9.16H141.817C142.125 9.16 142.377 9.258 142.573 9.454C142.769 9.65 142.867 9.902 142.867 10.21V11.638C143.511 10.798 144.365 10.112 145.429 9.58C146.521 9.02 147.739 8.74 149.083 8.74C152.163 8.74 154.291 9.944 155.467 12.352C156.139 11.288 157.077 10.42 158.281 9.748C159.485 9.076 160.773 8.74 162.145 8.74C164.441 8.74 166.303 9.524 167.731 11.092C169.187 12.632 169.915 14.942 169.915 18.022V29.95C169.915 30.23 169.817 30.482 169.621 30.706C169.425 30.902 169.173 31 168.865 31H163.993C163.685 31 163.419 30.902 163.195 30.706C162.999 30.51 162.901 30.258 162.901 29.95V18.316C162.901 16.916 162.607 15.908 162.019 15.292C161.459 14.676 160.689 14.368 159.709 14.368C158.813 14.368 158.071 14.69 157.483 15.334C156.895 15.95 156.601 16.944 156.601 18.316V29.95C156.601 30.23 156.503 30.482 156.307 30.706C156.111 30.902 155.859 31 155.551 31H150.679C150.371 31 150.119 30.902 149.923 30.706C149.727 30.51 149.629 30.258 149.629 29.95V18.316C149.629 16.944 149.321 15.95 148.705 15.334C148.117 14.69 147.361 14.368 146.437 14.368C145.541 14.368 144.785 14.69 144.169 15.334C143.581 15.95 143.287 16.93 143.287 18.274V29.95C143.287 30.23 143.189 30.482 142.993 30.706C142.797 30.902 142.545 31 142.237 31H137.239ZM175.67 6.01C175.362 6.01 175.11 5.912 174.914 5.716C174.718 5.52 174.62 5.268 174.62 4.96V1.18C174.62 0.871999 174.718 0.619999 174.914 0.423998C175.11 0.227999 175.362 0.129999 175.67 0.129999H180.71C181.018 0.129999 181.27 0.227999 181.466 0.423998C181.662 0.619999 181.76 0.871999 181.76 1.18V4.96C181.76 5.268 181.662 5.52 181.466 5.716C181.27 5.912 181.018 6.01 180.71 6.01H175.67ZM175.712 31C175.404 31 175.152 30.902 174.956 30.706C174.76 30.51 174.662 30.258 174.662 29.95V10.21C174.662 9.902 174.76 9.65 174.956 9.454C175.152 9.258 175.404 9.16 175.712 9.16H180.668C180.976 9.16 181.228 9.258 181.424 9.454C181.62 9.65 181.718 9.902 181.718 10.21V29.95C181.718 30.23 181.62 30.482 181.424 30.706C181.228 30.902 180.976 31 180.668 31H175.712ZM187.729 31C187.421 31 187.169 30.902 186.973 30.706C186.777 30.51 186.679 30.258 186.679 29.95V10.21C186.679 9.902 186.777 9.65 186.973 9.454C187.169 9.258 187.421 9.16 187.729 9.16H192.559C192.867 9.16 193.119 9.258 193.315 9.454C193.539 9.65 193.651 9.902 193.651 10.21V11.806C194.407 10.882 195.373 10.14 196.549 9.58C197.753 9.02 199.111 8.74 200.623 8.74C203.087 8.74 205.089 9.58 206.629 11.26C208.169 12.912 208.939 15.236 208.939 18.232V29.95C208.939 30.23 208.841 30.482 208.645 30.706C208.449 30.902 208.197 31 207.889 31H202.597C202.317 31 202.065 30.902 201.841 30.706C201.645 30.482 201.547 30.23 201.547 29.95V18.484C201.547 17.168 201.225 16.16 200.581 15.46C199.937 14.732 199.013 14.368 197.809 14.368C196.633 14.368 195.709 14.732 195.037 15.46C194.365 16.16 194.029 17.168 194.029 18.484V29.95C194.029 30.23 193.931 30.482 193.735 30.706C193.539 30.902 193.287 31 192.979 31H187.729Z" fill="black"/>
</svg>
