<?xml version="1.0" encoding="UTF-8" standalone="no"?>
<svg
   xmlns:dc="http://purl.org/dc/elements/1.1/"
   xmlns:cc="http://creativecommons.org/ns#"
   xmlns:rdf="http://www.w3.org/1999/02/22-rdf-syntax-ns#"
   xmlns:svg="http://www.w3.org/2000/svg"
   xmlns="http://www.w3.org/2000/svg"
   xmlns:sodipodi="http://sodipodi.sourceforge.net/DTD/sodipodi-0.dtd"
   xmlns:inkscape="http://www.inkscape.org/namespaces/inkscape"
   version="1.1"
   id="svg2"
   xml:space="preserve"
   width="4266.6665"
   height="2666.6667"
   viewBox="0 0 4266.6665 2666.6667"
   sodipodi:docname="8636.svg"
   inkscape:version="1.0.1 (3bc2e813f5, 2020-09-07)"><metadata
     id="metadata8"><rdf:RDF><cc:Work
         rdf:about=""><dc:format>image/svg+xml</dc:format><dc:type
           rdf:resource="http://purl.org/dc/dcmitype/StillImage" /><dc:title></dc:title></cc:Work></rdf:RDF></metadata><defs
     id="defs6" /><sodipodi:namedview
     pagecolor="#ffffff"
     bordercolor="#666666"
     borderopacity="1"
     objecttolerance="10"
     gridtolerance="10"
     guidetolerance="10"
     inkscape:pageopacity="0"
     inkscape:pageshadow="2"
     inkscape:window-width="1366"
     inkscape:window-height="710"
     id="namedview4"
     showgrid="false"
     inkscape:zoom="0.21037499"
     inkscape:cx="2133.3333"
     inkscape:cy="1363.6373"
     inkscape:window-x="0"
     inkscape:window-y="27"
     inkscape:window-maximized="1"
     inkscape:current-layer="g10" /><g
     id="g10"
     inkscape:groupmode="layer"
     inkscape:label="ink_ext_XXXXXX"
     transform="matrix(1.3333333,0,0,-1.3333333,0,2666.6667)"><g
       id="g992"
       transform="translate(36.809968,92.622106)"
       inkscape:export-xdpi="96"
       inkscape:export-ydpi="96"><g
         id="g18"
         transform="matrix(0.193311,0,0,0.193311,16.677725,-36.303626)"><path
           d="m 15372,1546.94 c -4.7,-11.12 -828.4,-24.42 -834.3,-35.54 H 13134 l -410.8,1.09 H 9044.6 l -1074.28,1.13 H 5138.2 l -1182.91,1.09 H 1816.16 c 0,0 -3.54,8.95 -10.63,26.74 l -1.19,2.23 c 0,0 -1.18,2.22 -1.18,3.36 -4.72,8.9 -1890.1919,2515.79 1041.04,4260.91 1146.89,682.81 -71.79,1133.59 840.21,1893.7 602.21,501.9 1236.01,396.45 1887.39,290.99 682.58,-110.52 1384.5,-221.04 2089.48,367.53 1347,1123.51 4180.42,609.11 5341.62,-389.53 152.3,-130.95 914.4,-596.48 368.6,-1527.92 -344.7,-588.05 672.5,-734.04 1182.9,-768.31 1745.6,-117.17 829.4,-4105.18 817.6,-4127.47"
           style="fill:#e2e7fc;fill-opacity:1;fill-rule:nonzero;stroke:none"
           id="path20" /></g><g
         id="g22"
         transform="matrix(0.128421,0,0,0.128421,16.677725,-36.303626)"><path
           d="m 16256.1,10134.9 c -24.3,0 -44,19.7 -44,44 v 1906.6 c 0,24.3 19.7,43.9 44,43.9 24.2,0 43.9,-19.6 43.9,-43.9 v -1906.6 c 0,-24.3 -19.7,-44 -43.9,-44"
           style="fill:#94b0ed;fill-opacity:1;fill-rule:nonzero;stroke:none"
           id="path24" /></g><g
         id="g26"
         transform="matrix(0.188564,0,0,0.188564,16.677725,-36.303626)"><path
           d="M 16282,1544.83 H 446.093 c -9.886,0 -17.98,8.06 -17.98,17.98 v 6.1 c 0,9.91 8.094,18.03 17.98,18.03 H 16282 c 9.9,0 18,-8.12 18,-18.03 v -6.1 c 0,-9.92 -8.1,-17.98 -18,-17.98"
           style="fill:#2e3552;fill-opacity:1;fill-rule:nonzero;stroke:none"
           id="path28" /></g><path
         d="m 1095.5077,612.82637 c -2.73,0 -5.54,0.81 -7.85,2.4 -3.36,2.32 -5.85,6.66 -2.75,11.9 4.44,7.47 5.38,16.53 5.39,16.62 l 1.65,-0.1 c -0.03,-0.38 -0.97,-9.4 -5.54,-17.11 -2.29,-3.86 -1.42,-7.71 2.32,-10.29 3.53,-2.42 8.37,-2.77 11.78,-0.83 l 0.95,-1.1 c -1.76,-1 -3.83,-1.49 -5.95,-1.49"
         style="fill:#f99746;fill-opacity:1;fill-rule:nonzero;stroke:none;stroke-width:0.1"
         id="path30" /><g
         id="g32"
         transform="matrix(0.107823,0,0,0.107823,16.677725,-36.303626)"><path
           d="m 11126.8,7251.26 h -72 c 65.1,0 125.3,21.98 173.4,59.35 57.3,44.52 97.7,110.74 108.8,187.53 14.8,101.65 38.3,202.83 69.7,301.98 216.8,684.46 811.5,1275.33 1511,1275.33 H 15634 c 242.3,0 454.5,-129.47 570.8,-323.02 60.5,-100.26 95.2,-217.68 95.2,-343.16 v -100.72 0 c -93.2,258.66 -344.7,444.06 -640.4,444.06 H 12890 c -598,0 -1120.8,-415.03 -1404.4,-952.49 -82.2,-155.25 -144.2,-320.81 -182,-489.51 -49.1,-37.37 -110.5,-59.35 -176.8,-59.35"
           style="fill:#cdd6fa;fill-opacity:1;fill-rule:nonzero;stroke:none"
           id="path34" /></g><g
         id="g36"
         transform="matrix(0.140458,0,0,0.140458,16.677725,-36.303626)"><path
           d="M 16300,8725.41 V 2573.73 c 0,-107.86 -39.2,-206.54 -104,-282.58 -79.9,-93.69 -199,-153.21 -331.9,-153.21 H 6114.45 c -225.82,0 -411.39,171.51 -433.71,391.29 -1.13,10.97 -1.84,22.07 -2.11,33.32 -0.09,3.78 -0.17,7.41 -0.17,11.18 v 1502.94 c 0,11.75 0.52,23.28 1.41,34.82 17.65,224.62 205.43,401.12 434.58,401.12 H 11973 c 176.5,0 333.1,84.79 431.7,215.79 67.9,90.13 108,202.34 108,323.94 V 6455.4 c 0,96.33 -26.6,186.46 -73,263.42 -89.3,148.59 -252.2,247.97 -438.2,247.97 H 9916.3 c -536.96,0 -993.47,-453.58 -1159.93,-979.01 -24.06,-76.11 -42.14,-153.78 -53.46,-231.81 -8.55,-58.95 -39.59,-109.79 -83.59,-143.96 -36.88,-28.69 -83.08,-45.56 -133.06,-45.56 H 6619.85 c -199.89,0 -362,162.11 -362,362.03 V 8708.1 c 0,33.39 2.73,66.25 8.08,98.15 46.74,282.13 291.89,497.22 587.29,497.22 H 15722 c 197.2,0 371.5,-98.93 475.8,-249.71 48.2,-69.85 81.5,-150.69 95.1,-238.12 4.8,-29.34 7.1,-59.56 7.1,-90.23"
           style="fill:#f8faff;fill-opacity:1;fill-rule:nonzero;stroke:none"
           id="path38" /></g><path
         d="m 1085.6577,643.68637 h 29.0102 v 102.45 h -29.0102 z"
         style="fill:#2b478b;fill-opacity:1;fill-rule:nonzero;stroke:none;stroke-width:0.1"
         id="path40" /><path
         d="m 1114.6677,703.28637 h 33.98 v 18.24 h -33.98 v -18.24"
         style="fill:#2b478b;fill-opacity:1;fill-rule:nonzero;stroke:none;stroke-width:0.1"
         id="path42" /><path
         d="m 1145.1877,712.40637 c 0,9.46 7.67,17.14 17.14,17.14 9.46,0 17.14,-7.68 17.14,-17.14 0,-9.47 -7.68,-17.14 -17.14,-17.14 -9.47,0 -17.14,7.67 -17.14,17.14"
         style="fill:#2b478b;fill-opacity:1;fill-rule:nonzero;stroke:none;stroke-width:0.1"
         id="path44" /><path
         d="m 1089.8077,662.26637 h -19.07 v 15.02 h 19.07 v -15.02"
         style="fill:#2b478b;fill-opacity:1;fill-rule:nonzero;stroke:none;stroke-width:0.1"
         id="path46" /><path
         d="m 1140.2277,1271.0264 h 44.2 v 28.7332 h -44.2 z"
         style="fill:#2b478b;fill-opacity:1;fill-rule:nonzero;stroke:none;stroke-width:0.1"
         id="path48" /><g
         id="g50"
         transform="matrix(0.132296,0,0,0.132296,16.677725,-36.303626)"><path
           d="m 16168.8,10020 h -739 c -72.8,0 -130.7,61.1 -126.4,133.7 l 12,207.3 0.1,2 8.1,139.7 22.5,389.5 7.2,122.7 17.1,297.6 6.4,108.8 c 3.8,66.9 59.2,119.2 126.2,119.2 h 579.6 c 20.5,0 39.9,-4.8 57.1,-13.6 38.6,-19.6 65.9,-58.4 69.2,-104.3 l 6,-87.3 17,-251.3 2.7,-39.7 28.1,-413.7 22.5,-331 9.9,-144.6 c 4.9,-73.1 -53.1,-135 -126.3,-135"
           style="fill:#f99746;fill-opacity:1;fill-rule:nonzero;stroke:none"
           id="path52" /></g><path
         d="m 1163.7077,1270.4364 h -2.76 v 0.59 h 2.76 v -0.59 m -62.16,0 h -2.76 v 0.6 h 2.76 v -0.6"
         style="fill:#cdd6fa;fill-opacity:1;fill-rule:nonzero;stroke:none;stroke-width:0.1"
         id="path54" /><path
         d="m 1163.7077,817.11637 h -62.16 v 1.38 h -2.76 v -1.38 453.32003 h 2.76 V 819.87637 h 59.4 v 450.56003 h 2.76 V 817.11637"
         style="fill:#dde4fc;fill-opacity:1;fill-rule:nonzero;stroke:none;stroke-width:0.1"
         id="path56" /><path
         d="m 1160.9477,1271.0264 h 2.7602 v 0.518 h -2.7602 z"
         style="fill:#4d67ab;fill-opacity:1;fill-rule:nonzero;stroke:none;stroke-width:0.1"
         id="path58" /><g
         id="g60"
         transform="matrix(0.144288,0,0,0.144288,16.677725,-36.303626)"><path
           d="m 16178,6480.36 h -310.7 v 1694.09 h 310.7 c 67.4,0 122,-54.59 122,-121.94 V 6602.27 c 0,-67.37 -54.6,-121.91 -122,-121.91"
           style="fill:#ed7d2b;fill-opacity:1;fill-rule:nonzero;stroke:none"
           id="path62" /></g><path
         d="M 1199.7577,598.11637 H 993.10772 v 4.88 h 206.64998 v -4.88"
         style="fill:#9db0f4;fill-opacity:1;fill-rule:nonzero;stroke:none;stroke-width:0.1"
         id="path64" /><path
         d="m 1100.1677,1103.0564 -19.9,23.21 v 144.76 h 19.9 v -167.97"
         style="fill:#2b478b;fill-opacity:1;fill-rule:nonzero;stroke:none;stroke-width:0.1"
         id="path66" /><path
         d="m 1098.7877,746.13637 h 2.7598 v 70.9801 h -2.7598 z"
         style="fill:#dde4fc;fill-opacity:1;fill-rule:nonzero;stroke:none;stroke-width:0.1"
         id="path68" /><path
         d="m 1101.5477,746.13637 h -2.76 2.76 v 0"
         style="fill:#4d67ab;fill-opacity:1;fill-rule:nonzero;stroke:none;stroke-width:0.1"
         id="path70" /><path
         d="m 1098.7877,817.11637 h 2.7598 v 1.38008 h -2.7598 z"
         style="fill:#cad4fa;fill-opacity:1;fill-rule:nonzero;stroke:none;stroke-width:0.1"
         id="path72" /><g
         id="g74"
         transform="matrix(0.140458,0,0,0.140458,16.677725,-36.303626)"><path
           d="m 16300,2568.16 v 0 c -0.1,1.86 -0.1,3.71 -0.1,5.56 v 14.17 h 0.1 v -19.73"
           style="fill:#cdd6fa;fill-opacity:1;fill-rule:nonzero;stroke:none"
           id="path76" /></g><g
         id="g78"
         transform="matrix(0.140458,0,0,0.140458,16.677725,-36.303626)"><path
           d="m 16300,2568.16 h -433.9 l -1.4,19.73 h 435.3 l -0.1,-14.17 c 0,-1.85 0,-3.7 0,-5.56"
           style="fill:#dde4fc;fill-opacity:1;fill-rule:nonzero;stroke:none"
           id="path80" /></g><path
         d="m 814.26472,324.41637 v 0 0.29 c 10e-4,-0.1 0.002,-0.19 0.004,-0.29"
         style="fill:#cdd6fa;fill-opacity:1;fill-rule:nonzero;stroke:none;stroke-width:0.1"
         id="path82" /><g
         id="g84"
         transform="matrix(0.129029,0,0,0.129029,16.677725,-36.303626)"><path
           d="M 16298.8,2795.64 H 6181.43 c 0.02,0.78 0.01,1.47 0,2.25 v 19.22 H 16300 l -0.9,-14.8 v 0 0 l -0.3,-6.67"
           style="fill:#dde4fc;fill-opacity:1;fill-rule:nonzero;stroke:none"
           id="path86" /></g><path
         d="m 1239.5477,1198.0964 c 0,6.1 4.94,11.05 11.05,11.05 6.1,0 11.05,-4.95 11.05,-11.05 0,-6.11 -4.95,-11.05 -11.05,-11.05 -6.11,0 -11.05,4.94 -11.05,11.05"
         style="fill:#2b478b;fill-opacity:1;fill-rule:nonzero;stroke:none;stroke-width:0.1"
         id="path88" /><path
         d="m 1282.9177,1198.0964 c 0,6.1 4.95,11.05 11.05,11.05 6.11,0 11.05,-4.95 11.05,-11.05 0,-6.11 -4.94,-11.05 -11.05,-11.05 -6.1,0 -11.05,4.94 -11.05,11.05"
         style="fill:#2b478b;fill-opacity:1;fill-rule:nonzero;stroke:none;stroke-width:0.1"
         id="path90" /><path
         d="m 1326.2977,1198.0964 c 0,6.1 4.94,11.05 11.05,11.05 6.1,0 11.05,-4.95 11.05,-11.05 0,-6.11 -4.95,-11.05 -11.05,-11.05 -6.11,0 -11.05,4.94 -11.05,11.05"
         style="fill:#2b478b;fill-opacity:1;fill-rule:nonzero;stroke:none;stroke-width:0.1"
         id="path92" /><path
         d="m 1166.0577,1289.5364 h -7.19 v 38.68 h 7.19 v -38.68"
         style="fill:#2b478b;fill-opacity:1;fill-rule:nonzero;stroke:none;stroke-width:0.1"
         id="path94" /><path
         d="m 1101.2677,602.99637 h -0.67 l -2.27,40.69 h 5.31 l -2.37,-40.69"
         style="fill:#2b478b;fill-opacity:1;fill-rule:nonzero;stroke:none;stroke-width:0.1"
         id="path96" /><path
         d="m 1109.6177,602.99637 h -0.68 l -2.26,40.69 h 5.31 l -2.37,-40.69"
         style="fill:#2b478b;fill-opacity:1;fill-rule:nonzero;stroke:none;stroke-width:0.1"
         id="path98" /><path
         d="m 1112.4477,602.99637 h -15.22 c -2.88,0 -5.23,2.56 -5.23,5.69 0,0.95 0.71,1.71 1.57,1.71 0.87,0 1.57,-0.76 1.57,-1.71 0,-1.25 0.94,-2.27 2.09,-2.27 h 15.22 c 1.15,0 2.09,1.02 2.09,2.27 0,0.95 0.7,1.71 1.57,1.71 0.86,0 1.57,-0.76 1.57,-1.71 0,-3.13 -2.35,-5.69 -5.23,-5.69"
         style="fill:#35488b;fill-opacity:1;fill-rule:nonzero;stroke:none;stroke-width:0.1"
         id="path100" /><g
         id="g102"
         transform="matrix(0.12885,0,0,0.12885,16.677725,-36.303626)"><path
           d="m 16135.2,4683.5 h -371.1 c -90.6,0 -164.8,74.19 -164.8,164.84 0,90.65 74.2,164.84 164.8,164.84 h 371.1 c 90.6,0 164.8,-74.19 164.8,-164.84 0,-90.65 -74.2,-164.84 -164.8,-164.84"
           style="fill:#f99746;fill-opacity:1;fill-rule:nonzero;stroke:none"
           id="path104" /></g><g
         id="g106"
         transform="matrix(0.134818,0,0,0.134818,16.677725,-36.303626)"><path
           d="m 15062.5,4781.02 c -79.2,0 -143.5,-64.38 -143.5,-143.45 v -7.71 c 0,-79.07 64.3,-143.46 143.5,-143.46 h 1073.6 c 79,0 143.4,64.39 143.4,143.46 v 7.71 c 0,79.07 -64.4,143.45 -143.4,143.45 z m 1073.6,-315.09 h -1073.6 c -90.4,0 -164,73.58 -164,163.93 v 7.71 c 0,90.42 73.6,163.93 164,163.93 h 1073.6 c 90.3,0 163.9,-73.51 163.9,-163.93 v -7.71 c 0,-90.35 -73.6,-163.93 -163.9,-163.93"
           style="fill:#ed7d2b;fill-opacity:1;fill-rule:nonzero;stroke:none"
           id="path108" /></g><g
         id="g110"
         transform="matrix(0.124824,0,0,0.124824,16.677725,-36.303626)"><path
           d="m 16253.1,5407.62 v 0 c -25.9,0 -47.1,21.15 -47.1,47.02 v 154.78 c 0,25.88 21.2,47.03 47.1,47.03 25.8,0 46.9,-21.15 46.9,-47.03 v -154.78 c 0,-25.87 -21.1,-47.02 -46.9,-47.02"
           style="fill:#2b478b;fill-opacity:1;fill-rule:nonzero;stroke:none"
           id="path112" /></g><g
         id="g114"
         transform="matrix(0.129609,0,0,0.129609,16.677725,-36.303626)"><path
           d="m 16254.7,5207.99 v 0 c -24.8,0 -45.2,20.37 -45.2,45.29 v 149.06 c 0,24.92 20.4,45.29 45.2,45.29 24.9,0 45.3,-20.37 45.3,-45.29 v -149.06 c 0,-24.92 -20.4,-45.29 -45.3,-45.29"
           style="fill:#2b478b;fill-opacity:1;fill-rule:nonzero;stroke:none"
           id="path116" /></g><g
         id="g118"
         transform="matrix(0.134393,0,0,0.134393,16.677725,-36.303626)"><path
           d="m 16256.3,5022.57 v 0 c -23.9,0 -43.6,19.65 -43.6,43.68 v 143.76 c 0,24.03 19.7,43.68 43.6,43.68 24.1,0 43.7,-19.65 43.7,-43.68 v -143.76 c 0,-24.03 -19.6,-43.68 -43.7,-43.68"
           style="fill:#2b478b;fill-opacity:1;fill-rule:nonzero;stroke:none"
           id="path120" /></g><g
         id="g122"
         transform="matrix(0.124442,0,0,0.124442,16.677725,-36.303626)"><path
           d="m 16290.8,11165.6 9.2,159 -9.2,-159 c 0,0 0,0 0,0"
           style="fill:#e5c7bd;fill-opacity:1;fill-rule:nonzero;stroke:none"
           id="path124" /></g><g
         id="g126"
         transform="matrix(0.131867,0,0,0.131867,16.677725,-36.303626)"><path
           d="m 15373.5,10536.9 8.6,150 13.9,240.7 c 0,0 30.2,-3.5 84.4,-3.5 141.4,0 446.3,23.8 804.3,195.9 l 15.3,-225.5 c 0,0 -236.5,-292.7 -926.6,-357.6"
           style="fill:#f58f3e;fill-opacity:1;fill-rule:nonzero;stroke:none"
           id="path128" /></g><g
         id="g130"
         transform="matrix(0.132176,0,0,0.132176,16.677725,-36.303626)"><path
           d="m 15906.7,10029.1 h -69.7 -85.4 -307.8 c -70.3,0 -126.7,56.9 -126.7,126.2 0,2.6 0,5.1 0.2,7.7 l 12,207.4 0.1,2 c 0,0 454.2,30.4 948.1,267.9 l 22.5,-331.3 c 0,0 -125.9,-152 -393.3,-279.9"
           style="fill:#f38a38;fill-opacity:1;fill-rule:nonzero;stroke:none"
           id="path132" /></g><g
         id="g134"
         transform="matrix(0.131606,0,0,0.131606,16.677725,-36.303626)"><path
           d="m 15433.9,11072.7 17.2,299.2 c 20,-1.1 41.4,-1.7 64.2,-1.7 179.3,0 439.9,39.7 709.1,217.2 38.8,-19.7 66.3,-58.7 69.6,-104.8 l 6,-87.8 c -83.7,-77.1 -338.2,-266.4 -866.1,-322.1"
           style="fill:#f38a38;fill-opacity:1;fill-rule:nonzero;stroke:none"
           id="path136" /></g><path
         d="m 1100.5977,1270.5864 -0.86,0.89 58.87,57.35 0.23,0.01 c 205.23,10.09 399.27,62.63 401.2,63.16 l 0.33,-1.19 c -1.94,-0.53 -195.95,-53.06 -401.23,-63.19 l -58.54,-57.03"
         style="fill:#f99746;fill-opacity:1;fill-rule:nonzero;stroke:none;stroke-width:0.1"
         id="path138" /><g
         id="g140"
         transform="matrix(0.102291,0,0,0.102291,16.677725,-36.303626)"><path
           d="m 16281.6,11458.1 c 16.4,-18.7 18.4,-39.5 10.4,-61.8 l -0.2,-0.3 c -15,-41.3 -64.2,-87.3 -121.4,-133.3 -7.4,-5.9 -13.9,-11.2 -19.6,-16.2 -1.4,-1.3 -2.9,-2.6 -4.3,-3.9 -1.2,-1 -2.2,-2.1 -3.4,-3.1 -53.4,-49.2 -33.2,-60.5 -129.1,-160.3 -109.4,-113.8 -184.7,-115.8 -206.1,-105.5 -18.2,8.9 18.6,69.2 59.4,137 2,3.3 3.9,6.6 6,9.9 5.5,9 10.8,18.2 16.2,27.2 47.8,81.7 35.5,120 24.2,241.5 -9.2,98.7 -153.5,551.5 -153.5,551.5 l 209.5,36.1 c 0,0 63.1,-360.6 132.6,-416.1 37.2,-29.6 78.8,-30 114.6,-51.9 2.5,-1.5 5,-3.1 7.4,-4.7 20.3,-13.5 41,-27.4 57.3,-46.1"
           style="fill:#ffb27d;fill-opacity:1;fill-rule:nonzero;stroke:none"
           id="path142" /></g><g
         id="g144"
         transform="matrix(0.102291,0,0,0.102291,16.677725,-36.303626)"><path
           d="m 16281.6,11458.1 c 16.4,-18.7 18.4,-39.5 10.4,-61.8 l -0.2,-0.3 c -18.3,-41.2 -66.3,-87 -121.6,-132.8 -7.3,-6 -13.7,-11.6 -19.4,-16.7 -1.4,-1.3 -2.9,-2.6 -4.3,-3.9 -1.2,-1 -2.2,-2.1 -3.4,-3.1 -53.4,-49.2 -33.2,-60.5 -129.1,-160.3 -109.4,-113.8 -184.7,-115.8 -206.1,-105.5 -18.2,8.9 18.6,69.2 59.4,137 21.3,7.8 120.3,48 194.9,143.7 65.9,84 109.8,191.9 154.7,254.5 2.5,-1.5 5,-3.1 7.4,-4.7 20.3,-13.5 41,-27.4 57.3,-46.1"
           style="fill:#233862;fill-opacity:1;fill-rule:nonzero;stroke:none"
           id="path146" /></g><path
         d="m 1509.2977,1149.1464 c -1.32,-6.61 -10.75,-5.51 -21.29,-2.93 -10.54,2.57 -8.04,-0.49 -23.03,1.17 -15,1.66 -19.54,7.25 -20,9.48 -0.41,1.98 7,2.68 14.95,3.6 1,0.11 2,0.23 3.01,0.35 8.97,1.13 15.54,6.92 23.69,11.68 7.73,4.5 19.25,22.86 19.25,22.86 l 20.57,-1.63 c 0,0 -10.8,-16.4 -14.97,-23.52 -2.46,-4.2 -2.33,-9.74 -2.02,-14.02 0.16,-2.33 0.31,-4.7 -0.16,-7.04"
         style="fill:#ffb27d;fill-opacity:1;fill-rule:nonzero;stroke:none;stroke-width:0.1"
         id="path148" /><path
         d="m 1488.0077,1146.2164 c -10.54,2.57 -8.04,-0.49 -23.03,1.17 -15,1.66 -19.54,7.25 -20,9.48 -0.41,1.98 7,2.68 14.95,3.6 l 0.07,-0.16 c 0,0 9,-6.38 21.48,-6.67 10.18,-0.25 20.95,2.66 27.98,2.55 0.16,-2.33 0.31,-4.7 -0.16,-7.04 -1.32,-6.61 -10.75,-5.51 -21.29,-2.93"
         style="fill:#233862;fill-opacity:1;fill-rule:nonzero;stroke:none;stroke-width:0.1"
         id="path150" /><g
         id="g152"
         transform="matrix(0.100736,0,0,0.100736,16.677725,-36.303626)"><path
           d="m 15599.6,13073.4 190.8,-513.6 249.2,-670.6 c 0,0 67.6,-6.5 132.4,12.1 59.6,17.3 128,62.4 128,62.4 0,0 -69.2,720 -198.2,1133.3 -33.1,106.1 -70.2,191.9 -111.1,240.2 -200.1,236.5 -391.1,-263.8 -391.1,-263.8"
           style="fill:#ed7d2b;fill-opacity:1;fill-rule:nonzero;stroke:none"
           id="path154" /></g><g
         id="g156"
         transform="matrix(0.109621,0,0,0.109621,16.677725,-36.303626)"><path
           d="m 14513.5,12763.3 c 114.9,37.1 442.6,-10.5 771.8,-74.9 l 69,113.6 711.1,55.6 c 0,0 234.6,-520.4 106.2,-852 -18.9,-48.7 -56.4,-79.9 -120.4,-81 h -10.4 c 0,0 -423.2,0.3 -560.6,0.3 -353.7,0 -748.4,243.1 -799.5,253.3 -83.7,16.7 -117,-150.5 -200.7,-326 -83.5,-175.6 -785.7,-777.4 -785.7,-777.4 0,0 -107.9,-1.1 -152.5,15.6 -47.9,18 -65.5,41.4 -65.5,41.4 0,0 778,1547.9 1037.2,1631.5"
           style="fill:#f99746;fill-opacity:1;fill-rule:nonzero;stroke:none"
           id="path158" /></g><g
         id="g160"
         transform="matrix(0.111791,0,0,0.111791,16.677725,-36.303626)"><path
           d="m 14931.1,13585.8 c 210.2,-190.1 723.1,-527.3 726.1,-526.1 0,0 164.2,-110.4 282.4,-66.6 197.1,72.9 360.4,355.9 110.6,691.5 -124.6,167.4 -232.1,226 -195,437.9 40.1,229.6 -49,525.6 -314.3,551.7 -22.2,2.2 -155.9,27.3 -253.6,2.1 -249,-64 -706.4,-953.5 -356.2,-1090.5"
           style="fill:#a9453d;fill-opacity:1;fill-rule:nonzero;stroke:none"
           id="path162" /></g><g
         id="g164"
         transform="matrix(0.107058,0,0,0.107058,16.677725,-36.303626)"><path
           d="m 15914.6,14317.2 c -1.3,-0.4 121.6,-78.4 214.1,-61 87,16.2 171.3,129.3 170.2,129.6 -35.5,10.1 -61.4,53.3 -43.2,266.1 l -16.6,-1.9 -278.4,-31.8 c 0,0 -0.9,-86.8 -7.3,-168 -5.5,-68.2 -22.5,-127 -38.8,-133"
           style="fill:#ffb27d;fill-opacity:1;fill-rule:nonzero;stroke:none"
           id="path166" /></g><g
         id="g168"
         transform="matrix(0.106658,0,0,0.106658,16.677725,-36.303626)"><path
           d="m 16020.5,14673 c 0,0 -0.8,-87.1 -7.3,-168.6 154.2,-8.3 247.1,125.4 286.8,200.5 l -279.5,-31.9"
           style="fill:#ed975d;fill-opacity:1;fill-rule:nonzero;stroke:none"
           id="path170" /></g><g
         id="g172"
         transform="matrix(0.107467,0,0,0.107467,16.677725,-36.303626)"><path
           d="m 15842.6,14490 c 0,0 360.8,-35.6 379.5,189.5 18.7,225.1 77.9,372.1 -151.7,404.3 -229.6,32.3 -281.6,-49.9 -306.1,-123.5 -24.6,-73.6 -15.2,-455.2 78.3,-470.3"
           style="fill:#ffb27d;fill-opacity:1;fill-rule:nonzero;stroke:none"
           id="path174" /></g><g
         id="g176"
         transform="matrix(0.107798,0,0,0.107798,16.677725,-36.303626)"><path
           d="m 15832.6,15073.1 c 0,0 45.3,-274.2 250.1,-339.2 149.6,-47.5 217.3,-16.2 217.3,-16.2 0,0 -72,95.4 -97.6,228.1 -7.5,39.1 -35.3,71.3 -73.1,83.7 -106.3,35 -235,130.5 -296.7,43.6"
           style="fill:#a9453d;fill-opacity:1;fill-rule:nonzero;stroke:none"
           id="path178" /></g><g
         id="g180"
         transform="matrix(0.105155,0,0,0.105155,16.677725,-36.303626)"><path
           d="m 16300,15392 c 0,0 -69.5,-15.5 -131.1,-105.2 -33.7,-49 -72.7,-172.6 -66,-227.3 0,0 -64.5,260.1 29.5,356.9 99.9,102.6 167.6,-24.4 167.6,-24.4"
           style="fill:#a9453d;fill-opacity:1;fill-rule:nonzero;stroke:none"
           id="path182" /></g><g
         id="g184"
         transform="matrix(0.109327,0,0,0.109327,16.677725,-36.303626)"><path
           d="m 16230.6,13287.7 c -6.3,-26.8 -11.7,-51.6 -16.1,-74.4 -7.2,-36.8 -12.2,-68.5 -15.8,-96.5 -10.7,-87.3 -7.5,-139 -14.9,-195.5 -4,-31.6 -11.4,-64.8 -26.5,-106.5 -14.6,-40.5 -400.2,-76.6 -619.5,-62 -69.6,4.5 -122.7,14.3 -141.5,30.6 -78.2,67.9 -70.4,-81.6 -81.2,633.6 -5.2,348.8 296,659.4 296,659.4 0,0 24,-149 322.8,28.4 10.6,6.2 128.2,-168 241.4,-382.5 124.7,-236.9 90.5,-287 55.3,-434.6"
           style="fill:#aec3ff;fill-opacity:1;fill-rule:nonzero;stroke:none"
           id="path186" /></g><g
         id="g188"
         transform="matrix(0.100736,0,0,0.100736,16.677725,-36.303626)"><path
           d="m 15790.4,12559.8 249.2,-670.6 c 0,0 67.6,-6.5 132.4,12.1 59.6,17.3 128,62.4 128,62.4 0,0 -69.2,720 -198.2,1133.3 l -311.4,-537.2"
           style="fill:#f99746;fill-opacity:1;fill-rule:nonzero;stroke:none"
           id="path190" /></g><g
         id="g192"
         transform="matrix(0.104706,0,0,0.104706,16.677725,-36.303626)"><path
           d="m 16300,14697.7 c 0,0 -320.9,-54.4 -358.5,-192.5 -37.8,-138.2 -298.1,-910.9 -298.1,-910.9 0,0 201.7,-68.8 277.1,6.5 75.4,75.4 262.2,699.2 262.2,699.2 l 117.3,397.7"
           style="fill:#aec3ff;fill-opacity:1;fill-rule:nonzero;stroke:none"
           id="path194" /></g><path
         d="m 1586.4177,1405.6964 -7.96,3.16 c 0,0 -4.79,1.06 -7.37,0.24 -2.59,-0.81 -9.06,-0.72 -9.09,-1.79 -0.03,-1.06 7.38,-4.36 7.38,-4.36 l 0.23,0.09 c -2.81,-6.37 -16.89,-10.01 -17.57,-12.35 -0.82,-2.83 5.73,-4.3 9.29,-5.18 3.57,-0.88 12.31,-0.79 16.62,3.75 3.14,3.32 8.47,7.88 8.47,7.88 v 8.56"
         style="fill:#ffb27d;fill-opacity:1;fill-rule:nonzero;stroke:none;stroke-width:0.1"
         id="path196" /><g
         id="g198"
         transform="matrix(0.105001,0,0,0.105001,16.677725,-36.303626)"><path
           d="m 16300,14966.3 c 0,0 -15.5,-37.9 -56.4,-37.9 -40.9,0 -52,6.1 -59.7,14.8 -7.7,8.6 -15.4,25.3 -15.4,25.3 0,0 67.8,13.4 131.5,-2.2"
           style="fill:#ffffff;fill-opacity:1;fill-rule:nonzero;stroke:none"
           id="path200" /></g><g
         id="g202"
         transform="matrix(0.103142,0,0,0.103142,16.677725,-36.303626)"><path
           d="m 15971.4,14071.5 -788.7,-60.2 c 0,0 -16.5,-76.5 34.4,-163.3 0,0 711.5,-139 897.1,-68 185.8,71 164.9,406.1 164.9,406.1 l -307.7,-114.6"
           style="fill:#aec3ff;fill-opacity:1;fill-rule:nonzero;stroke:none"
           id="path204" /></g><g
         id="g206"
         transform="matrix(0.104174,0,0,0.104174,16.677725,-36.303626)"><path
           d="m 16300,13918.5 -51.8,63.8 c 0,0 -35.2,31.3 -60.6,36.6 -25.5,5.4 -79.3,36.4 -84.6,27.6 -5.2,-8.7 41.4,-71.1 41.4,-71.1 l 2.4,-0.3 c -53.5,-40.2 -188.4,-4.7 -205,-21.1 -20.2,-19.9 27.7,-62.9 53.4,-87 25.8,-24.1 99.4,-64.3 156.8,-46.5 41.9,13.1 108,26.4 108,26.4 l 40,71.6"
           style="fill:#ffb27d;fill-opacity:1;fill-rule:nonzero;stroke:none"
           id="path208" /></g><g
         id="g210"
         transform="matrix(0.108648,0,0,0.108648,16.677725,-36.303626)"><path
           d="m 16300,13198.8 c -10.9,-87.8 -7.5,-139.8 -15,-196.7 -280.7,-1 -656.2,216.8 -656.2,216.8 l 671.2,-20.1"
           style="fill:#94b0ed;fill-opacity:1;fill-rule:nonzero;stroke:none"
           id="path212" /></g><g
         id="g214"
         transform="matrix(0.108726,0,0,0.108726,16.677725,-36.303626)"><path
           d="m 15617.6,13393.5 c 0,0 437.1,13 510.9,261.4 80.9,273 171.5,-112.2 171.5,-112.2 l -48.2,-245.9 h -479.6 l -154.6,96.7"
           style="fill:#94b0ed;fill-opacity:1;fill-rule:nonzero;stroke:none"
           id="path216" /></g><g
         id="g218"
         transform="matrix(0.110297,0,0,0.110297,16.677725,-36.303626)"><path
           d="m 15793.7,13980.7 c 0,0 279.7,-18.3 349.6,-127.4 70,-109.1 156.7,-663 120.3,-853.2 -36.3,-190.2 -932.1,36.4 -932.1,36.4 l 28.6,165 c 0,0 516.9,-3 546.4,64.4 39.2,89.5 -112.8,714.8 -112.8,714.8"
           style="fill:#aec3ff;fill-opacity:1;fill-rule:nonzero;stroke:none"
           id="path220" /></g><g
         id="g222"
         transform="matrix(0.1247,0,0,0.1247,16.677725,-36.303626)"><path
           d="m 14300.4,11573.1 c -304,0 -601,22.5 -839.7,84.9 -2.6,0.7 -4.2,3.4 -3.5,6.1 0.6,2.6 3.3,4.2 6,3.5 271.9,-71.2 800.2,-133.9 1772.7,-28.9 581.8,62.9 1053,157.4 1057.8,158.4 2.6,0.5 5.3,-1.2 5.7,-3.9 0.6,-2.7 -1.1,-5.3 -3.8,-5.8 -4.7,-1 -476.4,-95.6 -1058.6,-158.5 -277.9,-30.1 -611.2,-55.8 -936.6,-55.8"
           style="fill:#f99746;fill-opacity:1;fill-rule:nonzero;stroke:none"
           id="path224" /></g><g
         id="g226"
         transform="matrix(0.10227,0,0,0.10227,16.677725,-36.303626)"><path
           d="m 15498.7,13996.7 c -111.4,0 -233.7,5.6 -366.8,19.4 -3.3,0.3 -5.8,3.3 -5.4,6.6 0.3,3.3 3.4,5.7 6.6,5.4 747.2,-77.1 1153.5,100.8 1157.5,102.6 3,1.4 6.7,0 8,-3 1.4,-3 0,-6.6 -3,-8 -3.3,-1.5 -280.9,-123 -796.9,-123"
           style="fill:#f99746;fill-opacity:1;fill-rule:nonzero;stroke:none"
           id="path228" /></g><g
         id="g230"
         transform="matrix(0.136051,0,0,0.136051,16.677725,-36.303626)"><path
           d="m 14649.4,6737.99 c 0,455.79 369.5,825.3 825.2,825.3 455.9,0 825.4,-369.51 825.4,-825.3 0,-455.78 -369.5,-825.35 -825.4,-825.35 -455.7,0 -825.2,369.57 -825.2,825.35"
           style="fill:#2a4e96;fill-opacity:1;fill-rule:nonzero;stroke:none"
           id="path232" /></g><g
         id="g234"
         transform="matrix(0.134352,0,0,0.134352,16.677725,-36.303626)"><path
           d="m 15040.8,6810.04 c 0,347.75 281.9,629.62 629.6,629.62 347.7,0 629.6,-281.87 629.6,-629.62 0,-347.66 -281.9,-629.54 -629.6,-629.54 -347.7,0 -629.6,281.88 -629.6,629.54"
           style="fill:#ffffff;fill-opacity:1;fill-rule:nonzero;stroke:none"
           id="path236" /></g><g
         id="g238"
         transform="matrix(0.132258,0,0,0.132258,16.677725,-36.303626)"><path
           d="m 15262.6,8692.73 c 0,286.47 232.2,518.7 518.7,518.7 286.5,0 518.7,-232.23 518.7,-518.7 0,-286.48 -232.2,-518.71 -518.7,-518.71 -286.5,0 -518.7,232.23 -518.7,518.71"
           style="fill:#2a4e96;fill-opacity:1;fill-rule:nonzero;stroke:none"
           id="path240" /></g><g
         id="g242"
         transform="matrix(0.13122,0,0,0.13122,16.677725,-36.303626)"><path
           d="m 15512.3,8753.27 c 0,217.5 176.4,393.83 393.9,393.83 217.5,0 393.8,-176.33 393.8,-393.83 0,-217.51 -176.3,-393.84 -393.8,-393.84 -217.5,0 -393.9,176.33 -393.9,393.84"
           style="fill:#ffffff;fill-opacity:1;fill-rule:nonzero;stroke:none"
           id="path244" /></g><g
         id="g246"
         transform="matrix(0.122485,0,0,0.122485,16.677725,-36.303626)"><path
           d="m 15250.6,7672.31 c 0,0 329.1,-89.97 499.5,-47.76 170.4,42.29 498.3,222.56 498.3,222.56 l 51.6,-90.3 c 0,0 -268.2,-399.56 -516.1,-444.96 -247.9,-45.31 -533.3,360.46 -533.3,360.46"
           style="fill:#ed7d2b;fill-opacity:1;fill-rule:nonzero;stroke:none"
           id="path248" /></g><g
         id="g250"
         transform="matrix(0.129284,0,0,0.129284,16.677725,-36.303626)"><path
           d="m 15902,6219.64 c 0,0 161.4,-64.36 215.8,-47.18 54.5,17.09 148.4,69.69 165.3,112.85 16.9,43.24 -110.8,-11.22 -154,0 -43.1,11.29 -90.1,24.44 -174.6,0 -84.5,-24.37 -52.5,-65.67 -52.5,-65.67"
           style="fill:#ffb27d;fill-opacity:1;fill-rule:nonzero;stroke:none"
           id="path252" /></g><g
         id="g254"
         transform="matrix(0.119322,0,0,0.119322,16.677725,-36.303626)"><path
           d="m 15639.2,2715.34 c 0,0 13.2,-212.78 52.7,-262.82 h 608.1 c -3.9,21.21 -21,73.59 -97,86.91 -96.2,16.68 -257,84.23 -315.2,211.19 -61.2,133.59 -248.6,-35.28 -248.6,-35.28"
           style="fill:#163560;fill-opacity:1;fill-rule:nonzero;stroke:none"
           id="path256" /></g><g
         id="g258"
         transform="matrix(0.111377,0,0,0.111377,16.677725,-36.303626)"><path
           d="m 15598.7,2940.82 c 0,0 -43,-283.81 12.8,-288.93 7.4,-0.63 268.4,-0.18 339.3,-10.78 115.9,-17.42 309.2,-2.24 309.2,-2.24 24.1,-0.99 40,25.23 27.7,46.06 -13.6,22.9 -39.3,47.32 -88.5,56.74 -102.7,19.76 -273.6,95.18 -333.6,232.28 -63,144.19 -266.9,-33.13 -266.9,-33.13"
           style="fill:#163560;fill-opacity:1;fill-rule:nonzero;stroke:none"
           id="path260" /></g><g
         id="g262"
         transform="matrix(0.116578,0,0,0.116578,16.677725,-36.303626)"><path
           d="m 16300,5678.09 c 0,0 -156.5,-547.62 -605,-1498.65 -448.6,-950.96 -483.2,-1384.31 -483.2,-1384.31 l -309,14.5 c 0,0 29.1,1131.94 241,1611.88 211.9,479.85 255,1793.13 255,1793.13 l 901.2,-536.55"
           style="fill:#94b0ed;fill-opacity:1;fill-rule:nonzero;stroke:none"
           id="path264" /></g><g
         id="g266"
         transform="matrix(0.118464,0,0,0.118464,16.677725,-36.303626)"><path
           d="m 16287.8,6051.38 c 0,0 12.2,-834.51 -132.1,-1859.04 -144.4,-1024.62 -95.5,-1459.52 -95.5,-1459.52 l -345.8,-11.57 c 0,0 -206.6,1025.04 -147.4,1537.86 59.3,512.81 -283,1759.77 -283,1759.77 l 1003.8,32.5"
           style="fill:#aec3ff;fill-opacity:1;fill-rule:nonzero;stroke:none"
           id="path268" /></g><g
         id="g270"
         transform="matrix(0.116314,0,0,0.116314,16.677725,-36.303626)"><path
           d="m 15893.9,8152.15 166.1,-123.11 240,50.55 c -3.3,21.92 -19.2,112.62 -33.5,194.81 -0.9,4.9 -1.8,9.72 -2.6,14.45 -12.4,69.98 -23.1,129.99 -23.1,129.99 l -224.2,111.77 -83.6,41.69 c 0.2,-1.46 6.5,-77.63 7.4,-88.72 15.6,-197.4 -46.5,-331.43 -46.5,-331.43"
           style="fill:#ffb27d;fill-opacity:1;fill-rule:nonzero;stroke:none"
           id="path272" /></g><g
         id="g274"
         transform="matrix(0.118713,0,0,0.118713,16.677725,-36.303626)"><path
           d="m 16285.1,6011.2 c 14.9,-148.6 -1174.2,-324.48 -1178.7,-75.23 -3.9,219.27 126.6,1425.87 167.1,1598.47 71.5,305.53 135.8,479.98 272,520.08 50.3,14.65 235.7,-33.44 369.7,-72.36 9.4,-2.61 18.6,-5.73 27.6,-9.6 33.1,-13.23 63.2,-32.52 88.7,-56.52 36.1,-33.87 63.2,-76.91 77.8,-125.77 20.6,-69.58 44.5,-158.62 63.7,-256.92 17.4,-88.2 31.3,-183.72 36,-279 1.2,-19.79 1.8,-39.5 1.9,-59.13 0.7,-72.95 7.1,-167.12 16.1,-271.83 5.6,-65.96 12.4,-136.21 19.3,-207.72 2.1,-20.47 4.3,-41.11 6.2,-61.84 1.5,-14.32 24.2,-485.79 30.9,-611.97 0.2,-1.86 0.2,-3.46 0.3,-5.06 v -0.59 c 0,-1.77 0.2,-3.62 0.3,-5.3 0.7,-11.29 1,-18.2 1.1,-19.71"
           style="fill:#f99746;fill-opacity:1;fill-rule:nonzero;stroke:none"
           id="path276" /></g><g
         id="g278"
         transform="matrix(0.116075,0,0,0.116075,16.677725,-36.303626)"><path
           d="m 15990.1,8497.54 c 49.3,-94.42 233.2,-176.01 309.9,-206.08 -0.9,4.91 -1.8,9.74 -2.6,14.48 -12.4,70.12 -23.1,130.26 -23.1,130.26 l -224.7,111.99 c -49.7,0.78 -79.9,-11.8 -59.5,-50.65"
           style="fill:#fca56b;fill-opacity:1;fill-rule:nonzero;stroke:none"
           id="path280" /></g><g
         id="g282"
         transform="matrix(0.117407,0,0,0.117407,16.677725,-36.303626)"><path
           d="m 16197.6,8353.52 c 0,0 -400.7,-125.03 -474.7,125.72 -74.1,250.8 -175.6,403.55 77.1,493.98 252.8,90.42 330.9,9.47 376,-68.23 45,-77.69 124,-512.46 21.6,-551.47"
           style="fill:#ffb27d;fill-opacity:1;fill-rule:nonzero;stroke:none"
           id="path284" /></g><g
         id="g286"
         transform="matrix(0.117935,0,0,0.117935,16.677725,-36.303626)"><path
           d="m 16087.9,8889.16 c 0,0 -25.4,-290.51 -85.5,-277.9 -60.1,12.62 -114.6,21.96 -105.8,-65.6 8.8,-87.61 92.1,-188.68 -93.1,-204.2 -185.1,-15.52 -451.2,462.02 -400.4,552.42 146.7,260.87 896.9,313.51 684.8,-4.72"
           style="fill:#163560;fill-opacity:1;fill-rule:nonzero;stroke:none"
           id="path288" /></g><g
         id="g290"
         transform="matrix(0.124744,0,0,0.124744,16.677725,-36.303626)"><path
           d="m 15954.2,7705.01 c 0,0 69.8,136.92 124.9,178.69 55,41.68 199.3,27.89 204.5,16.75 16.4,-34.39 -117.9,-84.42 -133.9,-115.28 -16.1,-30.94 47.7,-29.26 -2.5,-82.41 -42.4,-44.97 -142.4,-86.42 -142.4,-86.42 l -50.6,88.67"
           style="fill:#ffb27d;fill-opacity:1;fill-rule:nonzero;stroke:none"
           id="path292" /></g><g
         id="g294"
         transform="matrix(0.124671,0,0,0.124671,16.677725,-36.303626)"><path
           d="m 16103.2,7761.82 c 0.9,-0.08 45.6,5.21 89.2,9.94 32,3.45 63.4,17.73 76.6,18.37 31,1.53 9.1,-47.8 -58,-72.35 -56.9,-20.78 -73,-54.46 -126.7,-63.53 -64.9,-10.98 18.9,107.57 18.9,107.57"
           style="fill:#ffb27d;fill-opacity:1;fill-rule:nonzero;stroke:none"
           id="path296" /></g><g
         id="g298"
         transform="matrix(0.116758,0,0,0.116758,16.677725,-36.303626)"><path
           d="m 16221.3,8182.97 c -5.2,2.15 -325.3,96.61 -360.1,85.14 -34.7,-11.48 -55.4,-78.71 -55.4,-78.71 l 494.2,-140.8 c 0,0 -11.8,106.2 -78.7,134.37"
           style="fill:#ed7d2b;fill-opacity:1;fill-rule:nonzero;stroke:none"
           id="path300" /></g><g
         id="g302"
         transform="matrix(0.127981,0,0,0.127981,16.677725,-36.303626)"><path
           d="m 16116.9,6349.3 c 0,0 52.2,44.15 97.7,54.07 45.6,10.01 85.4,51.26 85.4,31.33 0,-19.92 -34.1,-68.29 -34.1,-85.4 0,-17.03 -149,0 -149,0"
           style="fill:#ffb27d;fill-opacity:1;fill-rule:nonzero;stroke:none"
           id="path304" /></g><g
         id="g306"
         transform="matrix(0.118182,0,0,0.118182,16.677725,-36.303626)"><path
           d="m 16300,6954.55 c -253.7,96.29 -445.9,470.29 -445.9,470.29 L 16282,7287 c 1.2,-19.88 1.8,-39.68 1.8,-59.4 0.8,-73.27 7.2,-167.87 16.2,-273.05"
           style="fill:#ed7d2b;fill-opacity:1;fill-rule:nonzero;stroke:none"
           id="path308" /></g><g
         id="g310"
         transform="matrix(0.126686,0,0,0.126686,16.677725,-36.303626)"><path
           d="m 16289,6376.16 0.5,1.9 c 10.5,40.49 -9.2,82.72 -46.9,100.88 -148.6,71.67 -533.7,257.33 -576.7,280.38 -45.4,24.31 -496.2,457.74 -631,587.83 -23.4,22.58 -57.2,30.31 -88.1,20.2 l -373.5,-122.03 c -69.1,-22.57 -82.3,-114.61 -22.4,-155.66 274.7,-188.34 849.5,-580.1 952.8,-632.9 182.1,-93.15 550.7,-141.77 686.7,-157.16 38.4,-4.35 75.3,16.97 90.4,52.57 3.1,7.42 5.9,15.39 8.2,23.99"
           style="fill:#f99746;fill-opacity:1;fill-rule:nonzero;stroke:none"
           id="path312" /></g><path
         d="m 618.49873,695.74637 c 0,0 -57.716,-5.46 -88.692,-95.9 -30.977,-90.43 -21.94301,-259.08 -44.832,-275.99 -22.888,-16.91 -146.302,26.27 -156.175,-1.49 -9.873,-27.76 0,-31.05 -27.151,-17.88 -27.15101,13.16 -73.225,17.7 -63.352,-4.32 9.873,-22.01 -51.012,-7.25 -49.366,-37.26 h 310.69199 c 0,0 147.103,15.25 141.99601,81.07 -5.107,65.82 -57.006,219.24 -25.76701,277.27 31.23801,58.03 72.08301,88.16 72.08301,88.16 l -69.436,-13.66"
         style="fill:#ed7d2b;fill-opacity:1;fill-rule:nonzero;stroke:none;stroke-width:0.1"
         id="path314" /><path
         d="m 574.98973,285.02637 -13.05701,-4.86 c 0,0 -56.71099,78.65 -63.69299,147.86 -1.248,12.35 -0.832,24.32 1.86499,35.38 0,0 -0.554,3.16 -1.52399,8.76 -0.448,2.61 -1.00201,5.75 -1.63101,9.36 -1.844,10.56 -4.381,25.02 -7.281,41.47 -6.673,37.88 -15.318,86.3 -22.033,121.89 l 3.517,1.13 38.067,12.28 7.866,24.98 28.344,7.47 c 0,0 6.332,-12.39 11.993,-70.9 1.045,-7.68 1.993,-16.14 2.708,-25.32 2.206,-28.01 2.366,-62.76 -2.698,-102.49 -1.3,-10.17 -2.942,-20.67 -4.978,-31.46 -1.492,-7.91 -1.71599,-18.69 -1.087,-31.06 2.857,-56.57 23.62201,-144.49 23.62201,-144.49"
         style="fill:#aec3ff;fill-opacity:1;fill-rule:nonzero;stroke:none;stroke-width:0.1"
         id="path316" /><path
         d="m 560.13072,594.52637 -61.54999,-122.36 c -0.448,2.61 -1.00201,5.75 -1.63101,9.36 -1.844,10.56 -4.381,25.02 -7.281,41.47 -6.673,37.88 -15.318,86.3 -22.033,121.89 l 3.517,1.13 38.067,12.28 7.866,24.98 28.344,7.47 c 0,0 6.332,-12.39 11.993,-70.9 1.045,-7.68 1.993,-16.14 2.708,-25.32"
         style="fill:#94b0ed;fill-opacity:1;fill-rule:nonzero;stroke:none;stroke-width:0.1"
         id="path318" /><path
         d="m 533.05272,675.03637 -1.42399,12.22 c -23.872,-6.34 -87.653,17.72 -87.653,17.72 0,0 -23.125,-20.33 -20.089,-69.06 1.482,-23.78 4.189,-124.84 7.017,-154.75 1.022,-10.84 1.917,-18.55 2.282,-21.63 l 0.008,-0.03 c 0.11099,-0.94 -0.21701,-1.83 -0.694,-2.65 -4.163,-7.06 -7.609,-14.42 -10.436,-21.95 -27.75101,-73.94 4.274,-165.01 4.274,-165.01 l 8.31,3.35 c 0,0 18.224,101.34 33.032,146.12 2.514,7.59 4.923,13.56 7.132,17.13 6.437,10.39 12.412,27.37 17.836,47.56 10.24899,38.18 18.5,87.84 23.98999,126.18 0.757,-0.04 16.415,64.8 16.415,64.8"
         style="fill:#aec3ff;fill-opacity:1;fill-rule:nonzero;stroke:none;stroke-width:0.1"
         id="path320" /><path
         d="m 704.41773,715.64637 -1.779,-11.95 c 0,0 -0.79,0 -2.173,0.09 -4.348,0.3 -14.921,0.89 -26.876,2.18 -17.98401,1.78 -39.327,4.94 -47.82501,10.18 -12.94299,7.9 -34.188,32.11 -48.02099,56.32 -0.39601,0.59 -0.69101,1.18 -0.98801,1.78 -7.21299,12.84 -12.25299,25.59 -12.64799,35.76 -0.297,6.23 0.395,11.57 1.68,16.21 1.68,6.13 4.447,10.97 7.311,14.62 0.396,0.6 0.79099,1.19 1.384,1.68 4.743,5.64 9.387,8.01 9.387,8.01 2.37099,0.99 4.941,-0.2 7.608,-3.07 v -0.09 c 2.174,-2.28 4.546,-5.74 6.818,-10.08 0.099,-0.1 0.198,-0.2 0.198,-0.3 0.49399,-0.89 0.98799,-1.88 1.581,-2.96 0.197,-0.2 0.296,-0.5 0.395,-0.7 1.087,-2.27 2.174,-4.64 3.26099,-7.11 12.154,-26.48 25.097,-66.6 35.86801,-78.55 4.644,-5.14 25.888,-15.22 42.784,-22.73 12.154,-5.34 22.035,-9.29 22.035,-9.29"
         style="fill:#ffb27d;fill-opacity:1;fill-rule:nonzero;stroke:none;stroke-width:0.1"
         id="path322" /><path
         d="m 578.65673,823.24637 c -7.494,-3.48 -16.544,-5.84 -27.49201,-6.44 -41.03999,-2.25 -50.35699,33.73 -52.051,57.6 5.916,2.15 11.09701,1.95 14.082,1.79 2.91,-0.17 5.947,-0.46 8.453,-0.77 5.02,2.62 14.038,15.36 19.251,36.67 l 1.77,-0.82 29.612,-13.93 c 0,0 -3.144,-9.63 -5.468,-18.85 -1.812,-7.22 -3.113,-14.19 -2.025,-16.14 2.334,-0.95 3.731,-1.55 3.731,-1.55 l 0.011,-0.03 c 0.298,-0.76 6.736,-17.16 10.126,-37.53"
         style="fill:#ffb27d;fill-opacity:1;fill-rule:nonzero;stroke:none;stroke-width:0.1"
         id="path324" /><path
         d="m 588.92273,796.31637 c -0.309,-0.82 -0.65101,-1.62 -1.024,-2.44 -10.39301,-22.39 -29.63401,-115.11 -29.63401,-115.11 2.74,-16.68 -125.29499,3.27 -125.62599,18.45 -4.50901,16.09 16.00099,41.95 27.567,54.93 1.44899,1.63 2.75,3.38 3.88,5.22 2.85699,4.63 4.66899,9.85 5.24399,15.31 2.272,21.52 1.408,41.68 1.598,53.95 h 10e-4 c 2.26,1.67 4.445,3.22 6.481,4.69 3.11301,2.27 5.86301,4.39 7.88901,6.54 2.22799,2.35 3.624,4.75 3.784,7.45 0.117,2.05 0.053,4.15 -0.16,6.25 -0.096,0.99 -0.224,1.98 -0.373,2.97 -1.599,10.42 -5.948,19.86 -5.948,19.86 11.012,4.46 30.594,1.81 30.594,1.81 0,0 -0.022,-1.09 -0.033,-2.87 -0.064,-7.16 0,-25.52 2.292,-29 2.868,-4.33 55.325,-23.29 58.096,-17.42 2.729,5.78 -4.744,32.85 -5.02,33.87 l -0.011,0.03 c 17.567,-6.89 23.846,-12.68 23.846,-12.68 -10.585,-6.87 4.743,-30.09 -3.443,-51.81"
         style="fill:#f99746;fill-opacity:1;fill-rule:nonzero;stroke:none;stroke-width:0.1"
         id="path326" /><path
         d="m 553.58773,989.74637 c -0.065,1.78 -1.442,20.95003 -30.646,21.95003 0,0 14.36099,-1.71 16.842,-8.02 0,0 -9.778,7.8 -17.741,5.29 -7.964,-2.51 -12.64,-16.46003 -12.687,-21.05003 -0.047,-4.59 4.377,-19.38 9.431,-20.64 1.914,-0.47 4.119,-0.35 6.121,-0.01 -1.345,-2.09 -2.663,-4.41 -3.922,-7 -11.653,-23.92 0.364,-47.3 10.23,-44.71 6.327,1.65 8.117,-9.14 8.117,-9.14 l 61.47,49.76 c 0,0 -22.578,46.72003 -47.215,33.57"
         style="fill:#2c3a64;fill-opacity:1;fill-rule:nonzero;stroke:none;stroke-width:0.1"
         id="path328" /><path
         d="m 572.28273,897.34637 c 0,0 -3.148,-9.63 -5.468,-18.86 -17.30901,4.83 -22.56501,23.03 -24.147,32.78 l 29.61499,-13.92"
         style="fill:#ed985f;fill-opacity:1;fill-rule:nonzero;stroke:none;stroke-width:0.1"
         id="path330" /><path
         d="m 575.92772,887.15637 c 0,0 -41.41199,9.58 -35.04599,35.28 6.36499,25.69 5.30699,44.24 32.017,39.21 26.71,-5.04 29.398,-16.11 29.36,-25.2 -0.039,-9.1 -15.394,-51.13 -26.33101,-49.29"
         style="fill:#ffb27d;fill-opacity:1;fill-rule:nonzero;stroke:none;stroke-width:0.1"
         id="path332" /><path
         d="m 604.58773,951.02637 c -4.45201,9.32 -9.692,8.82 -12.97,7.17 -19.458,18 -38.544,3.3 -38.544,3.3 -7.346,-17.75 -23.267,-25 -23.267,-25 0,0 6.361,-6.52 24.8,-6.37 5.633,0.04 11.296,2.63 16.448,6.19 -9.93901,-10.01 -21.59301,-16.1 -21.59301,-16.1 23.082,4.41 38.56001,31.13 40.14601,33.97 1.955,-2.89 5.69499,-9.03 6.01,-14.22 0.428,-7.06 -1.999,-20.75 2.04,-21.27 0,0 13.606,18.37 6.93,32.33"
         style="fill:#2c3a64;fill-opacity:1;fill-rule:nonzero;stroke:none;stroke-width:0.1"
         id="path334" /><path
         d="m 592.36973,848.12637 c 0,0 9.971,-17.39 11.463,-21.87 0,0 -12.93,0.5 -18.152,-9.45 0,0 -1.25201,28.98 6.689,31.32"
         style="fill:#f99746;fill-opacity:1;fill-rule:nonzero;stroke:none;stroke-width:0.1"
         id="path336" /><path
         d="m 523.79073,709.91637 c -25.253,0.27 -46.636,26.49 -59.705,47.45 2.85699,4.63 4.66899,9.85 5.24399,15.31 2.272,21.52 1.408,41.68 1.598,53.95 h 10e-4 c 2.26,1.67 4.445,3.22 6.481,4.69 3.11301,2.27 5.86301,4.39 7.88901,6.54 20.68,-34.95 72.73199,-128.3 38.492,-127.94"
         style="fill:#ed7d2b;fill-opacity:1;fill-rule:nonzero;stroke:none;stroke-width:0.1"
         id="path338" /><path
         d="m 474.65273,263.10637 h -65.762 c 0,0 -1.57601,10.02 1.859,17.62 3.291,7.3 8.447,10.62 7.212,19.44 4.179,-4.3 10.989,-9.12 20.496,-7.84 1.16499,-1.88 7.52,-11.99 11.411,-14.79 4.297,-3.09 23.46,-1.99 24.784,-14.43"
         style="fill:#233862;fill-opacity:1;fill-rule:nonzero;stroke:none;stroke-width:0.1"
         id="path340" /><path
         d="m 615.85172,263.10637 h -65.76199 c 0,0 -2.458,10.49 1.859,17.62 3.82099,6.32 2.357,9.92 -0.474,15.14 2.979,-1.22 6.83299,-2.33 11.077,-2.08 3.276,0.18 6.741,1.67 9.779,3.44 2.83,-3.23 14.95,-16.97 18.737,-19.69 4.29799,-3.09 23.46,-1.99 24.784,-14.43"
         style="fill:#233862;fill-opacity:1;fill-rule:nonzero;stroke:none;stroke-width:0.1"
         id="path342" /><path
         d="m 624.59272,692.18637 -2.645,-10.2 c 0,0 -32.841,6.88 -40.05399,8.46 h -0.099 c -12.35101,2.97 -26.18401,6.53 -37.845,10.48 -8.20001,2.86 -15.315,5.93 -20.15601,8.99 -0.49399,0.3 -0.889,0.59 -1.384,0.99 -11.56099,8.4 -25.29499,33.1 -35.96599,59.58 -1.482,3.66 -2.866,7.31 -4.249,10.87 -4.941,13.24 -8.893,26.28 -11.26401,37.55 -1.48199,6.72 -2.471,12.84 -2.66899,17.88 -0.098,1.78 -0.19701,3.46 -0.098,5.04 0.198,28.66 14.426,32.61 14.426,32.61 0.296,0.1 0.593,0.2 0.988,0.29 2.47,0.4 5.039,-1.28 7.707,-4.54 3.36,-4.05 6.917,-10.67 10.573,-18.67 5.632,-12.75 11.56099,-29.25 17.09399,-45.66 3.063,-8.99 6.02701,-17.98 8.992,-26.28 1.68001,-5.04 3.359,-9.78 4.94001,-14.13 3.063,-8.3 5.82999,-15.02 8.29999,-19.27 1.581,-2.76 6.126,-6.62 12.154,-10.96 10.473,-7.61 71.255,-43.03 71.255,-43.03"
         style="fill:#ffb27d;fill-opacity:1;fill-rule:nonzero;stroke:none;stroke-width:0.1"
         id="path344" /><path
         d="m 501.82373,851.46637 c -19.023,5.25 -33.696,-9.6 -33.696,-9.6 0.238,28.6 14.479,32.52 14.479,32.52 5.729,2.37 12.368,-7.55 19.217,-22.92"
         style="fill:#f99746;fill-opacity:1;fill-rule:nonzero;stroke:none;stroke-width:0.1"
         id="path346" /><path
         d="m 1251.8777,603.56637 c 0.56,-1.58 -234.72,-120.92 -234.72,-120.92 0,0 27.14,-13.27 65.21,-4.45 38.07,8.81 184.11,92.83 184.11,92.83 l -14.6,32.54"
         style="fill:#2a4e96;fill-opacity:1;fill-rule:nonzero;stroke:none;stroke-width:0.1"
         id="path348" /><path
         d="m 1015.1357,602.99637 c 0,0 -78.04897,-125.71 -286.37197,104.12 -7.366,8.13 -18.594,11.56 -29.229,8.88 l -81.036,-20.25 c 0,0 6.989,0.56 10.737,-3.28 1.578,-1.62 3.05,-4.15 4.256,-7.51 16.725,-46.65 79.309,-202.93 180.769,-246.13 119.711,-50.98 246.61697,-21.53 341.53697,164.17 h -140.662"
         style="fill:#f99746;fill-opacity:1;fill-rule:nonzero;stroke:none;stroke-width:0.1"
         id="path350" /><path
         d="m 1548.4677,552.43637 c -0.19,-0.34 -0.39,-0.68 -0.58,-1.03 -4.62,-8.02 -15.21,-27.68 -26.87,-49.19 -5.52,-10.21 -11.29,-20.83 -16.77,-30.83 -9.44,-17.25 -18.03,-32.62 -23.05,-40.74 -5.09,-8.25 -8.84,-14.05 -10.36,-16.37 l -0.01,-0.02 c -0.46,-0.71 -0.56,-1.55 -0.5,-2.39 0.53,-7.28 0.38,-14.51 -0.33,-21.64 -7.04,-69.98 -54.23,-107.49 -54.23,-107.49 l -14.03,-2.07 c 0,0 19.86,73.57 25.71,115.15 0.98,7.05 1.42,12.77 1.07,16.49 -1.04,10.84 0.89,26.75 4.53,45.01 6.48,32.46 18.36,72.3 28.69,104.19 0.66,2.03 20.39,73.42 20.39,73.42 16.56,-14.48 76.97,-20.45 76.97,-20.45 0,0 10.25,-24.91 -10.63,-62.04"
         style="fill:#f99746;fill-opacity:1;fill-rule:nonzero;stroke:none;stroke-width:0.1"
         id="path352" /><path
         d="m 1372.2877,262.90637 h 58.56 c 0,0 1.41,8.93 -1.65,15.7 -2.93,6.5 -7.11,6.7 -0.54,16.89 -3.72,-3.83 -15.68,-5.42 -24.15,-4.28 -1.03,-1.68 -6.68,-12.96 -10.15,-15.45 -3.83,-2.75 -20.89,-1.77 -22.07,-12.86"
         style="fill:#233862;fill-opacity:1;fill-rule:nonzero;stroke:none;stroke-width:0.1"
         id="path354" /><path
         d="m 1548.4677,552.43637 c -0.19,-0.34 -0.39,-0.68 -0.58,-1.03 -4.62,-8.02 -29.58,-54.13 -41.25,-75.64 13.52,55.6 4.12,111.2 4.12,111.2 l 37.71,-34.53"
         style="fill:#ed7d2b;fill-opacity:1;fill-rule:nonzero;stroke:none;stroke-width:0.1"
         id="path356" /><path
         d="m 1322.4277,827.06637 c 0,0 -2.32,25.27 25.91,25.27 0,0 -8.55,-2.32 -12.98,-6.96 0,0 18.01,10.57 37.61,-5.67 19.59,-16.25 7.42,-56.99 13.38,-64.72 5.96,-7.74 29.16,-9.29 26.33,-34.3 -2.84,-25.01 -73.66,-56.34 -69.11,-77.03 0,0 -27.75,40.79 -7.91,59.41 0,0 -9.67,-9.11 -10.65,-19.94 0,0 -2.63,21.14 10.83,27.91 11.9,5.98 21.66,27.87 20.62,31.78 -1.03,3.91 -34.03,64.25 -34.03,64.25"
         style="fill:#2c3a64;fill-opacity:1;fill-rule:nonzero;stroke:none;stroke-width:0.1"
         id="path358" /><path
         d="m 1362.2777,720.95637 c 0,0 -40.17,-101.37 -48.83,-97.61 -8.66,3.76 -59.67,19.96 -59.67,19.96 l -3.36,-12.42 c 0,0 48.55,-37.41 73.53,-39.05 24.98,-1.63 58.82,71.97 58.82,71.97 l -20.49,57.15"
         style="fill:#ffb27d;fill-opacity:1;fill-rule:nonzero;stroke:none;stroke-width:0.1"
         id="path360" /><path
         d="m 1321.9977,459.24637 c 14.99,8.1 20.59,26.89 12.49,41.87 -8.1,14.99 -26.88,20.59 -41.86,12.49 -14.99,-8.1 -20.59,-26.88 -12.49,-41.87 8.1,-14.98 26.88,-20.59 41.86,-12.49 z m -38.72,71.66 c 24.52,13.25 55.25,4.08 68.51,-20.44 13.25,-24.52 4.09,-55.26 -20.44,-68.51 -24.52,-13.26 -55.26,-4.09 -68.51,20.44 -13.25,24.52 -4.09,55.25 20.44,68.51"
         style="fill:#2a4e96;fill-opacity:1;fill-rule:nonzero;stroke:none;stroke-width:0.1"
         id="path362" /><path
         d="m 1260.5777,618.25637 c -3.99,-16.56 6.24,-33.28 22.81,-37.26 16.56,-3.99 33.28,6.24 37.26,22.81 3.99,16.56 -6.25,33.28 -22.81,37.26 -16.56,3.99 -33.28,-6.25 -37.26,-22.81 z m -19.12,4.6 c 6.52,27.1 33.88,43.85 60.98,37.33 27.1,-6.53 43.85,-33.88 37.33,-60.98 -6.53,-27.11 -33.88,-43.85 -60.98,-37.33 -27.11,6.52 -43.85,33.88 -37.33,60.98"
         style="fill:#2a4e96;fill-opacity:1;fill-rule:nonzero;stroke:none;stroke-width:0.1"
         id="path364" /><path
         d="m 1330.4077,830.62637 c -0.38,1.53 33.45,-15.3 35.17,-17.2 15.87,-17.6 11.34,-40.57 2.26,-40.79 -5.82,-0.14 -4.69,-9.82 -4.69,-9.82 l -64.87,27.44 c 0,0 7.81,45.55 32.13,40.37"
         style="fill:#2c3a64;fill-opacity:1;fill-rule:nonzero;stroke:none;stroke-width:0.1"
         id="path366" /><path
         d="m 1352.2077,718.84637 c 0,0 -8.64,-8.95 -8.64,-35.72 0,0 11.91,-18.79 42.78,-23.55 0,0 -26.54,59.28 -34.14,59.27"
         style="fill:#aec3ff;fill-opacity:1;fill-rule:nonzero;stroke:none;stroke-width:0.1"
         id="path368" /><g
         id="g370"
         transform="matrix(0.100981,0,0,0.100981,16.677725,-36.303626)"><path
           d="m 14716.9,6401.4 -2,108.44 c 216.1,-27.23 745.2,258.27 745.2,258.27 0,0 226.1,-150.43 257.1,-579.82 15.1,-209.64 110.6,-1096.14 121.2,-1360.85 3.9,-95.86 5.2,-164.38 5.6,-191.72 v -0.29 c 0.1,-8.32 4,-15.75 9.2,-22.29 44.6,-56.84 83.5,-117.05 117,-179.53 329.8,-613.58 157.4,-1447.21 157.4,-1447.21 l -76.6,19.41 c 0,0 -278.8,864.33 -461,1238.16 -31,63.38 -59.2,112.69 -82.6,141.21 -68.6,83.29 -140.8,224.6 -212,394.73 -134.6,321.54 -578.5,1621.49 -578.5,1621.49"
           style="fill:#f99746;fill-opacity:1;fill-rule:nonzero;stroke:none"
           id="path372" /></g><g
         id="g374"
         transform="matrix(0.100735,0,0,0.100735,16.677725,-36.303626)"><path
           d="m 15704.7,2970.27 h 581.3 c 0,0 14,88.65 -16.4,155.86 -29.1,64.52 -74.7,93.81 -63.8,171.83 -36.9,-38.02 -97.1,-80.61 -181.2,-69.29 -10.3,-16.68 -66.5,-106.02 -100.8,-130.74 -38.1,-27.3 -207.4,-17.57 -219.1,-127.66"
           style="fill:#233862;fill-opacity:1;fill-rule:nonzero;stroke:none"
           id="path376" /></g><path
         d="m 1390.2977,646.99637 c 7.87,-1.34 -1.28,-7.59 9.54,-8.77 15.39,-1.68 31.29,-2.83 39.62,-6.15 3.04,-1.21 5.07,-2.71 5.71,-4.62 3.61,-10.86 19.52,-27.61 19.52,-27.61 101.97,4.64 113.17,47.3 113.17,47.3 -66.18,64.28 -127.04,102.18 -173.51,107.2 -7.95,0.86 -18,-4.19 -25.17,-7.37 -16.27,-7.25 -26.97,-28.13 -26.97,-28.13 0,0 8.2,-66.75 38.09,-71.85"
         style="fill:#aec3ff;fill-opacity:1;fill-rule:nonzero;stroke:none;stroke-width:0.1"
         id="path378" /><path
         d="m 1399.8377,638.22637 c 15.39,-1.68 31.29,-2.83 39.62,-6.15 3.41,50.86 -20.59,89.12 -20.59,89.12 0,0 -15.66,-63.72 -19.03,-82.97"
         style="fill:#94b0ed;fill-opacity:1;fill-rule:nonzero;stroke:none;stroke-width:0.1"
         id="path380" /><path
         d="m 1386.5477,729.80637 c 0,0 38.73,2.11 45.61,-22.2 6.88,-24.32 -12.91,-121.36 -17.18,-131.38 -7.76,-18.23 -45.56,-70.28 -45.56,-70.28 l -13.91,4.23 c 0,0 25.21,79.51 30.84,87.38 8.83,12.35 -11.39,121.67 0.2,132.25"
         style="fill:#ffb27d;fill-opacity:1;fill-rule:nonzero;stroke:none;stroke-width:0.1"
         id="path382" /><path
         d="m 1355.5077,510.17637 c 0,0 -0.71,-6.16 -3.32,-9.35 -2.6,-3.18 -10.18,-10.88 -10.31,-15.39 0,0 0.38,-2 2,-1.63 1.63,0.36 7.27,5.95 10.17,5.55 0,0 -1.54,-9.04 -3.08,-11.58 -1.53,-2.54 -0.31,-13.34 0.61,-15.53 0.92,-2.2 12.22,11.79 16.86,18.03 4.65,6.25 0.08,31.6 0.08,31.6 l -13.01,-1.7"
         style="fill:#ffb27d;fill-opacity:1;fill-rule:nonzero;stroke:none;stroke-width:0.1"
         id="path384" /><path
         d="m 1439.7877,675.08637 c -0.1,-0.56 -36.64,-6.72 -59.5,4.88 0,0 -19.1,59.83 8.19,56.96 27.29,-2.86 43.45,-11.45 44.14,-24.52 0.69,-13.06 7.17,-37.32 7.17,-37.32"
         style="fill:#aec3ff;fill-opacity:1;fill-rule:nonzero;stroke:none;stroke-width:0.1"
         id="path386" /><path
         d="m 1256.1177,647.96637 c 0,0 -10.04,2.08 -13.75,-3.17 -3.7,-5.24 -1.23,-20.98 5.56,-20.36 6.79,0.61 7.43,10.49 8.19,14.19 0.76,3.7 0,9.34 0,9.34"
         style="fill:#ffb27d;fill-opacity:1;fill-rule:nonzero;stroke:none;stroke-width:0.1"
         id="path388" /><path
         d="m 1379.1777,746.97637 c 0,0 -10.76,-40.18 -26.97,-28.13 0.46,1.94 -2.37,7.58 -5.7,13.3 -4.26,7.32 -9.33,14.8 -9.33,14.8 l 21.92,19.2 1.31,1.15 c 6.71,-11.72 13.29,-16.32 18.77,-20.32"
         style="fill:#ffb27d;fill-opacity:1;fill-rule:nonzero;stroke:none;stroke-width:0.1"
         id="path390" /><path
         d="m 1337.1777,746.93637 c 0,0 5.07,-7.46 9.33,-14.79 13.62,8.4 13.64,25.27 12.59,34 l -21.92,-19.21"
         style="fill:#ed985f;fill-opacity:1;fill-rule:nonzero;stroke:none;stroke-width:0.1"
         id="path392" /><path
         d="m 1336.5777,737.31637 c 0,0 33.07,18.41 21.29,38.83 -11.77,20.42 -15.44,36.55 -37.06,25.67 -21.61,-10.89 -21.19,-21.03 -18.91,-28.81 2.27,-7.77 25.77,-39.95 34.68,-35.69"
         style="fill:#ffb27d;fill-opacity:1;fill-rule:nonzero;stroke:none;stroke-width:0.1"
         id="path394" /><path
         d="m 1296.3077,784.92637 c 1.51,9.06 6.12,9.93 9.33,9.32 12.22,20.21 32.18,12.32 32.18,12.32 10.66,-13.37 26.07,-15.66 26.07,-15.66 0,0 -3.84,-7.14 -19.66,-11.56 -4.83,-1.35 -10.31,-0.53 -15.6,1.25 10.97,-6.12 22.45,-8.47 22.45,-8.47 -20.84,-1.9 -40.67,17.15 -42.73,19.19 -0.96,-2.95 -2.65,-9.13 -1.64,-13.65 1.37,-6.15 6.83,-17.27 3.5,-18.71 0,0 -16.17,12.37 -13.9,25.97"
         style="fill:#2c3a64;fill-opacity:1;fill-rule:nonzero;stroke:none;stroke-width:0.1"
         id="path396" /><path
         d="m 1267.1277,490.09637 c 0.14,1.67 -257.884,56.67 -257.884,56.67 0,0 22.824,19.79 61.884,21.03 39.06,1.25 201.76,-42.5 201.76,-42.5 l -5.76,-35.2"
         style="fill:#2a4e96;fill-opacity:1;fill-rule:nonzero;stroke:none;stroke-width:0.1"
         id="path398" /><path
         d="m 1163.6477,541.75637 c 3.12,0.04 5.67,-2.46 5.71,-5.57 0.04,-3.12 -2.45,-5.68 -5.57,-5.72 -3.12,-0.04 -5.67,2.46 -5.71,5.58 -0.04,3.11 2.45,5.67 5.57,5.71"
         style="fill:#f99746;fill-opacity:1;fill-rule:nonzero;stroke:none;stroke-width:0.1"
         id="path400" /><path
         d="m 618.25172,695.89637 c 0,0 16.72,-6.52 19.95801,-9.05 3.23799,-2.54 9.458,-10.83 10.572,-15.2 0,0 -0.058,-1.79 -1.723,-1.79 -1.666,0 -5.414,6.41 -8.152,5.38 0,0 3.482,-8.48 5.534,-10.62 2.052,-2.15 3.221,-12.95 2.803,-15.29 -0.418,-2.35 -14.499,8.83 -20.39701,13.91 -3.142,2.71 -3.04899,9.27 -4.022,16.69 -0.853,6.5 -18.812,10.27 -18.812,10.27 l 14.239,5.7"
         style="fill:#ffb27d;fill-opacity:1;fill-rule:nonzero;stroke:none;stroke-width:0.1"
         id="path402" /><g
         id="g404"
         transform="matrix(0.165423,0,0,0.165423,16.677725,-36.303626)"><path
           d="m 16300,5336.19 c 0,0 -54,-66.86 -131.3,-141.22 -87.4,-83.96 -204.6,-177.6 -307.5,-195.07 -27.8,-4.84 -54.5,-3.99 -79.2,3.93 -51.5,16.56 -104,51.2 -153.7,93.58 -141.4,120.6 -258.8,302.98 -258.8,302.98 l 73.5,83.3 c 0,0 164.6,-122.17 267.5,-187.82 41,-25.94 72.2,-43.04 79.5,-39.9 25.5,10.94 468.2,309.39 468.2,309.39 l 41.8,-229.17"
           style="fill:#ffb27d;fill-opacity:1;fill-rule:nonzero;stroke:none"
           id="path406" /></g><g
         id="g408"
         transform="matrix(0.165423,0,0,0.165423,16.677725,-36.303626)"><path
           d="m 16300,5336.19 c 0,0 -54,-66.86 -131.3,-141.22 -114.6,-80.52 -235.8,-157.17 -307.5,-195.07 -30.3,-16.02 -51.7,-25.09 -60,-24.6 -54.4,3.2 -171.1,76.77 -171.1,76.77 -2,15.48 -2.5,30.59 -1.8,45.34 5.3,111.89 79.8,195.8 82.2,198.46 41,-25.94 72.2,-43.04 79.5,-39.9 25.5,10.94 468.2,309.39 468.2,309.39 l 41.8,-229.17"
           style="fill:#94b0ed;fill-opacity:1;fill-rule:nonzero;stroke:none"
           id="path410" /></g><g
         id="g412"
         transform="matrix(0.158236,0,0,0.158236,16.677725,-36.303626)"><path
           d="m 16218.3,4458.02 c 15.8,-96.88 26.6,-167.35 26.6,-167.35 -118.9,-51.82 -254.9,-73.05 -387.5,-77.22 -44.2,-1.45 -88.1,-0.95 -130.9,1.01 -66.7,2.91 -130.6,9.29 -189,17.12 -171.7,23.14 -294.4,59.09 -294.4,59.09 0,179.48 47.8,324.9 102.4,444.91 61.5,135.49 131.4,238.76 150.6,322.62 24.1,105.03 -27.1,349.85 -64.2,502.6 -18.7,77.42 -33.9,131.07 -33.9,131.07 -129.1,189.34 -67.1,300.37 -67.1,300.37 0,0 60.1,25.09 135.4,48.04 l 1.1,0.37 c 25.9,7.84 53.4,15.42 80.9,21.68 28.5,6.45 57,11.5 83.4,13.84 73.6,6.38 77.4,173.41 77.4,173.41 0,0 30,13.34 101.9,11.25 44.8,-1.33 89.2,-11.25 89.2,-11.25 0,0 0,-132.08 61.8,-159.57 31.8,-14.16 92.3,-40 151.5,-65.09 v -0.07 c 2,-0.82 4,-1.64 5.9,-2.46 l 19.6,-8.28 c 8.6,-3.6 17,-7.2 25.3,-10.68 4.2,-1.77 8.2,-3.47 12.2,-5.18 l 19.6,-8.28 c 44.2,-18.64 76.3,-32.1 76.3,-32.1 27.6,-71.35 -68.8,-231.56 -68.8,-231.56 3.3,-10.42 5.5,-22.56 6.7,-36.02 0.2,-1.96 0.3,-3.98 0.5,-6 3.4,-52.08 -6.5,-123.74 -21.5,-201.85 -26.2,-137.83 -67.8,-295.83 -77.7,-402.12 -3.5,-37.29 -3,-68.26 3.4,-89.68 0.2,-1.01 0.5,-1.9 0.8,-2.84 4.1,-12.33 8.6,-29.01 13.5,-49.11 27.1,-111.66 64.2,-328.62 89,-480.67"
           style="fill:#aec3ff;fill-opacity:1;fill-rule:nonzero;stroke:none"
           id="path414" /></g><g
         id="g416"
         transform="matrix(0.158766,0,0,0.158766,16.677725,-36.303626)"><path
           d="m 16286.6,1916.53 -455.5,296.16 c -31.1,20.22 -49.7,54.98 -49.3,92.02 l 27.5,2293.5 c 0,19.9 -45.6,40.37 -65.5,40.37 -19.9,0 -79.2,-8.44 -79.2,-28.34 l 53.1,-2320.52 c 0.6,-25.95 -12.3,-50.33 -34,-64.44 l -474.9,-308.75 c -13.4,-8.63 -7.3,-29.42 8.7,-29.42 l 484.6,212.52 c 29.1,12.72 62.1,12.72 91.2,0 l 484.6,-212.52 c 15.9,0 22.1,20.79 8.7,29.42"
           style="fill:#aec3ff;fill-opacity:1;fill-rule:nonzero;stroke:none"
           id="path418" /></g><g
         id="g420"
         transform="matrix(0.168226,0,0,0.168226,16.677725,-36.303626)"><path
           d="m 16300,5551.51 c 0,0 -121.3,-143.92 -275.7,-83.7 0,0 -33.2,80.37 -33.7,139.57 -0.1,7.32 -0.1,14.39 -0.2,21.11 -0.9,66.69 -3.1,104.08 -3.1,104.08 l 0.1,0.06 c 7.1,2.91 236.1,96.96 235.9,89.17 -3.9,-180.41 76.7,-270.29 76.7,-270.29"
           style="fill:#ffb27d;fill-opacity:1;fill-rule:nonzero;stroke:none"
           id="path422" /></g><g
         id="g424"
         transform="matrix(0.167266,0,0,0.167266,16.677725,-36.303626)"><path
           d="m 16293.4,5811.95 c -22.2,-41.19 -98.4,-121.72 -211.2,-151.13 -0.8,67.07 -3.1,104.68 -3.1,104.68 l 0.2,0.06 c 6.3,1.73 220.7,58.53 214.1,46.39"
           style="fill:#ed975d;fill-opacity:1;fill-rule:nonzero;stroke:none"
           id="path426" /></g><g
         id="g428"
         transform="matrix(0.157517,0,0,0.157517,16.677725,-36.303626)"><path
           d="m 16292.3,4478.37 c -74.8,-8.32 -211.5,-17.52 -359.5,1.78 -46.3,6.03 -93.8,14.85 -140.8,27.36 -145.6,38.79 -286.5,113.06 -376.5,249.68 61.7,136.12 132.1,239.92 151.4,324.1 24,105.51 -27.3,351.45 -64.5,504.89 l 34.5,481.67 v 0.06 l 1.2,0.32 81.1,21.77 c 0,0 -27.5,-308.22 409.1,-326.38 137.4,-5.64 214.6,-24.44 256,-47.35 15.7,-175.35 -133.4,-590.16 -95,-705.71 27,-80.81 73.7,-351.96 103,-532.19"
           style="fill:#ff9843;fill-opacity:1;fill-rule:nonzero;stroke:none"
           id="path430" /></g><g
         id="g432"
         transform="matrix(0.168478,0,0,0.168478,16.677725,-36.303626)"><path
           d="m 15915.5,5730.96 c 0,0 257.2,-60.48 292.4,100.31 35.2,160.74 92.1,261.22 -70.7,306.62 -162.6,45.41 -208.1,-8.93 -232.9,-59.73 -24.8,-50.8 -54.8,-327.32 11.2,-347.2"
           style="fill:#ffb27d;fill-opacity:1;fill-rule:nonzero;stroke:none"
           id="path434" /></g><g
         id="g436"
         transform="matrix(0.169413,0,0,0.169413,16.677725,-36.303626)"><path
           d="m 16109.7,5755.53 c 3.5,-2.25 58.6,-19.19 162.8,188.49 16.3,32.6 27.5,103.11 -10.6,165.42 -38.2,62.31 -173.5,111.3 -285.8,132.62 -112.4,21.32 -139.3,-41.91 -165.8,-105.46 -27.8,-66.7 -108,-121.62 -108,-121.62 96.9,-54.13 213.6,23.29 254,10.56 40.5,-12.73 54.8,-76.45 57.8,-96.88 3,-20.42 7.6,-37.37 58.5,-19.16 50.8,18.24 23,-72.04 14.8,-89.34 0,0 -6.9,-45.98 22.3,-64.63"
           style="fill:#a9453d;fill-opacity:1;fill-rule:nonzero;stroke:none"
           id="path438" /></g><g
         id="g440"
         transform="matrix(0.177788,0,0,0.177788,16.677725,-36.303626)"><path
           d="m 15978.7,1685.21 h 147.6 c 30.9,0 65.3,30.99 73.9,87.68 8.6,56.76 72.2,87.69 86,134.15 13.8,46.41 -56.7,111.77 -56.7,111.77 l -11.8,15.18 -12.3,15.75 -116.9,-27.45 c 0,0 -2.9,-27.84 -4.7,-63.33 -1.2,-25.59 -1.9,-55.18 -0.5,-81.17 3.5,-61.92 -17.3,-128.57 -72.3,-140.61 -55.1,-12.04 -32.3,-51.97 -32.3,-51.97"
           style="fill:#2c3a64;fill-opacity:1;fill-rule:nonzero;stroke:none"
           id="path442" /></g><g
         id="g444"
         transform="matrix(0.16772,0,0,0.16772,16.677725,-36.303626)"><path
           d="m 15848.8,1786.37 h 414.7 c 4,0.78 7,1.67 8.8,2.57 27.7,13.89 19.1,119.84 15.7,152.63 -0.6,6.09 -1.1,9.6 -1.1,9.6 0,0 -145.8,116.63 -165.9,27.31 -0.6,-2.74 -1.4,-5.48 -2.1,-8.17 v -0.06 c -25.3,-83.59 -138.5,-121.51 -203.9,-132.12 -50,-8.11 -62.9,-37.21 -66.2,-51.76"
           style="fill:#2c3a64;fill-opacity:1;fill-rule:nonzero;stroke:none"
           id="path446" /></g><g
         id="g448"
         transform="matrix(0.170304,0,0,0.170304,16.677725,-36.303626)"><path
           d="m 15690.6,4114.52 c 0,0 21.8,-272.1 47.4,-599.22 34.9,-444.33 76.8,-990.17 80.9,-1093.58 7.2,-179.56 36,-466.75 36,-466.75 0,0 68.1,-68.23 204.6,-39.52 0,0 121.6,410.04 156.4,843.85 0.5,7.1 1,14.26 1.5,21.43 32.3,441.62 82.6,1371.54 82.6,1371.54 l -609.4,-37.75"
           style="fill:#ff9843;fill-opacity:1;fill-rule:nonzero;stroke:none"
           id="path450" /></g><g
         id="g452"
         transform="matrix(0.170304,0,0,0.170304,16.677725,-36.303626)"><path
           d="m 15690.6,4114.52 c 0,0 21.8,-272.1 47.4,-599.22 l 477.9,-756 c 0.5,7.1 1,14.26 1.5,21.43 32.3,441.62 82.6,1371.54 82.6,1371.54 l -609.4,-37.75"
           style="fill:#ed7d2b;fill-opacity:1;fill-rule:nonzero;stroke:none"
           id="path454" /></g><g
         id="g456"
         transform="matrix(0.177019,0,0,0.177019,16.677725,-36.303626)"><path
           d="m 15191.2,3927.37 c 0,0 378.3,-948.14 627,-1393.74 248.7,-445.61 326.4,-569.94 326.4,-569.94 0,0 142.5,57 155.4,95.86 0,0 -95.1,860.25 -261.7,1069.94 -94,118.47 -204.6,474.08 -209.8,598.42 -5.2,124.33 -33.6,370.46 -33.6,370.46 l -603.7,-171"
           style="fill:#ff9843;fill-opacity:1;fill-rule:nonzero;stroke:none"
           id="path458" /></g><g
         id="g460"
         transform="matrix(0.17189,0,0,0.17189,16.677725,-36.303626)"><path
           d="m 16253.6,4053.23 c -106.7,-63.01 -207.3,-109.72 -324.2,-134.45 -138.4,-30.08 -307.6,-17.22 -364.3,-24.32 -6.1,-0.75 -11.7,0.88 -16.6,4.19 -4.2,2.62 -26.5,173.49 -47.7,389.67 -1,8.32 -2,17.45 -2.2,25.83 l -0.3,3.03 c -2.4,22.51 -4.6,45.37 -6.7,68.53 -2.9,32.46 -5.6,65.39 -8.2,98.55 -1.9,25.77 -3.9,51.6 -5.7,77.43 -0.4,5.64 -0.8,11.35 -1.2,16.93 -6.6,95.35 -11.5,189.25 -12.9,272.73 -0.2,13.85 -0.4,27.35 -0.4,40.67 v 1.8 c -0.4,55.21 1.1,104.72 4.8,145.62 0.9,10.41 1.9,20.24 3.2,29.49 16.6,125.32 77.2,213.51 134.2,279.72 l 55.4,69.23 c 53.4,-4.66 100.1,-12.57 152.3,20.88 56.5,36.25 81.6,85.17 93.1,78.77 87.5,-51.25 193.7,-191.92 241.2,-362.9 25.5,-92.1 44.6,-195.65 56.4,-304.79 4.6,-41.83 8.1,-84.41 10.5,-127.58 12.4,-231.54 48.7,-429.34 69.7,-544.36 6,-33.04 10.8,-59.4 13.4,-77.61 2.6,-16.52 -29.7,-38.69 -43.8,-47.06"
           style="fill:#aec3ff;fill-opacity:1;fill-rule:nonzero;stroke:none"
           id="path462" /></g><g
         id="g464"
         transform="matrix(0.16716,0,0,0.16716,16.677725,-36.303626)"><path
           d="m 16300,5280.75 c 0,0 -50.6,-430.61 -378.4,-669.6 -2.1,26.5 -4,53.06 -6,79.62 -0.3,5.8 -0.7,11.67 -1.2,17.41 -6.7,98.05 -11.7,194.6 -13.2,280.45 -0.3,14.24 -0.4,28.12 -0.5,41.82 v 1.85 c 0.3,50.67 1.9,96.55 4.9,135.68 100.4,61.5 230.5,104.51 394.4,112.77"
           style="fill:#94b0ed;fill-opacity:1;fill-rule:nonzero;stroke:none"
           id="path466" /></g><g
         id="g468"
         transform="matrix(0.16101,0,0,0.16101,16.677725,-36.303626)"><path
           d="m 15835.9,5921.13 c 0,0 -9.5,-608.78 -367.3,-830.63 -357.8,-221.91 -103.7,-1532.15 -207.8,-2015.35 -104,-483.2 934.1,-89 986.7,456.37 52.5,545.31 -453.4,1385.82 -449,1490.1 4.4,104.28 132.1,770.82 118.6,865.16 l -81.2,34.35"
           style="fill:#ed7d2b;fill-opacity:1;fill-rule:nonzero;stroke:none"
           id="path470" /></g><g
         id="g472"
         transform="matrix(0.162709,0,0,0.162709,16.677725,-36.303626)"><path
           d="m 16300,4902.02 c -46.5,-28.58 -83.5,-49.23 -104.1,-56.73 -56.6,-20.65 -147.8,-31.9 -246.3,-37.55 -216.1,-12.54 -467.3,1.47 -467.3,1.47 -37.9,-27.29 -104.7,-22.55 -161.1,9.22 -56.3,31.77 -44.1,18.01 -84.6,39.7 -20.2,10.82 -18.2,26.12 -11.2,38.78 7.5,13.59 20.8,23.18 35.9,27.05 75.3,19.54 108,13.82 140.5,3.99 -6.9,9.77 -10.4,19.42 -8.8,25.32 2.3,8.18 57.1,-24.46 81.3,-39.27 81.3,-11.56 272.9,45.11 415.8,93.42 86.1,29.01 154.5,55.07 170.6,61.27 13.1,5.1 54.5,46.9 105.9,102.64 31.3,-92.93 75.2,-194.58 133.4,-269.31"
           style="fill:#ffb27d;fill-opacity:1;fill-rule:nonzero;stroke:none"
           id="path474" /></g><g
         id="g476"
         transform="matrix(0.16865,0,0,0.16865,16.677725,-36.303626)"><path
           d="m 16192.9,5044.66 c -162.9,-114.86 -465.7,-329.86 -544.8,-373.68 -50.9,-28.22 -116.8,-83.19 -213.3,-104.83 -138,93.86 -104.5,264.87 -104.5,264.87 83.1,27.99 149.1,53.13 164.6,59.12 41.4,16 378.4,414.7 378.4,414.7 0,0 128.3,164.96 243.8,137.8 100.4,-23.72 143.9,-98.01 161.7,-170.35 21.2,-86.21 -13.4,-176.52 -85.9,-227.63"
           style="fill:#aec3ff;fill-opacity:1;fill-rule:nonzero;stroke:none"
           id="path478" /></g><g
         id="g480"
         transform="matrix(0.136948,0,0,0.136948,16.677725,-36.303626)"><path
           d="m 16173.2,2173.97 h -714 c -70.2,0 -126.1,59 -122.1,129.17 l 11.7,200.3 0.1,1.89 7.8,134.95 21.7,376.27 6.9,118.51 16.6,287.56 6.2,105.07 c 3.7,64.63 57.2,115.16 121.9,115.16 h 559.9 c 19.8,0 38.6,-4.68 55.2,-13.15 37.3,-18.91 63.7,-56.44 66.8,-100.77 l 5.8,-84.33 16.5,-242.8 2.6,-38.26 27.1,-399.71 21.7,-319.69 9.6,-139.68 c 4.8,-70.69 -51.3,-130.49 -122,-130.49"
           style="fill:#94b0ed;fill-opacity:1;fill-rule:nonzero;stroke:none"
           id="path482" /></g><g
         id="g484"
         transform="matrix(0.129105,0,0,0.129105,16.677725,-36.303626)"><path
           d="m 16290.5,2815.46 v 0 l 9.5,165.14 -9.5,-165.14"
           style="fill:#d3deff;fill-opacity:1;fill-rule:nonzero;stroke:none"
           id="path486" /></g><g
         id="g488"
         transform="matrix(0.129029,0,0,0.129029,16.677725,-36.303626)"><path
           d="m 16299.1,2802.31 0.9,14.8 v 0 l -0.9,-14.8 v 0"
           style="fill:#c5d3fe;fill-opacity:1;fill-rule:nonzero;stroke:none"
           id="path490" /></g><g
         id="g492"
         transform="matrix(0.136518,0,0,0.136518,16.677725,-36.303626)"><path
           d="m 15405,2648.58 0.8,13.99 9,156.17 12.1,207.3 c 0,0 29.1,-3.37 81.5,-3.37 136.6,0 431.1,23 776.8,189.21 l 14.8,-217.85 c 0,0 -228.4,-282.67 -895,-345.45"
           style="fill:#a1baf6;fill-opacity:1;fill-rule:nonzero;stroke:none"
           id="path494" /></g><g
         id="g496"
         transform="matrix(0.136827,0,0,0.136827,16.677725,-36.303626)"><path
           d="m 15920.1,2175.89 h -447.2 c -67.8,0 -122.3,54.96 -122.4,121.98 0,2.41 0.1,4.89 0.2,7.3 l 11.6,200.48 0.2,1.9 c 0,0 438.8,29.38 915.8,258.72 l 21.7,-319.97 c 0,0 -121.5,-146.9 -379.9,-270.41"
           style="fill:#a1baf6;fill-opacity:1;fill-rule:nonzero;stroke:none"
           id="path498" /></g><g
         id="g500"
         transform="matrix(0.136256,0,0,0.136256,16.677725,-36.303626)"><path
           d="m 15463.4,3150.97 16.7,289.01 c 19.3,-1.02 40,-1.68 62,-1.68 173.2,0 424.9,38.38 684.9,209.82 37.5,-19.01 64,-56.73 67.2,-101.28 l 5.8,-84.76 c -80.8,-74.42 -326.6,-257.31 -836.6,-311.11"
           style="fill:#a1baf6;fill-opacity:1;fill-rule:nonzero;stroke:none"
           id="path502" /></g></g></g></svg>
