<svg width="188" height="32" viewBox="0 0 188 32" fill="none" xmlns="http://www.w3.org/2000/svg">
<path d="M11.55 31C11.27 31 11.018 30.902 10.794 30.706C10.598 30.482 10.5 30.23 10.5 29.95V20.92L0.756 2.944C0.672 2.692 0.63 2.538 0.63 2.482C0.63 2.258 0.714 2.062 0.882 1.894C1.078 1.698 1.302 1.6 1.554 1.6H6.804C7.364 1.6 7.854 1.894 8.274 2.482L14.28 13.318L20.328 2.482C20.664 1.894 21.154 1.6 21.798 1.6H27.048C27.3 1.6 27.51 1.698 27.678 1.894C27.846 2.062 27.93 2.258 27.93 2.482C27.93 2.622 27.902 2.776 27.846 2.944L18.102 20.92V29.95C18.102 30.258 17.99 30.51 17.766 30.706C17.57 30.902 17.318 31 17.01 31H11.55ZM36.4219 31.42C33.9579 31.42 31.9699 30.594 30.4579 28.942C28.9459 27.262 28.1899 24.924 28.1899 21.928V10.21C28.1899 9.902 28.2879 9.65 28.4839 9.454C28.6799 9.258 28.9319 9.16 29.2399 9.16H34.4899C34.7979 9.16 35.0499 9.258 35.2459 9.454C35.4699 9.65 35.5819 9.902 35.5819 10.21V21.676C35.5819 24.42 36.7999 25.792 39.2359 25.792C40.4119 25.792 41.3359 25.428 42.0079 24.7C42.6799 23.972 43.0159 22.964 43.0159 21.676V10.21C43.0159 9.902 43.1139 9.65 43.3099 9.454C43.5339 9.258 43.7859 9.16 44.0659 9.16H49.3159C49.6239 9.16 49.8759 9.258 50.0719 9.454C50.2679 9.65 50.3659 9.902 50.3659 10.21V29.95C50.3659 30.23 50.2679 30.482 50.0719 30.706C49.8759 30.902 49.6239 31 49.3159 31H44.4439C44.1639 31 43.9119 30.902 43.6879 30.706C43.4919 30.482 43.3939 30.23 43.3939 29.95V28.354C41.9379 30.398 39.6139 31.42 36.4219 31.42ZM56.3561 31C56.0761 31 55.8241 30.902 55.6001 30.706C55.4041 30.482 55.3061 30.23 55.3061 29.95V2.23C55.3061 1.922 55.4041 1.67 55.6001 1.474C55.8241 1.278 56.0761 1.18 56.3561 1.18H61.2281C61.5361 1.18 61.7881 1.278 61.9841 1.474C62.1801 1.67 62.2781 1.922 62.2781 2.23V16.3L68.1161 9.874C68.1721 9.818 68.2701 9.72 68.4101 9.58C68.5781 9.44 68.7461 9.342 68.9141 9.286C69.0821 9.202 69.2781 9.16 69.5021 9.16H75.1301C75.3821 9.16 75.5921 9.258 75.7601 9.454C75.9561 9.622 76.0541 9.832 76.0541 10.084C76.0541 10.392 75.9421 10.63 75.7181 10.798L68.1581 18.946L76.7681 29.404C76.9921 29.628 77.1041 29.838 77.1041 30.034C77.1041 30.314 77.0061 30.552 76.8101 30.748C76.6421 30.916 76.4181 31 76.1381 31H70.3841C70.0201 31 69.7401 30.944 69.5441 30.832C69.3761 30.72 69.1661 30.538 68.9141 30.286L62.2781 22.306V29.95C62.2781 30.23 62.1801 30.482 61.9841 30.706C61.7881 30.902 61.5361 31 61.2281 31H56.3561ZM90.0903 31.42C87.9343 31.42 85.9323 31.056 84.0843 30.328C82.2643 29.572 80.7943 28.466 79.6743 27.01C78.5823 25.554 78.0083 23.804 77.9523 21.76C77.9523 21.508 78.0363 21.298 78.2043 21.13C78.3723 20.934 78.5963 20.836 78.8763 20.836H84.5463C84.9103 20.836 85.1903 20.934 85.3863 21.13C85.6103 21.326 85.8063 21.62 85.9743 22.012C86.4223 24.252 87.8643 25.372 90.3003 25.372C91.7003 25.372 92.7783 24.91 93.5343 23.986C94.2903 23.062 94.6683 21.732 94.6683 19.996V7.858H81.0603C80.7803 7.858 80.5283 7.76 80.3043 7.564C80.1083 7.34 80.0103 7.088 80.0103 6.808V2.65C80.0103 2.342 80.1083 2.09 80.3043 1.894C80.5283 1.698 80.7803 1.6 81.0603 1.6H101.388C101.696 1.6 101.948 1.698 102.144 1.894C102.368 2.09 102.48 2.342 102.48 2.65V20.206C102.48 22.586 101.962 24.616 100.926 26.296C99.8903 27.976 98.4343 29.25 96.5583 30.118C94.6823 30.986 92.5263 31.42 90.0903 31.42ZM114.112 31.42C112.628 31.42 111.27 31.14 110.038 30.58C108.834 29.992 107.882 29.208 107.182 28.228C106.51 27.22 106.174 26.114 106.174 24.91C106.174 22.978 106.958 21.424 108.526 20.248C110.122 19.072 112.306 18.26 115.078 17.812L120.328 17.014V16.426C120.328 15.362 120.104 14.578 119.656 14.074C119.208 13.57 118.452 13.318 117.388 13.318C116.744 13.318 116.212 13.43 115.792 13.654C115.372 13.878 114.938 14.186 114.49 14.578C114.098 14.914 113.804 15.138 113.608 15.25C113.524 15.474 113.37 15.586 113.146 15.586H108.568C108.288 15.586 108.05 15.502 107.854 15.334C107.686 15.138 107.616 14.914 107.644 14.662C107.672 13.906 108.036 13.066 108.736 12.142C109.464 11.218 110.556 10.42 112.012 9.748C113.496 9.076 115.316 8.74 117.472 8.74C120.916 8.74 123.464 9.51 125.116 11.05C126.768 12.562 127.594 14.606 127.594 17.182V29.95C127.594 30.23 127.496 30.482 127.3 30.706C127.104 30.902 126.852 31 126.544 31H121.672C121.392 31 121.14 30.902 120.916 30.706C120.72 30.482 120.622 30.23 120.622 29.95V28.48C120.006 29.348 119.138 30.062 118.018 30.622C116.926 31.154 115.624 31.42 114.112 31.42ZM116.086 26.632C117.374 26.632 118.41 26.212 119.194 25.372C120.006 24.532 120.412 23.3 120.412 21.676V21.088L116.842 21.718C114.322 22.166 113.062 23.048 113.062 24.364C113.062 25.064 113.356 25.624 113.944 26.044C114.532 26.436 115.246 26.632 116.086 26.632ZM133.383 31C133.103 31 132.851 30.902 132.627 30.706C132.431 30.482 132.333 30.23 132.333 29.95V2.23C132.333 1.922 132.431 1.67 132.627 1.474C132.851 1.278 133.103 1.18 133.383 1.18H138.759C139.067 1.18 139.319 1.278 139.515 1.474C139.711 1.67 139.809 1.922 139.809 2.23V11.596C141.489 9.692 143.701 8.74 146.445 8.74C148.069 8.74 149.511 9.104 150.771 9.832C152.059 10.56 153.067 11.638 153.795 13.066C154.523 14.494 154.887 16.216 154.887 18.232V29.95C154.887 30.23 154.789 30.482 154.593 30.706C154.397 30.902 154.145 31 153.837 31H148.419C148.139 31 147.887 30.902 147.663 30.706C147.467 30.482 147.369 30.23 147.369 29.95V18.484C147.369 17.168 147.047 16.16 146.403 15.46C145.787 14.732 144.877 14.368 143.673 14.368C142.469 14.368 141.517 14.732 140.817 15.46C140.145 16.16 139.809 17.168 139.809 18.484V29.95C139.809 30.258 139.711 30.51 139.515 30.706C139.319 30.902 139.067 31 138.759 31H133.383ZM160.658 6.01C160.35 6.01 160.098 5.912 159.902 5.716C159.706 5.52 159.608 5.268 159.608 4.96V1.18C159.608 0.871999 159.706 0.619999 159.902 0.423998C160.098 0.227999 160.35 0.129999 160.658 0.129999H165.698C166.006 0.129999 166.258 0.227999 166.454 0.423998C166.65 0.619999 166.748 0.871999 166.748 1.18V4.96C166.748 5.268 166.65 5.52 166.454 5.716C166.258 5.912 166.006 6.01 165.698 6.01H160.658ZM160.7 31C160.392 31 160.14 30.902 159.944 30.706C159.748 30.51 159.65 30.258 159.65 29.95V10.21C159.65 9.902 159.748 9.65 159.944 9.454C160.14 9.258 160.392 9.16 160.7 9.16H165.656C165.964 9.16 166.216 9.258 166.412 9.454C166.608 9.65 166.706 9.902 166.706 10.21V29.95C166.706 30.23 166.608 30.482 166.412 30.706C166.216 30.902 165.964 31 165.656 31H160.7ZM182.839 31C177.043 31 174.145 28.242 174.145 22.726V14.662H170.869C170.561 14.662 170.295 14.564 170.071 14.368C169.875 14.172 169.777 13.92 169.777 13.612V10.21C169.777 9.902 169.875 9.65 170.071 9.454C170.295 9.258 170.561 9.16 170.869 9.16H174.145V2.23C174.145 1.922 174.243 1.67 174.439 1.474C174.663 1.278 174.915 1.18 175.195 1.18H180.067C180.375 1.18 180.627 1.278 180.823 1.474C181.019 1.67 181.117 1.922 181.117 2.23V9.16H186.367C186.675 9.16 186.927 9.258 187.123 9.454C187.347 9.65 187.459 9.902 187.459 10.21V13.612C187.459 13.92 187.347 14.172 187.123 14.368C186.927 14.564 186.675 14.662 186.367 14.662H181.117V22.138C181.117 24.21 181.915 25.246 183.511 25.246H186.745C187.053 25.246 187.305 25.344 187.501 25.54C187.697 25.736 187.795 25.988 187.795 26.296V29.95C187.795 30.23 187.697 30.482 187.501 30.706C187.305 30.902 187.053 31 186.745 31H182.839Z" fill="black"/>
</svg>
