<svg width="1024" height="301" viewBox="0 0 1024 301" fill="none" xmlns="http://www.w3.org/2000/svg">
<rect width="1024" height="300" fill="#FE9843"/>
<path d="M45.99 87C45.71 87 45.458 86.902 45.234 86.706C45.038 86.482 44.94 86.23 44.94 85.95V58.65C44.94 58.342 45.038 58.09 45.234 57.894C45.458 57.698 45.71 57.6 45.99 57.6H56.91C61.026 57.6 64.218 58.58 66.486 60.54C68.754 62.5 69.944 65.342 70.056 69.066C70.084 69.878 70.098 70.956 70.098 72.3C70.098 73.644 70.084 74.708 70.056 75.492C69.916 79.384 68.754 82.282 66.57 84.186C64.414 86.062 61.264 87 57.12 87H45.99ZM56.91 80.952C58.758 80.952 60.116 80.518 60.984 79.65C61.852 78.754 62.314 77.34 62.37 75.408C62.426 74.596 62.454 73.546 62.454 72.258C62.454 70.97 62.426 69.934 62.37 69.15C62.314 67.274 61.81 65.888 60.858 64.992C59.934 64.096 58.548 63.648 56.7 63.648H52.5V80.952H56.91ZM75.5505 62.01C75.2425 62.01 74.9905 61.912 74.7945 61.716C74.5985 61.52 74.5005 61.268 74.5005 60.96V57.18C74.5005 56.872 74.5985 56.62 74.7945 56.424C74.9905 56.228 75.2425 56.13 75.5505 56.13H80.5905C80.8985 56.13 81.1505 56.228 81.3465 56.424C81.5425 56.62 81.6405 56.872 81.6405 57.18V60.96C81.6405 61.268 81.5425 61.52 81.3465 61.716C81.1505 61.912 80.8985 62.01 80.5905 62.01H75.5505ZM75.5925 87C75.2845 87 75.0325 86.902 74.8365 86.706C74.6405 86.51 74.5425 86.258 74.5425 85.95V66.21C74.5425 65.902 74.6405 65.65 74.8365 65.454C75.0325 65.258 75.2845 65.16 75.5925 65.16H80.5485C80.8565 65.16 81.1085 65.258 81.3045 65.454C81.5005 65.65 81.5985 65.902 81.5985 66.21V85.95C81.5985 86.23 81.5005 86.482 81.3045 86.706C81.1085 86.902 80.8565 87 80.5485 87H75.5925ZM95.548 87.42C93.28 87.42 91.376 87.098 89.836 86.454C88.324 85.81 87.204 85.04 86.476 84.144C85.748 83.248 85.384 82.45 85.384 81.75C85.384 81.47 85.482 81.246 85.678 81.078C85.902 80.882 86.14 80.784 86.392 80.784H91.18C91.348 80.784 91.502 80.854 91.642 80.994C91.978 81.218 92.23 81.4 92.398 81.54C93.014 81.988 93.546 82.324 93.994 82.548C94.47 82.744 95.044 82.842 95.716 82.842C96.528 82.842 97.186 82.688 97.69 82.38C98.222 82.044 98.488 81.582 98.488 80.994C98.488 80.518 98.348 80.14 98.068 79.86C97.816 79.58 97.312 79.314 96.556 79.062C95.8 78.782 94.652 78.488 93.112 78.18C90.788 77.704 88.996 76.934 87.736 75.87C86.504 74.778 85.888 73.322 85.888 71.502C85.888 70.354 86.252 69.262 86.98 68.226C87.708 67.19 88.786 66.35 90.214 65.706C91.67 65.062 93.392 64.74 95.38 64.74C97.368 64.74 99.104 65.048 100.588 65.664C102.072 66.28 103.192 67.036 103.948 67.932C104.732 68.8 105.124 69.598 105.124 70.326C105.124 70.578 105.026 70.802 104.83 70.998C104.662 71.194 104.452 71.292 104.2 71.292H99.832C99.608 71.292 99.398 71.222 99.202 71.082C98.838 70.886 98.516 70.676 98.236 70.452C97.76 70.088 97.312 69.808 96.892 69.612C96.472 69.416 95.954 69.318 95.338 69.318C94.61 69.318 94.022 69.486 93.574 69.822C93.154 70.158 92.944 70.592 92.944 71.124C92.944 71.544 93.056 71.894 93.28 72.174C93.532 72.454 94.036 72.734 94.792 73.014C95.576 73.266 96.724 73.532 98.236 73.812C100.952 74.288 102.926 75.128 104.158 76.332C105.418 77.536 106.048 78.95 106.048 80.574C106.048 82.646 105.124 84.312 103.276 85.572C101.428 86.804 98.852 87.42 95.548 87.42ZM110.825 87C110.545 87 110.293 86.902 110.069 86.706C109.873 86.482 109.775 86.23 109.775 85.95V58.23C109.775 57.922 109.873 57.67 110.069 57.474C110.293 57.278 110.545 57.18 110.825 57.18H115.697C116.005 57.18 116.257 57.278 116.453 57.474C116.649 57.67 116.747 57.922 116.747 58.23V72.3L122.585 65.874C122.641 65.818 122.739 65.72 122.879 65.58C123.047 65.44 123.215 65.342 123.383 65.286C123.551 65.202 123.747 65.16 123.971 65.16H129.599C129.851 65.16 130.061 65.258 130.229 65.454C130.425 65.622 130.523 65.832 130.523 66.084C130.523 66.392 130.411 66.63 130.187 66.798L122.627 74.946L131.237 85.404C131.461 85.628 131.573 85.838 131.573 86.034C131.573 86.314 131.475 86.552 131.279 86.748C131.111 86.916 130.887 87 130.607 87H124.853C124.489 87 124.209 86.944 124.013 86.832C123.845 86.72 123.635 86.538 123.383 86.286L116.747 78.306V85.95C116.747 86.23 116.649 86.482 116.453 86.706C116.257 86.902 116.005 87 115.697 87H110.825ZM143.691 87.42C140.219 87.42 137.545 86.594 135.669 84.942C133.793 83.29 132.771 80.966 132.603 77.97C132.575 77.606 132.561 76.976 132.561 76.08C132.561 75.184 132.575 74.554 132.603 74.19C132.771 71.222 133.821 68.912 135.753 67.26C137.685 65.58 140.331 64.74 143.691 64.74C147.079 64.74 149.739 65.58 151.671 67.26C153.603 68.912 154.653 71.222 154.821 74.19C154.849 74.554 154.863 75.184 154.863 76.08C154.863 76.976 154.849 77.606 154.821 77.97C154.653 80.966 153.631 83.29 151.755 84.942C149.879 86.594 147.191 87.42 143.691 87.42ZM143.691 82.296C144.923 82.296 145.833 81.932 146.421 81.204C147.009 80.448 147.345 79.3 147.429 77.76C147.457 77.48 147.471 76.92 147.471 76.08C147.471 75.24 147.457 74.68 147.429 74.4C147.345 72.888 146.995 71.754 146.379 70.998C145.791 70.242 144.895 69.864 143.691 69.864C141.367 69.864 140.135 71.376 139.995 74.4L139.953 76.08L139.995 77.76C140.051 79.3 140.373 80.448 140.961 81.204C141.577 81.932 142.487 82.296 143.691 82.296ZM160.085 87C159.777 87 159.525 86.902 159.329 86.706C159.133 86.51 159.035 86.258 159.035 85.95V66.21C159.035 65.902 159.133 65.65 159.329 65.454C159.525 65.258 159.777 65.16 160.085 65.16H164.915C165.223 65.16 165.475 65.258 165.671 65.454C165.895 65.65 166.007 65.902 166.007 66.21V67.806C166.763 66.882 167.729 66.14 168.905 65.58C170.109 65.02 171.467 64.74 172.979 64.74C175.443 64.74 177.445 65.58 178.985 67.26C180.525 68.912 181.295 71.236 181.295 74.232V85.95C181.295 86.23 181.197 86.482 181.001 86.706C180.805 86.902 180.553 87 180.245 87H174.953C174.673 87 174.421 86.902 174.197 86.706C174.001 86.482 173.903 86.23 173.903 85.95V74.484C173.903 73.168 173.581 72.16 172.937 71.46C172.293 70.732 171.369 70.368 170.165 70.368C168.989 70.368 168.065 70.732 167.393 71.46C166.721 72.16 166.385 73.168 166.385 74.484V85.95C166.385 86.23 166.287 86.482 166.091 86.706C165.895 86.902 165.643 87 165.335 87H160.085ZM205.926 87.462C203.406 87.462 201.25 87.07 199.458 86.286C197.666 85.474 196.294 84.396 195.342 83.052C194.418 81.708 193.928 80.252 193.872 78.684C193.872 78.432 193.956 78.222 194.124 78.054C194.292 77.886 194.502 77.802 194.754 77.802H200.382C201.026 77.802 201.474 78.068 201.726 78.6C202.482 80.476 203.896 81.414 205.968 81.414C207.2 81.414 208.236 81.036 209.076 80.28C209.944 79.496 210.378 78.418 210.378 77.046C210.378 75.814 209.958 74.806 209.118 74.022C208.306 73.238 207.256 72.846 205.968 72.846C205.24 72.846 204.652 72.944 204.204 73.14C203.784 73.308 203.35 73.56 202.902 73.896C202.426 74.26 202.048 74.442 201.768 74.442H196.266C196.014 74.442 195.79 74.358 195.594 74.19C195.426 73.994 195.342 73.77 195.342 73.518L196.854 58.86C196.882 58.468 197.022 58.16 197.274 57.936C197.554 57.712 197.876 57.6 198.24 57.6H215.082C215.39 57.6 215.642 57.698 215.838 57.894C216.062 58.09 216.174 58.342 216.174 58.65V62.598C216.174 62.906 216.062 63.158 215.838 63.354C215.642 63.55 215.39 63.648 215.082 63.648H202.902L202.356 69.066C203.056 68.59 203.826 68.24 204.666 68.016C205.506 67.764 206.598 67.638 207.942 67.638C209.706 67.638 211.372 68.044 212.94 68.856C214.508 69.64 215.754 70.76 216.678 72.216C217.63 73.672 218.106 75.338 218.106 77.214C218.106 79.202 217.616 80.98 216.636 82.548C215.656 84.088 214.242 85.292 212.394 86.16C210.574 87.028 208.418 87.462 205.926 87.462ZM227.703 72.426C225.799 72.426 224.273 71.936 223.125 70.956C221.977 69.948 221.347 68.604 221.235 66.924C221.179 66.084 221.151 65.496 221.151 65.16C221.151 64.824 221.179 64.096 221.235 62.976C221.319 61.268 221.921 59.91 223.041 58.902C224.161 57.894 225.715 57.39 227.703 57.39C229.663 57.39 231.203 57.894 232.323 58.902C233.443 59.91 234.045 61.268 234.129 62.976C234.185 64.096 234.213 64.824 234.213 65.16C234.213 65.496 234.185 66.084 234.129 66.924C234.017 68.604 233.387 69.948 232.239 70.956C231.091 71.936 229.579 72.426 227.703 72.426ZM224.343 87C224.063 87 223.825 86.93 223.629 86.79C223.461 86.622 223.377 86.412 223.377 86.16C223.377 85.992 223.433 85.838 223.545 85.698L244.293 58.398C244.517 58.118 244.727 57.922 244.923 57.81C245.119 57.67 245.399 57.6 245.763 57.6H248.745C249.025 57.6 249.249 57.684 249.417 57.852C249.613 57.992 249.711 58.188 249.711 58.44C249.711 58.608 249.655 58.762 249.543 58.902L228.795 86.202C228.571 86.482 228.361 86.692 228.165 86.832C227.969 86.944 227.689 87 227.325 87H224.343ZM227.703 68.772C228.879 68.772 229.523 68.086 229.635 66.714C229.691 65.818 229.719 65.23 229.719 64.95C229.719 64.586 229.691 64.012 229.635 63.228C229.607 62.612 229.425 62.108 229.089 61.716C228.781 61.324 228.319 61.128 227.703 61.128C227.059 61.128 226.583 61.324 226.275 61.716C225.967 62.108 225.785 62.612 225.729 63.228C225.701 63.62 225.687 64.194 225.687 64.95C225.687 65.678 225.701 66.266 225.729 66.714C225.841 68.086 226.499 68.772 227.703 68.772ZM245.469 87.21C243.565 87.21 242.039 86.72 240.891 85.74C239.771 84.732 239.141 83.374 239.001 81.666C238.973 81.19 238.959 80.546 238.959 79.734C238.959 78.894 238.973 78.222 239.001 77.718C239.113 75.982 239.715 74.61 240.807 73.602C241.927 72.594 243.481 72.09 245.469 72.09C247.457 72.09 248.997 72.594 250.089 73.602C251.209 74.61 251.825 75.982 251.937 77.718C251.993 78.838 252.021 79.566 252.021 79.902C252.021 80.238 251.993 80.826 251.937 81.666C251.825 83.346 251.195 84.69 250.047 85.698C248.899 86.706 247.373 87.21 245.469 87.21ZM245.469 83.514C246.113 83.514 246.589 83.318 246.897 82.926C247.205 82.506 247.387 82.002 247.443 81.414C247.499 80.574 247.527 79.986 247.527 79.65C247.527 79.286 247.499 78.712 247.443 77.928C247.387 77.34 247.205 76.85 246.897 76.458C246.589 76.038 246.113 75.828 245.469 75.828C244.825 75.828 244.349 76.038 244.041 76.458C243.733 76.85 243.565 77.34 243.537 77.928C243.509 78.32 243.495 78.894 243.495 79.65C243.495 80.406 243.509 80.994 243.537 81.414C243.593 82.03 243.761 82.534 244.041 82.926C244.349 83.318 244.825 83.514 245.469 83.514ZM272.959 87.42C270.495 87.42 268.507 86.594 266.995 84.942C265.483 83.262 264.727 80.924 264.727 77.928V66.21C264.727 65.902 264.825 65.65 265.021 65.454C265.217 65.258 265.469 65.16 265.777 65.16H271.027C271.335 65.16 271.587 65.258 271.783 65.454C272.007 65.65 272.119 65.902 272.119 66.21V77.676C272.119 80.42 273.337 81.792 275.773 81.792C276.949 81.792 277.873 81.428 278.545 80.7C279.217 79.972 279.553 78.964 279.553 77.676V66.21C279.553 65.902 279.651 65.65 279.847 65.454C280.071 65.258 280.323 65.16 280.603 65.16H285.853C286.161 65.16 286.413 65.258 286.609 65.454C286.805 65.65 286.903 65.902 286.903 66.21V85.95C286.903 86.23 286.805 86.482 286.609 86.706C286.413 86.902 286.161 87 285.853 87H280.981C280.701 87 280.449 86.902 280.225 86.706C280.029 86.482 279.931 86.23 279.931 85.95V84.354C278.475 86.398 276.151 87.42 272.959 87.42ZM292.893 87C292.585 87 292.333 86.902 292.137 86.706C291.941 86.51 291.843 86.258 291.843 85.95V66.21C291.843 65.902 291.941 65.65 292.137 65.454C292.333 65.258 292.585 65.16 292.893 65.16H297.723C298.031 65.16 298.283 65.258 298.479 65.454C298.703 65.65 298.815 65.902 298.815 66.21V67.806C299.571 66.882 300.537 66.14 301.713 65.58C302.917 65.02 304.275 64.74 305.787 64.74C308.251 64.74 310.253 65.58 311.793 67.26C313.333 68.912 314.103 71.236 314.103 74.232V85.95C314.103 86.23 314.005 86.482 313.809 86.706C313.613 86.902 313.361 87 313.053 87H307.761C307.481 87 307.229 86.902 307.005 86.706C306.809 86.482 306.711 86.23 306.711 85.95V74.484C306.711 73.168 306.389 72.16 305.745 71.46C305.101 70.732 304.177 70.368 302.973 70.368C301.797 70.368 300.873 70.732 300.201 71.46C299.529 72.16 299.193 73.168 299.193 74.484V85.95C299.193 86.23 299.095 86.482 298.899 86.706C298.703 86.902 298.451 87 298.143 87H292.893ZM329.757 87C323.961 87 321.063 84.242 321.063 78.726V70.662H317.787C317.479 70.662 317.213 70.564 316.989 70.368C316.793 70.172 316.695 69.92 316.695 69.612V66.21C316.695 65.902 316.793 65.65 316.989 65.454C317.213 65.258 317.479 65.16 317.787 65.16H321.063V58.23C321.063 57.922 321.161 57.67 321.357 57.474C321.581 57.278 321.833 57.18 322.113 57.18H326.985C327.293 57.18 327.545 57.278 327.741 57.474C327.937 57.67 328.035 57.922 328.035 58.23V65.16H333.285C333.593 65.16 333.845 65.258 334.041 65.454C334.265 65.65 334.377 65.902 334.377 66.21V69.612C334.377 69.92 334.265 70.172 334.041 70.368C333.845 70.564 333.593 70.662 333.285 70.662H328.035V78.138C328.035 80.21 328.833 81.246 330.429 81.246H333.663C333.971 81.246 334.223 81.344 334.419 81.54C334.615 81.736 334.713 81.988 334.713 82.296V85.95C334.713 86.23 334.615 86.482 334.419 86.706C334.223 86.902 333.971 87 333.663 87H329.757ZM346.213 87.42C343.749 87.42 341.761 86.594 340.249 84.942C338.737 83.262 337.981 80.924 337.981 77.928V66.21C337.981 65.902 338.079 65.65 338.275 65.454C338.471 65.258 338.723 65.16 339.031 65.16H344.281C344.589 65.16 344.841 65.258 345.037 65.454C345.261 65.65 345.373 65.902 345.373 66.21V77.676C345.373 80.42 346.591 81.792 349.027 81.792C350.203 81.792 351.127 81.428 351.799 80.7C352.471 79.972 352.807 78.964 352.807 77.676V66.21C352.807 65.902 352.905 65.65 353.101 65.454C353.325 65.258 353.577 65.16 353.857 65.16H359.107C359.415 65.16 359.667 65.258 359.863 65.454C360.059 65.65 360.157 65.902 360.157 66.21V85.95C360.157 86.23 360.059 86.482 359.863 86.706C359.667 86.902 359.415 87 359.107 87H354.235C353.955 87 353.703 86.902 353.479 86.706C353.283 86.482 353.185 86.23 353.185 85.95V84.354C351.729 86.398 349.405 87.42 346.213 87.42ZM366.147 87C365.867 87 365.615 86.902 365.391 86.706C365.195 86.482 365.097 86.23 365.097 85.95V58.23C365.097 57.922 365.195 57.67 365.391 57.474C365.615 57.278 365.867 57.18 366.147 57.18H371.019C371.327 57.18 371.579 57.278 371.775 57.474C371.971 57.67 372.069 57.922 372.069 58.23V72.3L377.907 65.874C377.963 65.818 378.061 65.72 378.201 65.58C378.369 65.44 378.537 65.342 378.705 65.286C378.873 65.202 379.069 65.16 379.293 65.16H384.921C385.173 65.16 385.383 65.258 385.551 65.454C385.747 65.622 385.845 65.832 385.845 66.084C385.845 66.392 385.733 66.63 385.509 66.798L377.949 74.946L386.559 85.404C386.783 85.628 386.895 85.838 386.895 86.034C386.895 86.314 386.797 86.552 386.601 86.748C386.433 86.916 386.209 87 385.929 87H380.175C379.811 87 379.531 86.944 379.335 86.832C379.167 86.72 378.957 86.538 378.705 86.286L372.069 78.306V85.95C372.069 86.23 371.971 86.482 371.775 86.706C371.579 86.902 371.327 87 371.019 87H366.147ZM45.528 144.98C45.248 144.98 44.996 144.882 44.772 144.686C44.576 144.49 44.478 144.238 44.478 143.93V116.21C44.478 115.902 44.576 115.65 44.772 115.454C44.996 115.258 45.248 115.16 45.528 115.16H50.274C50.582 115.16 50.834 115.258 51.03 115.454C51.226 115.65 51.324 115.902 51.324 116.21V117.722C52.836 115.734 55.006 114.74 57.834 114.74C60.578 114.74 62.72 115.594 64.26 117.302C65.8 119.01 66.64 121.418 66.78 124.526C66.808 124.89 66.822 125.408 66.822 126.08C66.822 126.752 66.808 127.27 66.78 127.634C66.668 130.658 65.828 133.052 64.26 134.816C62.692 136.552 60.55 137.42 57.834 137.42C55.09 137.42 53.046 136.482 51.702 134.606V143.93C51.702 144.238 51.604 144.49 51.408 144.686C51.212 144.882 50.96 144.98 50.652 144.98H45.528ZM55.566 131.792C56.882 131.792 57.82 131.4 58.38 130.616C58.968 129.832 59.304 128.754 59.388 127.382C59.444 126.822 59.472 126.388 59.472 126.08C59.472 125.772 59.444 125.338 59.388 124.778C59.304 123.406 58.968 122.328 58.38 121.544C57.82 120.76 56.882 120.368 55.566 120.368C54.278 120.368 53.326 120.774 52.71 121.586C52.122 122.37 51.786 123.392 51.702 124.652L51.66 126.206L51.702 127.802C51.758 128.95 52.108 129.902 52.752 130.658C53.396 131.414 54.334 131.792 55.566 131.792ZM81.0541 137.42C77.6941 137.42 75.0481 136.51 73.1161 134.69C71.1841 132.87 70.1761 130.224 70.0921 126.752V125.282C70.2041 121.978 71.2261 119.402 73.1581 117.554C75.1181 115.678 77.7361 114.74 81.0121 114.74C83.3921 114.74 85.3941 115.23 87.0181 116.21C88.6701 117.162 89.9021 118.478 90.7141 120.158C91.5541 121.838 91.9741 123.77 91.9741 125.954V126.962C91.9741 127.242 91.8761 127.494 91.6801 127.718C91.4841 127.914 91.2321 128.012 90.9241 128.012H77.4841V128.306C77.5401 129.622 77.8621 130.686 78.4501 131.498C79.0381 132.31 79.8921 132.716 81.0121 132.716C81.7121 132.716 82.2861 132.576 82.7341 132.296C83.1821 131.988 83.5881 131.624 83.9521 131.204C84.2041 130.896 84.4001 130.714 84.5401 130.658C84.7081 130.574 84.9601 130.532 85.2961 130.532H90.5041C90.7561 130.532 90.9661 130.616 91.1341 130.784C91.3301 130.924 91.4281 131.12 91.4281 131.372C91.4281 132.1 91.0081 132.94 90.1681 133.892C89.3561 134.844 88.1661 135.67 86.5981 136.37C85.0301 137.07 83.1821 137.42 81.0541 137.42ZM84.5821 123.854V123.77C84.5821 122.398 84.2601 121.32 83.6161 120.536C83.0001 119.724 82.1321 119.318 81.0121 119.318C79.9201 119.318 79.0521 119.724 78.4081 120.536C77.7921 121.32 77.4841 122.398 77.4841 123.77V123.854H84.5821ZM96.9616 137C96.6536 137 96.4016 136.902 96.2056 136.706C96.0096 136.51 95.9116 136.258 95.9116 135.95V116.21C95.9116 115.902 96.0096 115.65 96.2056 115.454C96.4016 115.258 96.6536 115.16 96.9616 115.16H101.792C102.1 115.16 102.352 115.258 102.548 115.454C102.772 115.65 102.884 115.902 102.884 116.21V117.806C103.64 116.882 104.606 116.14 105.782 115.58C106.986 115.02 108.344 114.74 109.856 114.74C112.32 114.74 114.322 115.58 115.862 117.26C117.402 118.912 118.172 121.236 118.172 124.232V135.95C118.172 136.23 118.074 136.482 117.878 136.706C117.682 136.902 117.43 137 117.122 137H111.83C111.55 137 111.298 136.902 111.074 136.706C110.878 136.482 110.78 136.23 110.78 135.95V124.484C110.78 123.168 110.458 122.16 109.814 121.46C109.17 120.732 108.246 120.368 107.042 120.368C105.866 120.368 104.942 120.732 104.27 121.46C103.598 122.16 103.262 123.168 103.262 124.484V135.95C103.262 136.23 103.164 136.482 102.968 136.706C102.772 136.902 102.52 137 102.212 137H96.9616ZM133.61 146.24C130.95 146.24 128.794 145.806 127.142 144.938C125.49 144.07 124.3 143.076 123.572 141.956C122.872 140.836 122.522 139.898 122.522 139.142C122.522 138.89 122.634 138.666 122.858 138.47C123.082 138.274 123.334 138.176 123.614 138.176H128.948C129.228 138.176 129.438 138.232 129.578 138.344C129.746 138.484 129.9 138.708 130.04 139.016C130.32 139.66 130.698 140.164 131.174 140.528C131.65 140.92 132.392 141.116 133.4 141.116C134.688 141.116 135.64 140.794 136.256 140.15C136.872 139.534 137.18 138.484 137.18 137V134.186C135.752 135.754 133.708 136.538 131.048 136.538C128.22 136.538 126.05 135.712 124.538 134.06C123.054 132.38 122.242 129.958 122.102 126.794L122.06 125.66C122.06 122.272 122.816 119.612 124.328 117.68C125.84 115.72 128.08 114.74 131.048 114.74C132.476 114.74 133.736 115.02 134.828 115.58C135.92 116.112 136.844 116.84 137.6 117.764V116.21C137.6 115.902 137.698 115.65 137.894 115.454C138.118 115.258 138.37 115.16 138.65 115.16H143.48C143.788 115.16 144.04 115.272 144.236 115.496C144.46 115.692 144.572 115.93 144.572 116.21V136.412C144.572 139.604 143.62 142.04 141.716 143.72C139.812 145.4 137.11 146.24 133.61 146.24ZM133.316 131.078C134.576 131.078 135.514 130.7 136.13 129.944C136.746 129.16 137.096 128.18 137.18 127.004C137.208 126.808 137.222 126.374 137.222 125.702C137.222 125.058 137.208 124.638 137.18 124.442C137.124 123.266 136.774 122.3 136.13 121.544C135.514 120.76 134.576 120.368 133.316 120.368C132 120.368 131.048 120.76 130.46 121.544C129.872 122.328 129.55 123.406 129.494 124.778L129.452 125.702C129.452 127.354 129.732 128.67 130.292 129.65C130.852 130.602 131.86 131.078 133.316 131.078ZM160.229 146.24C157.569 146.24 155.413 145.806 153.761 144.938C152.109 144.07 150.919 143.076 150.191 141.956C149.491 140.836 149.141 139.898 149.141 139.142C149.141 138.89 149.253 138.666 149.477 138.47C149.701 138.274 149.953 138.176 150.233 138.176H155.567C155.847 138.176 156.057 138.232 156.197 138.344C156.365 138.484 156.519 138.708 156.659 139.016C156.939 139.66 157.317 140.164 157.793 140.528C158.269 140.92 159.011 141.116 160.019 141.116C161.307 141.116 162.259 140.794 162.875 140.15C163.491 139.534 163.799 138.484 163.799 137V134.186C162.371 135.754 160.327 136.538 157.667 136.538C154.839 136.538 152.669 135.712 151.157 134.06C149.673 132.38 148.861 129.958 148.721 126.794L148.679 125.66C148.679 122.272 149.435 119.612 150.947 117.68C152.459 115.72 154.699 114.74 157.667 114.74C159.095 114.74 160.355 115.02 161.447 115.58C162.539 116.112 163.463 116.84 164.219 117.764V116.21C164.219 115.902 164.317 115.65 164.513 115.454C164.737 115.258 164.989 115.16 165.269 115.16H170.099C170.407 115.16 170.659 115.272 170.855 115.496C171.079 115.692 171.191 115.93 171.191 116.21V136.412C171.191 139.604 170.239 142.04 168.335 143.72C166.431 145.4 163.729 146.24 160.229 146.24ZM159.935 131.078C161.195 131.078 162.133 130.7 162.749 129.944C163.365 129.16 163.715 128.18 163.799 127.004C163.827 126.808 163.841 126.374 163.841 125.702C163.841 125.058 163.827 124.638 163.799 124.442C163.743 123.266 163.393 122.3 162.749 121.544C162.133 120.76 161.195 120.368 159.935 120.368C158.619 120.368 157.667 120.76 157.079 121.544C156.491 122.328 156.169 123.406 156.113 124.778L156.071 125.702C156.071 127.354 156.351 128.67 156.911 129.65C157.471 130.602 158.479 131.078 159.935 131.078ZM184.16 137.42C181.696 137.42 179.708 136.594 178.196 134.942C176.684 133.262 175.928 130.924 175.928 127.928V116.21C175.928 115.902 176.026 115.65 176.222 115.454C176.418 115.258 176.67 115.16 176.978 115.16H182.228C182.536 115.16 182.788 115.258 182.984 115.454C183.208 115.65 183.32 115.902 183.32 116.21V127.676C183.32 130.42 184.538 131.792 186.974 131.792C188.15 131.792 189.074 131.428 189.746 130.7C190.418 129.972 190.754 128.964 190.754 127.676V116.21C190.754 115.902 190.852 115.65 191.048 115.454C191.272 115.258 191.524 115.16 191.804 115.16H197.054C197.362 115.16 197.614 115.258 197.81 115.454C198.006 115.65 198.104 115.902 198.104 116.21V135.95C198.104 136.23 198.006 136.482 197.81 136.706C197.614 136.902 197.362 137 197.054 137H192.182C191.902 137 191.65 136.902 191.426 136.706C191.23 136.482 191.132 136.23 191.132 135.95V134.354C189.676 136.398 187.352 137.42 184.16 137.42ZM204.094 137C203.786 137 203.534 136.902 203.338 136.706C203.142 136.51 203.044 136.258 203.044 135.95V116.21C203.044 115.902 203.142 115.65 203.338 115.454C203.534 115.258 203.786 115.16 204.094 115.16H208.924C209.232 115.16 209.484 115.258 209.68 115.454C209.904 115.65 210.016 115.902 210.016 116.21V117.806C210.772 116.882 211.738 116.14 212.914 115.58C214.118 115.02 215.476 114.74 216.988 114.74C219.452 114.74 221.454 115.58 222.994 117.26C224.534 118.912 225.304 121.236 225.304 124.232V135.95C225.304 136.23 225.206 136.482 225.01 136.706C224.814 136.902 224.562 137 224.254 137H218.962C218.682 137 218.43 136.902 218.206 136.706C218.01 136.482 217.912 136.23 217.912 135.95V124.484C217.912 123.168 217.59 122.16 216.946 121.46C216.302 120.732 215.378 120.368 214.174 120.368C212.998 120.368 212.074 120.732 211.402 121.46C210.73 122.16 210.394 123.168 210.394 124.484V135.95C210.394 136.23 210.296 136.482 210.1 136.706C209.904 136.902 209.652 137 209.344 137H204.094ZM236.585 137.42C235.101 137.42 233.743 137.14 232.511 136.58C231.307 135.992 230.355 135.208 229.655 134.228C228.983 133.22 228.647 132.114 228.647 130.91C228.647 128.978 229.431 127.424 230.999 126.248C232.595 125.072 234.779 124.26 237.551 123.812L242.801 123.014V122.426C242.801 121.362 242.577 120.578 242.129 120.074C241.681 119.57 240.925 119.318 239.861 119.318C239.217 119.318 238.685 119.43 238.265 119.654C237.845 119.878 237.411 120.186 236.963 120.578C236.571 120.914 236.277 121.138 236.081 121.25C235.997 121.474 235.843 121.586 235.619 121.586H231.041C230.761 121.586 230.523 121.502 230.327 121.334C230.159 121.138 230.089 120.914 230.117 120.662C230.145 119.906 230.509 119.066 231.209 118.142C231.937 117.218 233.029 116.42 234.485 115.748C235.969 115.076 237.789 114.74 239.945 114.74C243.389 114.74 245.937 115.51 247.589 117.05C249.241 118.562 250.067 120.606 250.067 123.182V135.95C250.067 136.23 249.969 136.482 249.773 136.706C249.577 136.902 249.325 137 249.017 137H244.145C243.865 137 243.613 136.902 243.389 136.706C243.193 136.482 243.095 136.23 243.095 135.95V134.48C242.479 135.348 241.611 136.062 240.491 136.622C239.399 137.154 238.097 137.42 236.585 137.42ZM238.559 132.632C239.847 132.632 240.883 132.212 241.667 131.372C242.479 130.532 242.885 129.3 242.885 127.676V127.088L239.315 127.718C236.795 128.166 235.535 129.048 235.535 130.364C235.535 131.064 235.829 131.624 236.417 132.044C237.005 132.436 237.719 132.632 238.559 132.632ZM277.104 137.42C274.304 137.42 272.134 136.482 270.594 134.606V135.95C270.594 136.23 270.496 136.482 270.3 136.706C270.104 136.902 269.852 137 269.544 137H264.798C264.518 137 264.266 136.902 264.042 136.706C263.846 136.482 263.748 136.23 263.748 135.95V108.23C263.748 107.922 263.846 107.67 264.042 107.474C264.266 107.278 264.518 107.18 264.798 107.18H269.922C270.23 107.18 270.482 107.278 270.678 107.474C270.874 107.67 270.972 107.922 270.972 108.23V117.218C272.54 115.566 274.584 114.74 277.104 114.74C279.82 114.74 281.962 115.622 283.53 117.386C285.098 119.15 285.938 121.544 286.05 124.568C286.078 124.932 286.092 125.436 286.092 126.08C286.092 126.696 286.078 127.186 286.05 127.55C285.91 130.686 285.07 133.122 283.53 134.858C281.99 136.566 279.848 137.42 277.104 137.42ZM274.836 131.792C276.152 131.792 277.09 131.4 277.65 130.616C278.238 129.832 278.574 128.754 278.658 127.382C278.714 126.822 278.742 126.388 278.742 126.08C278.742 125.772 278.714 125.338 278.658 124.778C278.574 123.406 278.238 122.328 277.65 121.544C277.09 120.76 276.152 120.368 274.836 120.368C273.604 120.368 272.666 120.746 272.022 121.502C271.378 122.258 271.028 123.21 270.972 124.358L270.93 125.912L270.972 127.508C271.056 128.768 271.392 129.804 271.98 130.616C272.596 131.4 273.548 131.792 274.836 131.792ZM296.796 137.42C295.312 137.42 293.954 137.14 292.722 136.58C291.518 135.992 290.566 135.208 289.866 134.228C289.194 133.22 288.858 132.114 288.858 130.91C288.858 128.978 289.642 127.424 291.21 126.248C292.806 125.072 294.99 124.26 297.762 123.812L303.012 123.014V122.426C303.012 121.362 302.788 120.578 302.34 120.074C301.892 119.57 301.136 119.318 300.072 119.318C299.428 119.318 298.896 119.43 298.476 119.654C298.056 119.878 297.622 120.186 297.174 120.578C296.782 120.914 296.488 121.138 296.292 121.25C296.208 121.474 296.054 121.586 295.83 121.586H291.252C290.972 121.586 290.734 121.502 290.538 121.334C290.37 121.138 290.3 120.914 290.328 120.662C290.356 119.906 290.72 119.066 291.42 118.142C292.148 117.218 293.24 116.42 294.696 115.748C296.18 115.076 298 114.74 300.156 114.74C303.6 114.74 306.148 115.51 307.8 117.05C309.452 118.562 310.278 120.606 310.278 123.182V135.95C310.278 136.23 310.18 136.482 309.984 136.706C309.788 136.902 309.536 137 309.228 137H304.356C304.076 137 303.824 136.902 303.6 136.706C303.404 136.482 303.306 136.23 303.306 135.95V134.48C302.69 135.348 301.822 136.062 300.702 136.622C299.61 137.154 298.308 137.42 296.796 137.42ZM298.77 132.632C300.058 132.632 301.094 132.212 301.878 131.372C302.69 130.532 303.096 129.3 303.096 127.676V127.088L299.526 127.718C297.006 128.166 295.746 129.048 295.746 130.364C295.746 131.064 296.04 131.624 296.628 132.044C297.216 132.436 297.93 132.632 298.77 132.632ZM316.067 137C315.759 137 315.507 136.902 315.311 136.706C315.115 136.51 315.017 136.258 315.017 135.95V116.21C315.017 115.902 315.115 115.65 315.311 115.454C315.507 115.258 315.759 115.16 316.067 115.16H320.897C321.205 115.16 321.457 115.272 321.653 115.496C321.877 115.692 321.989 115.93 321.989 116.21V117.89C323.529 116.07 325.601 115.16 328.205 115.16H330.053C330.361 115.16 330.613 115.258 330.809 115.454C331.005 115.65 331.103 115.902 331.103 116.21V120.536C331.103 120.816 331.005 121.068 330.809 121.292C330.613 121.488 330.361 121.586 330.053 121.586H325.979C324.831 121.586 323.935 121.908 323.291 122.552C322.675 123.168 322.367 124.05 322.367 125.198V135.95C322.367 136.258 322.255 136.51 322.031 136.706C321.835 136.902 321.583 137 321.275 137H316.067ZM342.111 137.42C339.647 137.42 337.659 136.594 336.147 134.942C334.635 133.262 333.879 130.924 333.879 127.928V116.21C333.879 115.902 333.977 115.65 334.173 115.454C334.369 115.258 334.621 115.16 334.929 115.16H340.179C340.487 115.16 340.739 115.258 340.935 115.454C341.159 115.65 341.271 115.902 341.271 116.21V127.676C341.271 130.42 342.489 131.792 344.925 131.792C346.101 131.792 347.025 131.428 347.697 130.7C348.369 129.972 348.705 128.964 348.705 127.676V116.21C348.705 115.902 348.803 115.65 348.999 115.454C349.223 115.258 349.475 115.16 349.755 115.16H355.005C355.313 115.16 355.565 115.258 355.761 115.454C355.957 115.65 356.055 115.902 356.055 116.21V135.95C356.055 136.23 355.957 136.482 355.761 136.706C355.565 136.902 355.313 137 355.005 137H350.133C349.853 137 349.601 136.902 349.377 136.706C349.181 136.482 349.083 136.23 349.083 135.95V134.354C347.627 136.398 345.303 137.42 342.111 137.42Z" fill="white"/>
<path d="M981.83 264.238H576V264.44H981.83V264.238Z" fill="#EBEBEB"/>
<path d="M941.165 277.224H914.283V277.426H941.165V277.224Z" fill="#EBEBEB"/>
<path d="M844.838 279.419H837.785V279.621H844.838V279.419Z" fill="#EBEBEB"/>
<path d="M913.472 269.734H897.896V269.936H913.472V269.734Z" fill="#EBEBEB"/>
<path d="M653.635 271.09H618.58V271.292H653.635V271.09Z" fill="#EBEBEB"/>
<path d="M666.005 271.09H660.867V271.292H666.005V271.09Z" fill="#EBEBEB"/>
<path d="M758.745 274.496H682.709V274.698H758.745V274.496Z" fill="#EBEBEB"/>
<path d="M830.196 61.5157H825.537V158.075H830.196V61.5157Z" fill="#F5F5F5"/>
<path d="M849.748 36.8432H805.976V96.1636H849.748V36.8432Z" fill="#F5F5F5"/>
<path d="M732.106 162.223L744.744 105.058L789.832 112.951L779.175 171.133L732.106 162.223Z" fill="#EBEBEB"/>
<path d="M690.217 129.335L726.279 121.474L745.466 175.419L701.475 187.84L690.217 129.335Z" fill="#F0F0F0"/>
<path d="M758.688 172.344L763.761 128.85L813.654 131.748L811.868 177.259L758.688 172.344Z" fill="#F5F5F5"/>
<path d="M651.728 261.236H644.179V135.735H637.686V261.236H630.138C629.423 261.236 628.737 261.518 628.232 262.021C627.727 262.523 627.443 263.205 627.443 263.915H654.422C654.422 263.563 654.353 263.215 654.217 262.89C654.082 262.565 653.883 262.269 653.633 262.021C653.383 261.772 653.086 261.574 652.759 261.44C652.432 261.305 652.082 261.236 651.728 261.236V261.236Z" fill="#F0F0F0"/>
<path d="M652.815 141.481C651.265 137.911 650.537 134.04 650.686 130.154C650.835 126.267 651.856 122.463 653.676 119.02C656.728 113.249 659.568 107.253 658.943 105.986C657.653 103.411 656.371 102.176 649.942 101.426C645.738 100.933 644.934 98.4961 644.877 96.8658C644.869 96.4654 644.947 96.0679 645.107 95.7003C645.267 95.3327 645.504 95.0035 645.803 94.7351C651.695 89.3922 652.02 77.1649 642.061 75.5911V75.4216C641.728 75.4216 641.412 75.4216 641.103 75.4216H640.779C640.47 75.4216 640.154 75.4216 639.821 75.4216V75.5911C629.862 77.2053 630.186 89.3922 636.079 94.7351C636.373 95.0031 636.606 95.3304 636.763 95.695C636.919 96.0596 636.996 96.4532 636.988 96.8496C636.931 98.4638 636.128 100.885 631.923 101.41C625.495 102.16 624.213 103.395 622.922 105.97C622.297 107.237 625.138 113.233 628.19 119.004C630.009 122.447 631.031 126.251 631.18 130.138C631.328 134.024 630.601 137.894 629.05 141.465C625.541 149.339 623.464 157.769 622.914 166.363C622.896 166.755 622.959 167.145 623.097 167.512C623.236 167.878 623.448 168.213 623.72 168.496C623.992 168.779 624.32 169.004 624.682 169.158C625.044 169.311 625.434 169.39 625.828 169.39H656.038C656.432 169.39 656.821 169.311 657.184 169.158C657.546 169.004 657.873 168.779 658.145 168.496C658.418 168.213 658.63 167.878 658.768 167.512C658.907 167.145 658.969 166.755 658.952 166.363C658.4 157.774 656.322 149.35 652.815 141.481V141.481Z" fill="#E0E0E0"/>
<path d="M927.692 261.236H920.143V135.735H913.65V261.236H906.102C905.388 261.236 904.704 261.517 904.199 262.018C903.694 262.518 903.409 263.198 903.407 263.907H930.387C930.384 263.198 930.1 262.518 929.594 262.018C929.089 261.517 928.405 261.236 927.692 261.236V261.236Z" fill="#F0F0F0"/>
<path d="M928.78 141.481C927.229 137.911 926.501 134.04 926.65 130.154C926.799 126.267 927.821 122.463 929.64 119.02C932.692 113.249 935.533 107.253 934.908 105.986C933.617 103.411 932.335 102.176 925.906 101.426C921.702 100.933 920.898 98.4961 920.842 96.8658C920.833 96.4654 920.912 96.0679 921.071 95.7003C921.231 95.3327 921.468 95.0035 921.767 94.7351C927.66 89.3922 927.984 77.1649 918.025 75.5911V75.4216C917.692 75.4216 917.376 75.4216 917.067 75.4216H916.743C916.434 75.4216 916.118 75.4216 915.785 75.4216V75.5911C905.826 77.2053 906.151 89.3922 912.043 94.7351C912.342 95.0035 912.579 95.3327 912.739 95.7003C912.899 96.0679 912.977 96.4654 912.969 96.8658C912.912 98.4799 912.108 100.901 907.904 101.426C901.475 102.176 900.193 103.411 898.903 105.986C898.278 107.253 901.118 113.249 904.17 119.02C905.99 122.463 907.011 126.267 907.16 130.154C907.309 134.04 906.581 137.911 905.031 141.481C901.522 149.355 899.444 157.785 898.894 166.38C898.877 166.771 898.939 167.161 899.078 167.528C899.216 167.895 899.428 168.229 899.701 168.512C899.973 168.795 900.3 169.02 900.662 169.174C901.025 169.328 901.414 169.407 901.808 169.406H932.018C932.412 169.407 932.802 169.328 933.164 169.174C933.526 169.02 933.854 168.795 934.126 168.512C934.398 168.229 934.61 167.895 934.749 167.528C934.887 167.161 934.95 166.771 934.932 166.38C934.377 157.784 932.294 149.354 928.78 141.481V141.481Z" fill="#E0E0E0"/>
<path d="M861.85 154.144H675.031V215.49H861.85V154.144Z" fill="#E0E0E0"/>
<path d="M841.981 261.236C841.268 261.236 840.583 261.517 840.078 262.018C839.573 262.518 839.288 263.198 839.286 263.907H866.266C866.264 263.198 865.979 262.518 865.474 262.018C864.968 261.517 864.284 261.236 863.571 261.236H856.023V135.735H679.081V261.236H671.532C670.819 261.236 670.135 261.517 669.63 262.018C669.125 262.518 668.84 263.198 668.838 263.907H695.817C695.815 263.198 695.53 262.518 695.025 262.018C694.52 261.517 693.836 261.236 693.123 261.236H685.574V141.877H849.529V261.236H841.981Z" fill="#E0E0E0"/>
<path d="M778.915 300.686C865.829 300.686 936.288 296.595 936.288 291.55C936.288 286.504 865.829 282.414 778.915 282.414C692 282.414 621.542 286.504 621.542 291.55C621.542 296.595 692 300.686 778.915 300.686Z" fill="#F5F5F5"/>
<path d="M880.21 292.809L894.171 186.072H896.67H899.268H899.414H901.102H902.271L926.41 292.809H923.772L902.011 198.033L909.211 292.809H906.199L897.701 197.638L883.603 292.809H880.21Z" fill="#263238"/>
<path opacity="0.6" d="M880.21 292.809L894.171 186.072H896.67H899.268H899.414H901.102H902.271L926.41 292.809H923.772L902.011 198.033L909.211 292.809H906.199L897.701 197.638L883.603 292.809H880.21Z" fill="white"/>
<path d="M854.342 274.327H913.894L927.724 150.956H868.165L854.342 274.327Z" fill="white"/>
<path opacity="0.6" d="M854.342 274.327H913.894L927.724 150.956H868.165L854.342 274.327Z" fill="white"/>
<path opacity="0.6" d="M875.121 183.353V170.802L880.21 176.339L893.635 159.092L901.427 176.339L914.081 167.009L906.37 185.427L914.081 192.343L901.427 196.193L905.047 211.261L891.679 205.111L883.254 219.235L878.116 206.943L869.553 210.842L872.548 198.937L866.558 195.58L872.118 192.343L868.693 185.427L875.121 183.353Z" fill="white"/>
<path d="M879.479 183.966C880.064 181.407 881.955 180.124 883.903 180.568C885.851 181.012 886.906 182.884 886.338 185.33C885.754 187.896 883.984 189.228 881.906 188.752C879.828 188.276 878.919 186.436 879.479 183.966ZM881.265 184.369C880.876 186.088 881.419 186.912 882.312 187.113C883.205 187.315 884.155 186.783 884.577 184.934C884.966 183.239 884.341 182.352 883.513 182.166C882.686 181.98 881.687 182.545 881.265 184.369V184.369ZM881.647 196.815L879.317 196.29L892.393 182.57L894.714 183.094L881.647 196.815ZM888.245 194.006C888.83 191.447 890.721 190.164 892.669 190.608C894.617 191.052 895.672 192.924 895.104 195.37C894.536 197.815 892.75 199.26 890.672 198.792C888.594 198.324 887.677 196.451 888.245 194.006ZM890.039 194.409C889.641 196.12 890.185 196.952 891.078 197.154C891.971 197.355 892.921 196.815 893.343 194.974C893.732 193.28 893.107 192.392 892.279 192.206C891.451 192.021 890.453 192.585 890.039 194.409V194.409Z" fill="white"/>
<g opacity="0.2">
<path opacity="0.2" d="M879.479 183.966C880.064 181.407 881.955 180.124 883.903 180.568C885.851 181.012 886.906 182.884 886.338 185.33C885.754 187.896 883.984 189.228 881.906 188.752C879.828 188.276 878.919 186.436 879.479 183.966ZM881.265 184.369C880.876 186.088 881.419 186.912 882.312 187.113C883.205 187.315 884.155 186.783 884.577 184.934C884.966 183.239 884.341 182.352 883.513 182.166C882.686 181.98 881.687 182.545 881.265 184.369V184.369ZM881.647 196.815L879.317 196.29L892.393 182.57L894.714 183.094L881.647 196.815ZM888.245 194.006C888.83 191.447 890.721 190.164 892.669 190.608C894.617 191.052 895.672 192.924 895.104 195.37C894.536 197.815 892.75 199.26 890.672 198.792C888.594 198.324 887.677 196.451 888.245 194.006ZM890.039 194.409C889.641 196.12 890.185 196.952 891.078 197.154C891.971 197.355 892.921 196.815 893.343 194.974C893.732 193.28 893.107 192.392 892.279 192.206C891.451 192.021 890.453 192.585 890.039 194.409V194.409Z" fill="white"/>
</g>
<path d="M874.26 229.606L900.583 229.937V234.166H874.26V229.606Z" fill="white"/>
<path d="M866.558 239.436H909.219V244.908L864.626 244.739L866.558 239.436Z" fill="white"/>
<path opacity="0.3" d="M864.626 254.384L863.344 265.489H874.26V254.384H864.626Z" fill="black"/>
<path opacity="0.3" d="M881.135 254.384L880.21 265.489H891.679L891.687 256.046L881.135 254.384Z" fill="black"/>
<path opacity="0.3" d="M900.582 256.046L898.667 265.489H907.133V256.046H900.582Z" fill="black"/>
<path d="M718.771 115.065C726.279 113.726 724.915 140.327 727.853 146.606C730.792 152.885 749.176 169.051 749.176 169.051C749.176 169.051 757.154 169.713 758.421 170.367C759.687 171.02 759.833 175.677 758.794 175.677C757.755 175.677 749.054 175.75 747.763 175.056C746.473 174.362 745.799 171.634 745.799 171.634C745.799 171.634 726.482 160.383 722.496 150.859C719.169 142.918 716.052 129.189 715.192 124.323C714.331 119.456 716.872 115.413 718.771 115.065Z" fill="#EBB376"/>
<path d="M639.699 210.801C639.699 210.801 644.415 206.112 652.117 212.286C659.82 218.46 663.895 226.975 677.06 222.504C690.225 218.033 710.338 230.575 714.396 221.544C714.396 221.544 707.578 203.739 694.332 198.243C681.085 192.747 646.549 205.692 639.699 210.801Z" fill="white"/>
<path d="M683.464 184.192C683.342 187.122 683.042 193.538 682.465 200.14C681.711 208.961 680.477 218.121 678.602 219.792C678.415 219.962 678.196 220.155 677.953 220.349C677.035 221.1 675.729 222.092 674.113 223.271C670.055 226.233 664.008 230.365 657.474 234.772L654.731 236.636C649.861 239.913 644.788 243.262 640.121 246.321C638.295 247.531 636.525 248.742 634.845 249.799C626.899 255.021 621.047 258.774 621.047 258.774L623.653 262.479C626.354 261.009 629.143 259.705 632.005 258.572V258.572C633.539 257.959 635.178 257.257 636.874 256.474C640.316 254.932 644.114 253.1 648.132 251.107C649.317 250.518 650.567 249.92 651.744 249.299C660.542 244.868 669.982 239.792 677.717 234.844C681.797 232.329 685.646 229.461 689.218 226.273C691.613 224.029 693.277 221.931 693.804 220.067C695.517 214.417 697.124 205.539 698.309 196.742C698.91 192.368 699.421 188.05 699.851 184.2L683.464 184.192Z" fill="#EBB376"/>
<path d="M622.395 256.652C622.979 256.539 624.123 263.689 624.123 263.689C624.123 263.689 620.674 269.016 620.633 273.455C620.593 277.894 617.517 276.102 616.453 271.397C615.39 266.692 614.562 263.1 613.807 259.759C613.052 256.417 616.388 257.814 622.395 256.652Z" fill="white"/>
<path opacity="0.2" d="M701.215 170.294C701.215 170.294 700.119 183.296 698.285 196.718C697.1 205.499 695.493 214.417 693.78 220.042C693.22 221.907 691.589 224.005 689.194 226.249C685.623 229.451 681.774 232.333 677.693 234.86C676.321 230.906 675.096 226.79 674.114 223.295C675.737 222.117 677.036 221.124 677.953 220.373C678.196 220.18 678.415 219.986 678.602 219.816C680.477 218.146 681.711 208.985 682.466 200.164C683.277 191.189 683.529 182.553 683.529 182.553L701.215 170.294Z" fill="black"/>
<path d="M704.112 158.188L679.276 154.152C680.039 154.273 684.86 143.66 685.964 139.867C687.482 134.645 688.667 124.654 687.628 118.189V118.14C687.531 117.489 687.569 116.825 687.739 116.189C687.91 115.552 688.209 114.957 688.618 114.44C689.028 113.922 689.539 113.493 690.121 113.179C690.703 112.865 691.343 112.672 692.002 112.612C693.983 112.459 695.963 112.386 697.96 112.378C701.903 112.331 705.844 112.563 709.753 113.072C714.786 113.879 720.467 115.372 720.467 115.372C720.467 115.372 721.279 115.703 720.889 121.078C720.524 126.122 718.617 142.587 704.112 158.188Z" fill="#263238"/>
<path d="M713.398 108.092C713.398 108.092 710.2 110.15 709.648 111.506C709.613 111.592 709.585 111.681 709.567 111.773C709.409 112.545 709.301 113.327 709.242 114.113C710.175 116.833 706.677 118.391 706.677 118.391C700.444 116.526 698.983 113.508 698.983 113.508C704.112 111.506 705.094 101.732 705.094 101.732L707.578 103.637L713.398 108.092Z" fill="#EBB376"/>
<path d="M718.235 254.472L711.701 239.993L702.822 220.333L701.247 216.911L694.372 201.988L686.199 184.232H667.531C669.966 192.464 674.836 201.544 679.933 209.558C684.908 217.427 690.062 224.271 693.228 228.307C695.127 230.728 696.304 232.132 696.304 232.132C700.146 240.771 704.482 249.184 709.291 257.329C711.166 260.558 713.016 263.617 714.786 266.449C721.279 276.941 726.506 284.254 726.506 284.254L730.564 281.832L718.235 254.472Z" fill="#EBB376"/>
<path d="M723.82 282.163C723.592 281.623 730.426 279.129 730.426 279.129C730.426 279.129 736.352 281.469 740.735 280.654C745.117 279.839 743.981 283.18 739.509 285.133L728.527 289.976C725.345 291.356 726.157 287.797 723.82 282.163Z" fill="white"/>
<path d="M679.275 154.152C679.275 154.152 665.778 160.867 664.958 178.881C664.471 188.857 639.699 210.801 639.699 210.801C639.699 210.801 640.722 214.417 647.702 214.627C654.682 214.837 667.742 207.178 676.922 209.308C686.102 211.439 685.274 214.845 692.554 213.344C699.835 211.842 707.318 213.731 714.388 221.535C714.388 221.535 717.578 195.709 703.966 176.517C703.966 176.517 702.895 171.424 704.088 158.204L679.275 154.152Z" fill="white"/>
<path opacity="0.6" d="M679.275 154.152C679.275 154.152 665.778 160.867 664.958 178.881C664.471 188.857 639.699 210.801 639.699 210.801C639.699 210.801 640.722 214.417 647.702 214.627C654.682 214.837 667.742 207.178 676.922 209.308C686.102 211.439 685.274 214.845 692.554 213.344C699.835 211.842 707.318 213.731 714.388 221.535C714.388 221.535 717.578 195.709 703.966 176.517C703.966 176.517 702.895 171.424 704.088 158.204L679.275 154.152Z" fill="white"/>
<path d="M679.876 152.813L704.112 158.212L703.78 162.554L677.06 155.54L679.876 152.813Z" fill="white"/>
<path opacity="0.2" d="M696.848 158.075C696.848 158.394 696.753 158.706 696.574 158.972C696.396 159.237 696.142 159.444 695.846 159.566C695.549 159.688 695.223 159.72 694.908 159.658C694.593 159.596 694.304 159.442 694.077 159.216C693.85 158.99 693.695 158.703 693.633 158.39C693.57 158.077 693.602 157.752 693.725 157.457C693.848 157.162 694.056 156.91 694.323 156.733C694.59 156.555 694.904 156.461 695.225 156.461C695.655 156.461 696.068 156.631 696.372 156.933C696.677 157.236 696.848 157.647 696.848 158.075Z" fill="black"/>
<path opacity="0.2" d="M713.398 108.092C713.398 108.092 710.2 110.15 709.648 111.506C709.613 111.592 709.585 111.681 709.567 111.773C708.211 110.737 707.131 109.385 706.424 107.837C705.716 106.289 705.402 104.592 705.508 102.895L707.586 103.597L713.398 108.092Z" fill="black"/>
<path d="M725.564 99.1014C725.509 99.0989 725.457 99.0759 725.418 99.0368C725.381 98.9991 725.36 98.9484 725.36 98.8956C725.36 98.8427 725.381 98.792 725.418 98.7543C726.652 97.697 730.41 93.7746 726.928 88.0121C723.917 83.0163 717.618 84.695 717.553 84.7111C717.528 84.718 717.502 84.7199 717.476 84.7168C717.451 84.7136 717.426 84.7054 717.403 84.6927C717.38 84.6799 717.361 84.6629 717.345 84.6425C717.329 84.6221 717.317 84.5988 717.31 84.5739C717.303 84.549 717.301 84.523 717.304 84.4973C717.307 84.4717 717.316 84.4469 717.328 84.4244C717.341 84.402 717.358 84.3822 717.379 84.3663C717.399 84.3504 717.423 84.3387 717.448 84.3318C717.513 84.3318 724.095 82.5482 727.269 87.8103C730.905 93.8392 726.977 97.9392 725.686 99.0529C725.652 99.0811 725.609 99.098 725.564 99.1014V99.1014Z" fill="#263238"/>
<path d="M719.526 84.8886C719.526 84.8886 724.794 85.0501 726.247 89.4729C727.699 93.8957 726.62 98.8673 718.804 104.226C710.987 109.585 704.356 104.436 701.28 100.845C698.204 97.2531 698.999 85.381 707.53 83.0889C716.417 80.6353 719.526 84.8886 719.526 84.8886Z" fill="#263238"/>
<path d="M714.502 86.3576C721.198 87.2615 722.862 91.1194 722.415 98.0522C721.855 106.712 719.104 112.58 710.979 109.577C699.949 105.558 703.374 84.8564 714.502 86.3576Z" fill="#EBB376"/>
<path d="M718.138 97.0998C718.538 98.1668 719.063 99.1828 719.704 100.126C719.472 100.376 719.174 100.556 718.844 100.647C718.515 100.738 718.166 100.737 717.838 100.643L718.138 97.0998Z" fill="#D58745"/>
<path d="M714.112 96.0425C714.047 96.5913 713.698 97.0029 713.301 96.9626C712.903 96.9222 712.684 96.438 712.749 95.8892C712.814 95.3404 713.154 94.9287 713.56 94.9691C713.966 95.0095 714.169 95.4534 714.112 96.0425Z" fill="#263238"/>
<path d="M713.398 94.9449L714.656 94.606C714.656 94.606 713.982 95.5422 713.398 94.9449Z" fill="#263238"/>
<path d="M720.987 96.6559C720.922 97.2047 720.573 97.6163 720.175 97.576C719.777 97.5356 719.558 97.0514 719.623 96.5026C719.688 95.9538 720.029 95.5421 720.394 95.5825C720.759 95.6229 721.044 96.1071 720.987 96.6559Z" fill="#263238"/>
<path d="M720.272 95.5987L721.531 95.2597C721.531 95.2597 720.816 96.1959 720.272 95.5987Z" fill="#263238"/>
<path d="M711.628 92.2896C711.589 92.2907 711.55 92.2834 711.513 92.2681C711.477 92.2527 711.444 92.2298 711.417 92.2009C711.365 92.1467 711.335 92.0744 711.335 91.9991C711.335 91.9238 711.365 91.8515 711.417 91.7973C711.877 91.4338 712.416 91.183 712.992 91.0652C713.567 90.9474 714.162 90.966 714.729 91.1194C714.765 91.1289 714.799 91.1455 714.829 91.1681C714.859 91.1907 714.884 91.2189 714.903 91.2511C714.922 91.2833 714.934 91.3189 714.939 91.3559C714.944 91.3928 714.941 91.4304 714.932 91.4664C714.922 91.5025 714.906 91.5363 714.883 91.5659C714.86 91.5955 714.832 91.6204 714.799 91.6392C714.767 91.6579 714.731 91.6701 714.694 91.6751C714.657 91.6801 714.619 91.6777 714.583 91.6682C714.108 91.5489 713.613 91.5362 713.133 91.6312C712.652 91.7261 712.2 91.9262 711.807 92.217C711.758 92.2618 711.695 92.2876 711.628 92.2896V92.2896Z" fill="#263238"/>
<path d="M722.172 92.9676C722.103 92.9667 722.036 92.9409 721.985 92.8949C721.679 92.5956 721.31 92.3678 720.904 92.2282C720.498 92.0886 720.066 92.0406 719.639 92.0879C719.565 92.1039 719.488 92.09 719.424 92.0491C719.36 92.0082 719.315 91.9438 719.299 91.8699C719.282 91.7961 719.296 91.7189 719.338 91.6553C719.379 91.5918 719.443 91.547 719.518 91.531C720.036 91.4688 720.562 91.5244 721.055 91.6936C721.549 91.8627 721.997 92.141 722.367 92.5075C722.413 92.5453 722.446 92.5965 722.461 92.654C722.476 92.7116 722.473 92.7723 722.451 92.8278C722.43 92.8832 722.391 92.9305 722.341 92.9628C722.291 92.9952 722.232 93.011 722.172 93.0079V92.9676Z" fill="#263238"/>
<path d="M705.638 96.5995C705.638 96.5995 709.526 91.5471 709.623 87.2615C709.623 87.2615 723.641 83.67 722.456 97.1563C722.456 97.1563 725.386 85.4375 713.909 83.6135C702.432 81.7895 700.184 98.5365 705.443 104.339C705.443 104.339 703.236 99.7551 705.638 96.5995Z" fill="#263238"/>
<path d="M706.539 98.1491C706.56 97.7638 706.504 97.3782 706.375 97.0144C706.246 96.6505 706.046 96.3155 705.787 96.0285C705.528 95.7414 705.214 95.508 704.864 95.3414C704.514 95.1749 704.135 95.0786 703.747 95.058C701.637 95.0015 700.07 99.0934 705.095 100.821C705.817 101.063 706.328 100.401 706.539 98.1491Z" fill="#EBB376"/>
<path d="M706.19 84.469C705.873 83.2641 705.316 82.1348 704.552 81.1477C703.788 80.1607 702.833 79.3361 701.742 78.7226C697.903 76.3821 693.723 77.8671 690.192 85.6393C686.662 93.4115 681.524 91.7086 679.276 89.7877C679.276 89.7877 680.022 93.5083 685.274 95.0499C690.525 96.5914 693.512 93.9442 695.971 89.5779C696.581 88.3923 697.622 87.482 698.882 87.0323C700.143 86.5825 701.528 86.627 702.757 87.1566L706.19 84.469Z" fill="#263238"/>
<path d="M717.481 102.628C717.197 103.418 716.971 104.227 716.807 105.05C716.656 105.058 716.504 105.058 716.352 105.05C714.331 104.961 713.43 104.242 713.033 103.492C712.849 103.121 712.76 102.711 712.773 102.297C712.766 102.06 712.796 101.823 712.862 101.595C714.084 102.206 715.424 102.547 716.791 102.596C717.229 102.628 717.481 102.628 717.481 102.628Z" fill="#263238"/>
<path d="M716.791 102.588L716.572 103.298C714.664 103.209 713.325 102.887 712.773 102.289C712.766 102.052 712.796 101.815 712.862 101.587C714.084 102.197 715.424 102.539 716.791 102.588V102.588Z" fill="white"/>
<path d="M716.352 105.042C714.331 104.953 713.43 104.234 713.033 103.484C713.8 103.539 714.552 103.725 715.257 104.033C715.719 104.247 716.102 104.599 716.352 105.042Z" fill="#DE5753"/>
<path d="M691.45 96.777C691.408 96.7785 691.367 96.7657 691.333 96.7408C691.299 96.7159 691.275 96.6803 691.264 96.6398C691.25 96.5905 691.255 96.5379 691.277 96.4918C691.299 96.4457 691.338 96.4094 691.385 96.3896C693.942 95.5341 695.022 93.1613 696.069 90.9176C696.612 89.4295 697.439 88.0595 698.504 86.8822C701.304 84.2753 703.528 86.398 703.552 86.4222C703.582 86.461 703.596 86.5091 703.592 86.5575C703.589 86.606 703.568 86.6516 703.533 86.6859C703.499 86.7203 703.453 86.7411 703.404 86.7445C703.356 86.7479 703.307 86.7338 703.268 86.7047C703.187 86.6239 701.288 84.8242 698.772 87.1728C697.747 88.3042 696.944 89.6151 696.401 91.0387C695.322 93.3873 694.202 95.8166 691.491 96.7286L691.45 96.777Z" fill="#263238"/>
<path d="M698.236 103.419C698.336 103.411 698.433 103.38 698.52 103.33C698.607 103.28 698.682 103.211 698.739 103.129L701.044 99.9004C701.144 99.7585 701.187 99.5846 701.164 99.4129C701.142 99.2412 701.056 99.084 700.923 98.9723L697.79 96.3089C697.715 96.2493 697.629 96.2051 697.537 96.1788C697.445 96.1525 697.349 96.1446 697.254 96.1556L689.705 97.0676C689.531 97.0915 689.372 97.1793 689.26 97.3136C689.147 97.4479 689.089 97.6192 689.097 97.7939L689.413 103.524C689.418 103.617 689.442 103.707 689.483 103.79C689.524 103.873 689.582 103.947 689.652 104.007C689.723 104.067 689.805 104.113 689.893 104.141C689.982 104.169 690.075 104.179 690.168 104.17L698.236 103.419ZM699.47 99.6018C699.467 99.54 699.478 99.4785 699.5 99.4208C699.522 99.3631 699.556 99.3105 699.599 99.266C699.642 99.2216 699.694 99.1862 699.751 99.1621C699.809 99.138 699.87 99.1256 699.932 99.1256C700.058 99.1234 700.179 99.1704 700.271 99.2565C700.362 99.3426 700.415 99.4608 700.419 99.5857C700.404 99.7003 700.348 99.8055 700.26 99.8817C700.173 99.9579 700.061 100 699.944 100C699.828 100 699.716 99.9579 699.629 99.8817C699.541 99.8055 699.485 99.7003 699.47 99.5857V99.6018Z" fill="white"/>
<path d="M694.681 97.6971C694.834 97.6732 694.99 97.6811 695.139 97.7202C695.289 97.7594 695.429 97.8289 695.55 97.9245C695.671 98.02 695.771 98.1395 695.844 98.2753C695.916 98.4112 695.96 98.5606 695.971 98.714C695.971 99.3031 695.517 99.739 694.77 99.7551C694.023 99.7713 693.48 99.3596 693.463 98.7301C693.447 98.1006 693.934 97.7051 694.681 97.6971ZM694.681 98.2378C694.153 98.2378 693.959 98.4557 693.959 98.722C693.959 98.9884 694.186 99.2305 694.77 99.2144C695.355 99.1982 695.493 98.9722 695.493 98.722C695.493 98.4719 695.241 98.2217 694.689 98.2378H694.681ZM691.11 99.2224V98.5203L695.98 101.28V101.983L691.11 99.2224ZM692.392 100.909C692.546 100.887 692.703 100.896 692.853 100.936C693.003 100.976 693.143 101.046 693.265 101.142C693.386 101.238 693.487 101.358 693.56 101.494C693.634 101.63 693.678 101.78 693.691 101.934C693.691 102.515 693.228 102.951 692.481 102.967C691.735 102.983 691.191 102.572 691.183 101.942C691.175 101.313 691.653 100.925 692.4 100.885L692.392 100.909ZM692.392 101.45C691.873 101.45 691.67 101.668 691.678 101.942C691.686 102.217 691.905 102.443 692.489 102.435C693.074 102.427 693.22 102.184 693.212 101.934C693.204 101.684 692.968 101.434 692.408 101.45H692.392Z" fill="white"/>
<path d="M700.403 99.7551C700.356 99.7576 700.309 99.7432 700.271 99.7146C700.232 99.686 700.206 99.645 700.195 99.5987C700.184 99.5525 700.19 99.5039 700.212 99.4617C700.234 99.4195 700.27 99.3862 700.314 99.3677C700.371 99.3677 705.249 96.9465 705.273 92.9918C705.273 92.9383 705.295 92.887 705.333 92.8491C705.371 92.8113 705.422 92.79 705.476 92.79C705.53 92.79 705.582 92.8113 705.62 92.8491C705.658 92.887 705.679 92.9383 705.679 92.9918C705.679 97.1806 700.704 99.626 700.493 99.7309C700.466 99.7474 700.435 99.7559 700.403 99.7551V99.7551Z" fill="white"/>
<path d="M704.697 92.677L710.086 82.5159C714.525 82.7083 718.947 83.1827 723.324 83.9363C723.324 83.9363 725.402 85.5505 724.242 86.6239C723.081 87.6973 720.589 86.9225 719.867 86.3091C719.328 85.7013 718.951 84.9687 718.771 84.1785L717.48 84.017C717.48 84.017 718.682 86.6885 716.791 86.6239C714.899 86.5593 711.417 85.3729 710.744 83.6135L704.883 93.928L704.697 92.677Z" fill="white"/>
<path d="M689.754 113.177C698.983 111.773 699.819 140.133 703.431 146.727C707.043 153.321 729.623 170.294 729.623 170.294C729.623 170.294 736.985 169.608 738.551 170.294C740.118 170.98 740.28 175.871 739.006 175.871C737.731 175.871 729.501 177.332 727.894 176.605C726.287 175.879 725.459 173.006 725.459 173.006C725.459 173.006 701.726 161.19 696.832 151.215C692.774 142.877 688.918 128.455 687.831 123.338C686.743 118.221 687.417 113.532 689.754 113.177Z" fill="#EBB376"/>
<path d="M702.741 128.374L707.359 137.131C707.451 137.305 707.586 137.453 707.751 137.561C707.916 137.669 708.106 137.734 708.303 137.749C708.5 137.764 708.697 137.73 708.877 137.649C709.057 137.567 709.213 137.442 709.331 137.284L715.127 129.448C715.25 129.284 715.327 129.091 715.351 128.888C715.374 128.685 715.343 128.479 715.261 128.292C715.178 128.105 715.047 127.943 714.881 127.823C714.715 127.702 714.52 127.628 714.315 127.607L703.877 126.712C703.673 126.697 703.469 126.736 703.284 126.825C703.1 126.914 702.943 127.049 702.828 127.218C702.713 127.386 702.644 127.581 702.629 127.784C702.613 127.987 702.652 128.191 702.741 128.374Z" fill="white"/>
<path d="M702.051 131.78V132.046C702.05 132.347 702.167 132.637 702.375 132.855C702.584 133.072 702.869 133.202 703.171 133.217L713.934 133.725C714.223 133.739 714.507 133.646 714.731 133.464C714.956 133.282 715.105 133.025 715.151 132.74V132.74C715.179 132.581 715.172 132.417 715.132 132.26C715.092 132.103 715.019 131.956 714.918 131.829C714.817 131.702 714.69 131.597 714.545 131.522C714.401 131.447 714.242 131.403 714.08 131.393L703.309 130.586C703.145 130.573 702.981 130.595 702.826 130.65C702.672 130.705 702.531 130.791 702.412 130.904C702.293 131.016 702.2 131.153 702.138 131.304C702.075 131.455 702.046 131.617 702.051 131.78V131.78Z" fill="white"/>
<path d="M832.817 138.729C832.847 138.941 832.92 139.145 833.034 139.327C833.147 139.509 833.297 139.665 833.475 139.786L840.642 144.556C840.954 144.768 841.335 144.854 841.709 144.797C842.083 144.74 842.42 144.544 842.655 144.249L848.263 137.325C848.392 137.162 848.486 136.975 848.539 136.775C848.592 136.576 848.603 136.367 848.572 136.163L846.137 119.948C846.077 119.572 845.876 119.233 845.575 118.998C845.274 118.763 844.895 118.65 844.513 118.681L832.038 119.706C831.835 119.722 831.638 119.779 831.458 119.873C831.278 119.967 831.119 120.096 830.99 120.253C830.862 120.41 830.767 120.591 830.712 120.786C830.656 120.98 830.641 121.184 830.667 121.385L832.817 138.729ZM841.218 141.15C841.353 141.144 841.488 141.164 841.615 141.21C841.742 141.255 841.859 141.326 841.959 141.416C842.058 141.507 842.139 141.617 842.196 141.739C842.252 141.861 842.284 141.993 842.289 142.127C842.297 142.261 842.278 142.395 842.233 142.521C842.188 142.647 842.118 142.764 842.027 142.863C841.937 142.962 841.827 143.042 841.705 143.099C841.583 143.155 841.45 143.187 841.316 143.192C841.056 143.185 840.808 143.08 840.622 142.899C840.437 142.718 840.327 142.474 840.314 142.216C840.302 141.958 840.388 141.705 840.556 141.507C840.724 141.309 840.96 141.182 841.218 141.15Z" fill="white"/>
<path opacity="0.6" d="M832.817 138.729C832.847 138.941 832.92 139.145 833.034 139.327C833.147 139.509 833.297 139.665 833.475 139.786L840.642 144.556C840.954 144.768 841.335 144.854 841.709 144.797C842.083 144.74 842.42 144.544 842.655 144.249L848.263 137.325C848.392 137.162 848.486 136.975 848.539 136.775C848.592 136.576 848.603 136.367 848.572 136.163L846.137 119.948C846.077 119.572 845.876 119.233 845.575 118.998C845.274 118.763 844.895 118.65 844.513 118.681L832.038 119.706C831.835 119.722 831.638 119.779 831.458 119.873C831.278 119.967 831.119 120.096 830.99 120.253C830.862 120.41 830.767 120.591 830.712 120.786C830.656 120.98 830.641 121.184 830.667 121.385L832.817 138.729ZM841.218 141.15C841.353 141.144 841.488 141.164 841.615 141.21C841.742 141.255 841.859 141.326 841.959 141.416C842.058 141.507 842.139 141.617 842.196 141.739C842.252 141.861 842.284 141.993 842.289 142.127C842.297 142.261 842.278 142.395 842.233 142.521C842.188 142.647 842.118 142.764 842.027 142.863C841.937 142.962 841.827 143.042 841.705 143.099C841.583 143.155 841.45 143.187 841.316 143.192C841.056 143.185 840.808 143.08 840.622 142.899C840.437 142.718 840.327 142.474 840.314 142.216C840.302 141.958 840.388 141.705 840.556 141.507C840.724 141.309 840.96 141.182 841.218 141.15Z" fill="white"/>
<path d="M845.09 130.699C845.171 132.385 844.221 133.499 842.939 133.556C841.656 133.612 840.682 132.636 840.609 131.029C840.536 129.423 841.421 128.221 842.76 128.156C844.099 128.092 845.017 129.133 845.09 130.699ZM843.913 130.755C843.864 129.633 843.385 129.214 842.793 129.238C842.2 129.262 841.713 129.754 841.77 130.973C841.827 132.192 842.362 132.531 842.906 132.506C843.45 132.482 843.969 131.958 843.913 130.747V130.755ZM841.534 123.128L843.069 123.056L837.354 133.757L835.829 133.83L841.534 123.128ZM837.939 125.993C838.02 127.672 837.07 128.786 835.788 128.842C834.506 128.899 833.54 127.922 833.458 126.316C833.377 124.71 834.27 123.508 835.609 123.443C836.949 123.378 837.866 124.379 837.939 125.993V125.993ZM836.762 126.042C836.713 124.92 836.234 124.5 835.65 124.524C835.066 124.549 834.562 125.049 834.619 126.26C834.676 127.47 835.212 127.817 835.755 127.793C836.299 127.769 836.819 127.244 836.762 126.042V126.042Z" fill="white"/>
<path d="M829.14 165.169C829.033 165.186 828.923 165.16 828.835 165.096C828.746 165.033 828.687 164.937 828.67 164.83C828.652 164.723 828.679 164.614 828.743 164.526C828.807 164.438 828.903 164.379 829.011 164.362C841.121 160.326 840.958 142.337 840.95 142.159C840.95 142.052 840.993 141.949 841.069 141.874C841.145 141.798 841.248 141.756 841.356 141.756C841.464 141.756 841.567 141.798 841.643 141.874C841.719 141.949 841.762 142.052 841.762 142.159C841.762 142.345 841.94 160.948 829.262 165.145C829.224 165.161 829.182 165.169 829.14 165.169Z" fill="#263238"/>
<path d="M803.776 159.148H803.67C803.362 159.092 796.016 157.768 793.995 154.411C793.715 153.965 793.54 153.462 793.482 152.939C793.424 152.417 793.486 151.888 793.663 151.392C794.012 150.335 795.075 148.971 798.192 148.624C803.467 147.986 812.298 150.561 813.946 153.208C814.025 153.341 814.049 153.5 814.013 153.651C813.976 153.801 813.883 153.932 813.751 154.015C813.617 154.092 813.458 154.114 813.307 154.078C813.156 154.042 813.025 153.95 812.94 153.821C811.649 151.755 803.451 149.189 798.33 149.786C796.958 149.947 795.237 150.416 794.807 151.731C794.689 152.062 794.647 152.415 794.685 152.765C794.723 153.114 794.84 153.45 795.026 153.749C796.763 156.63 803.808 157.905 803.873 157.913C804.025 157.938 804.161 158.019 804.255 158.139C804.349 158.26 804.394 158.411 804.381 158.563C804.368 158.715 804.297 158.857 804.183 158.959C804.07 159.062 803.921 159.118 803.768 159.116L803.776 159.148Z" fill="white"/>
<path d="M832.785 150.351L840.601 199.841L815.813 207.484L803.484 204.554L799.442 159.051L810.537 151.57L832.785 150.351Z" fill="white"/>
<path opacity="0.2" d="M815.813 207.484L810.537 151.57L799.442 159.051L803.484 204.554L815.813 207.484Z" fill="white"/>
<path d="M815.781 155.072C815.697 155.072 815.614 155.055 815.537 155.022C815.46 154.989 815.391 154.94 815.334 154.879C815.148 154.685 810.773 149.988 810.984 145.517C811.013 144.715 811.21 143.929 811.563 143.208C811.915 142.487 812.414 141.846 813.029 141.328C813.801 140.651 814.75 140.207 815.767 140.048C816.784 139.89 817.824 140.023 818.768 140.432C823.54 142.159 828.507 148.713 829.124 152.675C829.148 152.835 829.107 152.997 829.01 153.127C828.914 153.256 828.769 153.342 828.609 153.365C828.449 153.389 828.285 153.348 828.155 153.252C828.025 153.156 827.939 153.012 827.915 152.853C827.379 149.245 822.647 143.128 818.354 141.554C817.62 141.216 816.804 141.096 816.004 141.208C815.204 141.32 814.453 141.658 813.841 142.183C813.35 142.596 812.951 143.107 812.672 143.682C812.392 144.258 812.237 144.886 812.217 145.525C812.039 149.479 816.203 153.959 816.276 154.007C816.356 154.093 816.41 154.201 816.43 154.317C816.449 154.434 816.435 154.553 816.387 154.661C816.34 154.769 816.262 154.861 816.163 154.925C816.064 154.99 815.948 155.024 815.829 155.024L815.781 155.072Z" fill="white"/>
<g opacity="0.2">
<path opacity="0.2" d="M815.781 155.072C815.697 155.072 815.614 155.055 815.537 155.022C815.46 154.989 815.391 154.94 815.334 154.879C815.148 154.685 810.773 149.988 810.984 145.517C811.013 144.715 811.21 143.929 811.563 143.208C811.915 142.487 812.414 141.846 813.029 141.328C813.801 140.651 814.75 140.207 815.767 140.048C816.784 139.89 817.824 140.023 818.768 140.432C823.54 142.159 828.507 148.713 829.124 152.675C829.148 152.835 829.107 152.997 829.01 153.127C828.914 153.256 828.769 153.342 828.609 153.365C828.449 153.389 828.285 153.348 828.155 153.252C828.025 153.156 827.939 153.012 827.915 152.853C827.379 149.245 822.647 143.128 818.354 141.554C817.62 141.216 816.804 141.096 816.004 141.208C815.204 141.32 814.453 141.658 813.841 142.183C813.35 142.596 812.951 143.107 812.672 143.682C812.392 144.258 812.237 144.886 812.217 145.525C812.039 149.479 816.203 153.959 816.276 154.007C816.356 154.093 816.41 154.201 816.43 154.317C816.449 154.434 816.435 154.553 816.387 154.661C816.34 154.769 816.262 154.861 816.163 154.925C816.064 154.99 815.948 155.024 815.829 155.024L815.781 155.072Z" fill="white"/>
</g>
<path d="M786.626 191.528C786.23 191.53 785.843 191.415 785.514 191.197L764.605 177.477C764.216 177.218 763.758 177.081 763.29 177.081H724.534L738.291 187.961C738.512 188.121 738.697 188.325 738.837 188.558C738.977 188.792 739.067 189.051 739.104 189.32C739.14 189.59 739.121 189.864 739.049 190.126C738.976 190.388 738.851 190.632 738.681 190.845C738.51 191.058 738.299 191.234 738.059 191.363C737.818 191.493 737.554 191.572 737.282 191.598C737.01 191.623 736.735 191.594 736.475 191.511C736.215 191.428 735.974 191.294 735.767 191.117L717.464 176.646C717.133 176.385 716.892 176.029 716.775 175.626C716.657 175.223 716.669 174.794 716.808 174.398C716.948 174.002 717.208 173.659 717.552 173.416C717.897 173.174 718.308 173.045 718.73 173.046H763.299C764.564 173.042 765.801 173.413 766.854 174.111L787.754 187.832C788.116 188.072 788.391 188.421 788.538 188.828C788.685 189.235 788.697 189.678 788.571 190.093C788.446 190.507 788.189 190.87 787.841 191.128C787.492 191.387 787.069 191.527 786.634 191.528H786.626Z" fill="white"/>
<g opacity="0.3">
<path opacity="0.3" d="M786.626 191.528C786.23 191.53 785.843 191.415 785.514 191.197L764.605 177.477C764.216 177.218 763.758 177.081 763.29 177.081H724.534L738.291 187.961C738.512 188.121 738.697 188.325 738.837 188.558C738.977 188.792 739.067 189.051 739.104 189.32C739.14 189.59 739.121 189.864 739.049 190.126C738.976 190.388 738.851 190.632 738.681 190.845C738.51 191.058 738.299 191.234 738.059 191.363C737.818 191.493 737.554 191.572 737.282 191.598C737.01 191.623 736.735 191.594 736.475 191.511C736.215 191.428 735.974 191.294 735.767 191.117L717.464 176.646C717.133 176.385 716.892 176.029 716.775 175.626C716.657 175.223 716.669 174.794 716.808 174.398C716.948 174.002 717.208 173.659 717.552 173.416C717.897 173.174 718.308 173.045 718.73 173.046H763.299C764.564 173.042 765.801 173.413 766.854 174.111L787.754 187.832C788.116 188.072 788.391 188.421 788.538 188.828C788.685 189.235 788.697 189.678 788.571 190.093C788.446 190.507 788.189 190.87 787.841 191.128C787.492 191.387 787.069 191.527 786.634 191.528H786.626Z" fill="black"/>
</g>
<path d="M743.494 222.189L769.995 163.837L797.332 159.971L803.776 169.866L792.835 235.143L761.952 237.725L743.494 222.189Z" fill="white"/>
<path opacity="0.6" d="M743.494 222.189L769.995 163.837L797.332 159.971L803.776 169.866L792.835 235.143L761.952 237.725L743.494 222.189Z" fill="white"/>
<path opacity="0.2" d="M797.332 159.971L780.636 215.216L743.494 222.189L761.952 237.725L792.835 235.143L803.776 169.866L797.332 159.971Z" fill="black"/>
<path opacity="0.2" d="M743.494 222.189L780.636 215.216L792.835 235.143L761.952 237.725L743.494 222.189Z" fill="black"/>
<path d="M776.537 171.101H775.96C772.998 171.004 771.374 170.334 770.985 169.059C770.303 166.775 774.231 163.886 775.043 163.329C775.172 163.247 775.327 163.217 775.477 163.244C775.628 163.271 775.763 163.353 775.855 163.474C775.939 163.602 775.97 163.756 775.943 163.906C775.916 164.057 775.832 164.191 775.709 164.281C774.037 165.459 771.829 167.598 772.154 168.68C772.251 169.003 772.819 169.753 776.001 169.858C785.156 170.189 789.499 162.594 789.539 162.514C789.574 162.437 789.624 162.369 789.686 162.312C789.748 162.256 789.822 162.213 789.901 162.186C789.981 162.16 790.066 162.15 790.15 162.157C790.233 162.165 790.315 162.189 790.389 162.23C790.462 162.27 790.527 162.325 790.578 162.392C790.629 162.458 790.666 162.534 790.686 162.616C790.707 162.697 790.71 162.781 790.695 162.864C790.681 162.946 790.649 163.025 790.603 163.095C790.562 163.224 786.065 171.101 776.537 171.101Z" fill="#263238"/>
<path d="M794.531 239.38L792.835 180.891L822.704 175.677L836.551 180.891L834.457 234.198L820.488 241.236L794.531 239.38Z" fill="#263238"/>
<path opacity="0.3" d="M822.704 175.677L820.488 241.236L834.457 234.198L836.551 180.891L822.704 175.677Z" fill="black"/>
<path d="M807.364 196.314C806.593 196.326 805.827 196.181 805.115 195.886C804.403 195.592 803.76 195.155 803.224 194.603C799.612 190.923 800.083 182.594 800.099 182.239C800.112 182.079 800.187 181.93 800.308 181.825C800.43 181.719 800.588 181.665 800.749 181.674C800.828 181.678 800.906 181.698 800.978 181.732C801.05 181.766 801.114 181.815 801.167 181.874C801.22 181.933 801.261 182.003 801.286 182.078C801.312 182.153 801.322 182.232 801.317 182.311C801.317 182.392 800.854 190.463 804.101 193.756C804.548 194.222 805.094 194.584 805.699 194.815C806.304 195.047 806.953 195.143 807.599 195.095C808.2 195.08 808.791 194.937 809.332 194.675C809.872 194.414 810.35 194.039 810.732 193.578C814.174 189.648 813.24 179.688 813.232 179.583C813.224 179.504 813.232 179.424 813.256 179.348C813.28 179.272 813.318 179.202 813.37 179.141C813.421 179.08 813.484 179.03 813.556 178.994C813.627 178.958 813.704 178.936 813.784 178.93C813.863 178.921 813.943 178.928 814.02 178.95C814.096 178.973 814.167 179.011 814.228 179.061C814.29 179.112 814.34 179.174 814.377 179.244C814.413 179.314 814.435 179.391 814.441 179.47C814.49 179.898 815.432 190.051 811.649 194.369C811.159 194.954 810.55 195.43 809.862 195.764C809.173 196.098 808.422 196.282 807.656 196.306L807.364 196.314Z" fill="white"/>
<g opacity="0.3">
<path opacity="0.3" d="M807.364 196.314C806.593 196.326 805.827 196.181 805.115 195.886C804.403 195.592 803.76 195.155 803.224 194.603C799.612 190.923 800.083 182.594 800.099 182.239C800.112 182.079 800.187 181.93 800.308 181.825C800.43 181.719 800.588 181.665 800.749 181.674C800.828 181.678 800.906 181.698 800.978 181.732C801.05 181.766 801.114 181.815 801.167 181.874C801.22 181.933 801.261 182.003 801.286 182.078C801.312 182.153 801.322 182.232 801.317 182.311C801.317 182.392 800.854 190.463 804.101 193.756C804.548 194.222 805.094 194.584 805.699 194.815C806.304 195.047 806.953 195.143 807.599 195.095C808.2 195.08 808.791 194.937 809.332 194.675C809.872 194.414 810.35 194.039 810.732 193.578C814.174 189.648 813.24 179.688 813.232 179.583C813.224 179.504 813.232 179.424 813.256 179.348C813.28 179.272 813.318 179.202 813.37 179.141C813.421 179.08 813.484 179.03 813.556 178.994C813.627 178.958 813.704 178.936 813.784 178.93C813.863 178.921 813.943 178.928 814.02 178.95C814.096 178.973 814.167 179.011 814.228 179.061C814.29 179.112 814.34 179.174 814.377 179.244C814.413 179.314 814.435 179.391 814.441 179.47C814.49 179.898 815.432 190.051 811.649 194.369C811.159 194.954 810.55 195.43 809.862 195.764C809.173 196.098 808.422 196.282 807.656 196.306L807.364 196.314Z" fill="black"/>
</g>
<path d="M849.943 284.229C848.531 281.808 844.919 281.243 841.883 282.987C838.848 284.73 837.525 288.128 838.978 290.549C840.431 292.97 843.994 293.535 847.029 291.784C850.065 290.032 851.347 286.659 849.943 284.229Z" fill="#263238"/>
<path d="M773.704 282.987C770.669 284.738 769.346 288.12 770.758 290.549C772.17 292.978 775.774 293.535 778.81 291.784C781.845 290.032 783.168 286.659 781.764 284.229C780.36 281.8 776.74 281.243 773.704 282.987Z" fill="#263238"/>
<path d="M841.015 285.488H774.857C774.318 285.488 773.802 285.276 773.422 284.898C773.041 284.519 772.827 284.006 772.827 283.471C772.827 282.936 773.041 282.422 773.422 282.044C773.802 281.666 774.318 281.453 774.857 281.453H841.015C841.342 281.453 841.656 281.324 841.887 281.094C842.119 280.864 842.249 280.552 842.249 280.226V274.988C842.246 274.709 842.148 274.439 841.971 274.222C841.795 274.005 841.549 273.854 841.275 273.794L786.569 262.027C784.179 261.509 782.039 260.197 780.5 258.308C778.961 256.418 778.115 254.063 778.103 251.631V241.398C778.103 240.863 778.317 240.349 778.698 239.971C779.078 239.593 779.594 239.38 780.132 239.38C780.67 239.38 781.187 239.593 781.567 239.971C781.948 240.349 782.161 240.863 782.161 241.398V251.631C782.166 253.138 782.686 254.598 783.636 255.771C784.586 256.945 785.91 257.762 787.389 258.088L842.103 269.855C843.281 270.115 844.336 270.765 845.094 271.7C845.852 272.634 846.268 273.796 846.274 274.996V280.234C846.27 281.622 845.716 282.953 844.731 283.936C843.746 284.92 842.411 285.478 841.015 285.488V285.488Z" fill="white"/>
<g opacity="0.3">
<path opacity="0.3" d="M841.015 285.488H774.857C774.318 285.488 773.802 285.276 773.422 284.898C773.041 284.519 772.827 284.006 772.827 283.471C772.827 282.936 773.041 282.422 773.422 282.044C773.802 281.666 774.318 281.453 774.857 281.453H841.015C841.342 281.453 841.656 281.324 841.887 281.094C842.119 280.864 842.249 280.552 842.249 280.226V274.988C842.246 274.709 842.148 274.439 841.971 274.222C841.795 274.005 841.549 273.854 841.275 273.794L786.569 262.027C784.179 261.509 782.039 260.197 780.5 258.308C778.961 256.418 778.115 254.063 778.103 251.631V241.398C778.103 240.863 778.317 240.349 778.698 239.971C779.078 239.593 779.594 239.38 780.132 239.38C780.67 239.38 781.187 239.593 781.567 239.971C781.948 240.349 782.161 240.863 782.161 241.398V251.631C782.166 253.138 782.686 254.598 783.636 255.771C784.586 256.945 785.91 257.762 787.389 258.088L842.103 269.855C843.281 270.115 844.336 270.765 845.094 271.7C845.852 272.634 846.268 273.796 846.274 274.996V280.234C846.27 281.622 845.716 282.953 844.731 283.936C843.746 284.92 842.411 285.478 841.015 285.488V285.488Z" fill="black"/>
</g>
<path d="M840.958 215.942V215.805L843.328 202.779L845.763 189.406C845.814 189.115 845.8 188.818 845.724 188.533C845.647 188.249 845.509 187.984 845.319 187.758C845.128 187.533 844.891 187.351 844.623 187.225C844.355 187.1 844.063 187.034 843.767 187.033H817.996C817.458 187.033 816.942 187.245 816.561 187.624C816.181 188.002 815.967 188.515 815.967 189.05C815.967 189.586 816.181 190.099 816.561 190.477C816.942 190.856 817.458 191.068 817.996 191.068H825.382L824.084 200.366H768.501C767.963 200.366 767.447 200.578 767.066 200.957C766.686 201.335 766.472 201.848 766.472 202.383C766.472 202.919 766.686 203.432 767.066 203.81C767.447 204.189 767.963 204.401 768.501 204.401H823.556L822.282 213.481H771.87C771.332 213.481 770.815 213.693 770.435 214.072C770.054 214.45 769.841 214.963 769.841 215.498C769.841 216.034 770.054 216.547 770.435 216.925C770.815 217.304 771.332 217.516 771.87 217.516H821.673L820.358 226.886H775.116C774.578 226.886 774.062 227.099 773.682 227.477C773.301 227.856 773.087 228.369 773.087 228.904C773.087 229.439 773.301 229.952 773.682 230.331C774.062 230.709 774.578 230.922 775.116 230.922H819.758L818.573 239.396H813.321C812.783 239.396 812.267 239.609 811.886 239.987C811.506 240.365 811.292 240.879 811.292 241.414C811.292 241.949 811.506 242.462 811.886 242.841C812.267 243.219 812.783 243.431 813.321 243.431H834.27C834.746 243.43 835.206 243.263 835.57 242.959C835.935 242.655 836.181 242.234 836.267 241.769L838.531 229.316L840.958 215.942ZM837.281 213.465H834.457L836.08 204.385H838.978L837.281 213.465ZM836.551 217.5L834.846 226.87H832.087L833.71 217.5H836.551ZM839.668 200.35H836.77L838.393 191.052H841.34L839.668 200.35ZM829.481 191.052H834.294L832.671 200.35H828.199L829.481 191.052ZM827.614 204.385H831.941L830.317 213.465H826.324L827.614 204.385ZM825.772 217.5H829.619L827.996 226.87H824.481L825.772 217.5ZM823.889 230.906H827.257L825.764 239.38H822.745L823.889 230.906ZM829.879 239.38L831.381 230.906H834.108L832.566 239.38H829.879Z" fill="white"/>
<g opacity="0.3">
<path opacity="0.3" d="M840.958 215.942V215.805L843.328 202.779L845.763 189.406C845.814 189.115 845.8 188.818 845.724 188.533C845.647 188.249 845.509 187.984 845.319 187.758C845.128 187.533 844.891 187.351 844.623 187.225C844.355 187.1 844.063 187.034 843.767 187.033H817.996C817.458 187.033 816.942 187.245 816.561 187.624C816.181 188.002 815.967 188.515 815.967 189.05C815.967 189.586 816.181 190.099 816.561 190.477C816.942 190.856 817.458 191.068 817.996 191.068H825.382L824.084 200.366H768.501C767.963 200.366 767.447 200.578 767.066 200.957C766.686 201.335 766.472 201.848 766.472 202.383C766.472 202.919 766.686 203.432 767.066 203.81C767.447 204.189 767.963 204.401 768.501 204.401H823.556L822.282 213.481H771.87C771.332 213.481 770.815 213.693 770.435 214.072C770.054 214.45 769.841 214.963 769.841 215.498C769.841 216.034 770.054 216.547 770.435 216.925C770.815 217.304 771.332 217.516 771.87 217.516H821.673L820.358 226.886H775.116C774.578 226.886 774.062 227.099 773.682 227.477C773.301 227.856 773.087 228.369 773.087 228.904C773.087 229.439 773.301 229.952 773.682 230.331C774.062 230.709 774.578 230.922 775.116 230.922H819.758L818.573 239.396H813.321C812.783 239.396 812.267 239.609 811.886 239.987C811.506 240.365 811.292 240.879 811.292 241.414C811.292 241.949 811.506 242.462 811.886 242.841C812.267 243.219 812.783 243.431 813.321 243.431H834.27C834.746 243.43 835.206 243.263 835.57 242.959C835.935 242.655 836.181 242.234 836.267 241.769L838.531 229.316L840.958 215.942ZM837.281 213.465H834.457L836.08 204.385H838.978L837.281 213.465ZM836.551 217.5L834.846 226.87H832.087L833.71 217.5H836.551ZM839.668 200.35H836.77L838.393 191.052H841.34L839.668 200.35ZM829.481 191.052H834.294L832.671 200.35H828.199L829.481 191.052ZM827.614 204.385H831.941L830.317 213.465H826.324L827.614 204.385ZM825.772 217.5H829.619L827.996 226.87H824.481L825.772 217.5ZM823.889 230.906H827.257L825.764 239.38H822.745L823.889 230.906ZM829.879 239.38L831.381 230.906H834.108L832.566 239.38H829.879Z" fill="black"/>
</g>
<path d="M819.498 187.67C819.309 187.464 819.078 187.299 818.821 187.186C818.564 187.074 818.285 187.016 818.004 187.017H735.418C735.107 187.013 734.8 187.079 734.519 187.21C734.238 187.342 733.99 187.535 733.795 187.775C733.606 188.012 733.472 188.288 733.405 188.583C733.338 188.877 733.338 189.183 733.405 189.478L736.449 202.771L745.377 241.834C745.47 242.288 745.718 242.696 746.079 242.99C746.44 243.284 746.891 243.446 747.358 243.448H813.313C813.82 243.446 814.307 243.256 814.681 242.916C815.055 242.576 815.288 242.109 815.334 241.608L819.977 189.244C820.013 188.963 819.989 188.678 819.907 188.406C819.824 188.135 819.685 187.884 819.498 187.67V187.67ZM812.599 226.87H803.184L803.597 217.508H813.435L812.599 226.87ZM760.344 239.38L759.24 230.906H769.378L769.995 239.38H760.344ZM772.178 213.473L771.513 204.385H784.881V213.473H772.178ZM784.881 217.508V226.87H773.152L772.47 217.508H784.881ZM788.939 204.385H800.115L799.718 213.473H788.939V204.385ZM788.939 200.35V191.052H800.708L800.294 200.35H788.939ZM784.881 200.35H771.22L770.547 191.052H784.881V200.35ZM767.154 200.35H755.271L754.062 191.052H766.472L767.154 200.35ZM767.446 204.385L768.104 213.473H757L755.815 204.385H767.446ZM752.885 213.473H743.088L741.01 204.385H751.7L752.885 213.473ZM744.014 217.508H753.404L754.622 226.87H746.156L744.014 217.508ZM757.503 217.508H768.404L769.086 226.87H758.721L757.503 217.508ZM773.444 230.906H784.881V239.38H774.045L773.444 230.906ZM788.939 230.906H798.939L798.565 239.38H788.939V230.906ZM788.939 226.87V217.508H799.539L799.125 226.87H788.939ZM803.776 213.473L804.182 204.385H814.628L813.816 213.473H803.776ZM814.953 200.35H804.401L804.815 191.052H815.821L814.953 200.35ZM749.971 191.052L751.18 200.35H740.085L737.959 191.052H749.971ZM747.073 230.906H755.15L756.253 239.38H749.013L747.073 230.906ZM802.632 239.38L803.005 230.906H812.242L811.495 239.38H802.632Z" fill="white"/>
<path d="M808.549 285.488H742.39C741.852 285.488 741.336 285.276 740.955 284.898C740.575 284.519 740.361 284.006 740.361 283.471C740.361 282.936 740.575 282.422 740.955 282.044C741.336 281.666 741.852 281.453 742.39 281.453H808.549C808.876 281.453 809.19 281.324 809.421 281.094C809.652 280.864 809.782 280.552 809.782 280.226V274.988C809.78 274.709 809.682 274.439 809.505 274.222C809.328 274.005 809.083 273.854 808.808 273.794L754.102 262.027C751.713 261.509 749.572 260.197 748.033 258.308C746.494 256.418 745.649 254.063 745.637 251.631V241.398C745.637 240.863 745.851 240.349 746.231 239.971C746.612 239.593 747.128 239.38 747.666 239.38C748.204 239.38 748.72 239.593 749.101 239.971C749.481 240.349 749.695 240.863 749.695 241.398V251.631C749.7 253.138 750.22 254.598 751.17 255.771C752.12 256.945 753.443 257.762 754.922 258.088L809.636 269.855C810.815 270.115 811.869 270.765 812.627 271.7C813.385 272.634 813.802 273.796 813.808 274.996V280.234C813.804 281.622 813.249 282.953 812.264 283.936C811.28 284.92 809.944 285.478 808.549 285.488Z" fill="white"/>
<path d="M811.276 291.782C814.316 290.037 815.637 286.654 814.227 284.226C812.818 281.798 809.211 281.244 806.171 282.989C803.131 284.734 801.81 288.117 803.22 290.545C804.629 292.973 808.236 293.527 811.276 291.782Z" fill="#263238"/>
<path d="M810.245 285.658C810.943 286.852 810.294 288.507 808.8 289.362C807.307 290.218 805.554 289.952 804.848 288.757C804.142 287.563 804.799 285.908 806.292 285.045C807.786 284.181 809.555 284.463 810.245 285.658Z" fill="white"/>
<path d="M743.1 291.782C746.14 290.037 747.461 286.654 746.051 284.226C744.641 281.798 741.034 281.244 737.995 282.989C734.955 284.734 733.634 288.117 735.043 290.545C736.453 292.973 740.06 293.527 743.1 291.782Z" fill="#263238"/>
<path d="M742.066 285.658C742.764 286.852 742.114 288.507 740.621 289.362C739.128 290.218 737.374 289.952 736.668 288.757C735.962 287.563 736.62 285.908 738.113 285.045C739.606 284.181 741.376 284.463 742.066 285.658Z" fill="white"/>
<path d="M769.654 148.971C769.834 149.091 770.039 149.17 770.253 149.204C770.468 149.237 770.687 149.224 770.896 149.165L779.199 146.889C779.563 146.79 779.877 146.558 780.077 146.239C780.277 145.92 780.349 145.538 780.278 145.169L778.655 136.429C778.616 136.225 778.535 136.031 778.418 135.859C778.3 135.687 778.149 135.54 777.973 135.428L763.988 126.712C763.665 126.51 763.276 126.438 762.901 126.51C762.526 126.582 762.192 126.792 761.967 127.099L754.622 137.204C754.503 137.368 754.418 137.554 754.373 137.751C754.328 137.948 754.324 138.152 754.36 138.351C754.396 138.55 754.473 138.74 754.585 138.909C754.697 139.078 754.842 139.223 755.011 139.334L769.654 148.971ZM776.959 144.217C777.083 144.059 777.252 143.94 777.444 143.877C777.636 143.814 777.842 143.809 778.037 143.863C778.232 143.916 778.407 144.026 778.539 144.178C778.671 144.33 778.755 144.518 778.78 144.717C778.805 144.917 778.77 145.119 778.679 145.299C778.588 145.479 778.446 145.628 778.27 145.727C778.094 145.826 777.893 145.872 777.691 145.857C777.49 145.843 777.297 145.769 777.137 145.646C776.927 145.476 776.792 145.231 776.763 144.963C776.734 144.695 776.813 144.427 776.983 144.217H776.959Z" fill="white"/>
<path d="M771.529 134.484C772.86 135.525 773.095 136.97 772.3 137.97C771.504 138.971 770.133 139.068 768.858 138.075C767.584 137.083 767.235 135.654 768.047 134.589C768.858 133.523 770.246 133.499 771.529 134.484ZM770.798 135.412C769.905 134.718 769.28 134.807 768.915 135.267C768.55 135.727 768.607 136.421 769.573 137.171C770.538 137.922 771.139 137.736 771.48 137.309C771.821 136.881 771.756 136.146 770.798 135.412ZM763.428 132.232L764.378 131.029L768.81 142.329L767.868 143.531L763.428 132.232ZM763.274 136.808C764.605 137.849 764.841 139.286 764.086 140.295C763.331 141.304 761.91 141.392 760.636 140.4C759.362 139.407 759.013 137.978 759.825 136.913C760.636 135.848 762 135.824 763.274 136.808ZM762.552 137.736C761.659 137.042 761.026 137.131 760.661 137.591C760.295 138.051 760.352 138.745 761.318 139.488C762.284 140.23 762.893 140.061 763.225 139.633C763.558 139.205 763.493 138.471 762.552 137.736Z" fill="white"/>
<path d="M819.206 201.132C819.115 200.937 818.982 200.763 818.816 200.624C818.651 200.485 818.457 200.383 818.248 200.325L809.961 197.969C809.598 197.867 809.21 197.903 808.872 198.07C808.535 198.237 808.272 198.523 808.135 198.873L804.945 207.186C804.872 207.379 804.839 207.586 804.849 207.793C804.859 207.999 804.911 208.202 805.002 208.388L812.364 223.053C812.532 223.395 812.827 223.66 813.186 223.794C813.545 223.927 813.942 223.919 814.295 223.771L825.845 218.985C826.035 218.909 826.207 218.796 826.352 218.653C826.496 218.509 826.61 218.338 826.686 218.149C826.762 217.96 826.798 217.758 826.793 217.555C826.788 217.352 826.742 217.152 826.657 216.967L819.206 201.132ZM810.464 201.383C810.275 201.453 810.069 201.466 809.872 201.42C809.675 201.373 809.496 201.27 809.358 201.123C809.22 200.976 809.129 200.791 809.097 200.593C809.065 200.394 809.092 200.19 809.176 200.007C809.26 199.824 809.397 199.67 809.569 199.565C809.741 199.459 809.941 199.406 810.143 199.414C810.346 199.421 810.541 199.488 810.705 199.605C810.869 199.723 810.994 199.887 811.065 200.075C811.113 200.2 811.135 200.333 811.131 200.467C811.127 200.601 811.096 200.732 811.04 200.854C810.984 200.976 810.904 201.085 810.806 201.176C810.707 201.266 810.591 201.337 810.464 201.383Z" fill="white"/>
<path opacity="0.6" d="M819.206 201.132C819.115 200.937 818.982 200.763 818.816 200.624C818.651 200.485 818.457 200.383 818.248 200.325L809.961 197.969C809.598 197.867 809.21 197.903 808.872 198.07C808.535 198.237 808.272 198.523 808.135 198.873L804.945 207.186C804.872 207.379 804.839 207.586 804.849 207.793C804.859 207.999 804.911 208.202 805.002 208.388L812.364 223.053C812.532 223.395 812.827 223.66 813.186 223.794C813.545 223.927 813.942 223.919 814.295 223.771L825.845 218.985C826.035 218.909 826.207 218.796 826.352 218.653C826.496 218.509 826.61 218.338 826.686 218.149C826.762 217.96 826.798 217.758 826.793 217.555C826.788 217.352 826.742 217.152 826.657 216.967L819.206 201.132ZM810.464 201.383C810.275 201.453 810.069 201.466 809.872 201.42C809.675 201.373 809.496 201.27 809.358 201.123C809.22 200.976 809.129 200.791 809.097 200.593C809.065 200.394 809.092 200.19 809.176 200.007C809.26 199.824 809.397 199.67 809.569 199.565C809.741 199.459 809.941 199.406 810.143 199.414C810.346 199.421 810.541 199.488 810.705 199.605C810.869 199.723 810.994 199.887 811.065 200.075C811.113 200.2 811.135 200.333 811.131 200.467C811.127 200.601 811.096 200.732 811.04 200.854C810.984 200.976 810.904 201.085 810.806 201.176C810.707 201.266 810.591 201.337 810.464 201.383Z" fill="white"/>
<path d="M810.01 212.512C809.417 210.939 810.01 209.591 811.17 209.139C812.331 208.687 813.605 209.332 814.173 210.842C814.742 212.351 814.295 213.747 813.013 214.223C811.73 214.7 810.57 214.022 810.01 212.512ZM811.113 212.101C811.511 213.158 812.095 213.408 812.647 213.206C813.199 213.005 813.516 212.399 813.086 211.245C812.656 210.091 812.039 209.946 811.535 210.131C811.032 210.317 810.691 210.979 811.113 212.101ZM815.732 218.638L814.295 219.171L816.43 207.242L817.866 206.709L815.732 218.638ZM818.264 214.813C817.672 213.198 818.264 211.891 819.433 211.439C820.602 210.987 821.868 211.633 822.428 213.134C822.988 214.635 822.558 216.047 821.275 216.524C819.993 217 818.84 216.298 818.264 214.813ZM819.368 214.401C819.766 215.458 820.35 215.708 820.902 215.507C821.454 215.305 821.77 214.7 821.34 213.545C820.91 212.391 820.301 212.246 819.79 212.432C819.279 212.617 818.946 213.279 819.368 214.401V214.401Z" fill="#263238"/>
<path d="M741.579 199.615C741.885 199.475 742.158 199.272 742.379 199.018C742.601 198.765 742.765 198.468 742.861 198.146L746.668 185.33C746.835 184.769 746.784 184.165 746.525 183.64C746.267 183.114 745.82 182.703 745.272 182.489L732.285 177.42C731.981 177.306 731.657 177.254 731.332 177.267C731.007 177.279 730.688 177.356 730.394 177.493L707.286 188.679C706.751 188.939 706.335 189.391 706.122 189.944C705.91 190.497 705.917 191.109 706.142 191.657L713.447 209.639C713.565 209.931 713.742 210.197 713.966 210.419C714.191 210.642 714.458 210.817 714.752 210.934C715.047 211.051 715.362 211.107 715.679 211.1C715.995 211.092 716.307 211.021 716.596 210.89L741.579 199.615ZM741.303 186.056C741.188 185.756 741.167 185.429 741.24 185.116C741.314 184.804 741.48 184.52 741.717 184.302C741.953 184.083 742.25 183.94 742.569 183.89C742.888 183.84 743.214 183.886 743.507 184.022C743.8 184.158 744.045 184.377 744.211 184.652C744.378 184.927 744.458 185.245 744.442 185.566C744.426 185.886 744.314 186.195 744.121 186.452C743.927 186.709 743.661 186.903 743.356 187.009C742.955 187.152 742.512 187.133 742.125 186.955C741.737 186.776 741.436 186.454 741.287 186.056H741.303Z" fill="#263238"/>
<path d="M723.852 185.193C726.328 184.289 728.438 185.193 729.12 187.049C729.801 188.905 728.787 190.81 726.417 191.665C724.047 192.521 721.855 191.819 721.125 189.817C720.394 187.816 721.474 186.048 723.852 185.193ZM724.477 186.904C722.813 187.509 722.415 188.405 722.724 189.26C723.032 190.116 724.006 190.624 725.8 189.971C727.423 189.381 727.853 188.356 727.561 187.59C727.269 186.823 726.246 186.266 724.477 186.904ZM714.161 193.966L713.349 191.738L732.017 195.225L732.829 197.46L714.161 193.966ZM720.118 197.961C722.602 197.057 724.712 197.961 725.394 199.817C726.076 201.673 725.061 203.578 722.691 204.433C720.321 205.289 718.13 204.587 717.399 202.585C716.669 200.584 717.748 198.816 720.118 197.961ZM720.751 199.672C719.088 200.277 718.682 201.173 718.998 202.028C719.315 202.884 720.281 203.392 722.066 202.739C723.69 202.149 724.12 201.124 723.836 200.358C723.552 199.591 722.521 199.034 720.751 199.672Z" fill="white"/>
<path d="M743.494 185.241C743.387 185.252 743.279 185.219 743.195 185.151C743.112 185.083 743.059 184.985 743.048 184.878C743.037 184.771 743.07 184.664 743.138 184.581C743.207 184.497 743.306 184.445 743.413 184.434C743.673 184.377 769.427 179.131 773.25 168.615C773.289 168.517 773.364 168.438 773.46 168.395C773.557 168.352 773.666 168.348 773.765 168.384C773.865 168.419 773.946 168.492 773.992 168.587C774.039 168.681 774.046 168.79 774.013 168.89C770.036 179.834 744.647 185.031 743.567 185.225L743.494 185.241Z" fill="white"/>
<path d="M792.178 152.482C784.873 152.482 778.607 146.025 778.306 145.751C778.268 145.713 778.238 145.668 778.217 145.619C778.197 145.57 778.186 145.517 778.186 145.464C778.186 145.411 778.197 145.358 778.217 145.309C778.238 145.26 778.268 145.215 778.306 145.178C778.343 145.14 778.388 145.11 778.436 145.09C778.485 145.069 778.538 145.059 778.59 145.059C778.643 145.059 778.696 145.069 778.744 145.09C778.793 145.11 778.837 145.14 778.874 145.178C778.956 145.266 787.226 153.725 795.432 151.166C795.535 151.136 795.645 151.147 795.739 151.197C795.833 151.246 795.904 151.331 795.936 151.432C795.953 151.483 795.96 151.536 795.957 151.589C795.953 151.642 795.939 151.694 795.915 151.742C795.89 151.789 795.857 151.831 795.816 151.865C795.775 151.9 795.727 151.925 795.676 151.941C794.544 152.298 793.365 152.48 792.178 152.482V152.482Z" fill="#263238"/>
<path d="M810.099 200.753C810.005 200.751 809.915 200.72 809.839 200.664C809.742 200.584 807.461 198.647 807.907 194.143C807.912 194.09 807.927 194.039 807.952 193.992C807.977 193.944 808.011 193.903 808.052 193.868C808.093 193.834 808.141 193.809 808.192 193.793C808.243 193.777 808.297 193.771 808.35 193.776C808.403 193.781 808.455 193.796 808.502 193.821C808.55 193.845 808.592 193.879 808.626 193.92C808.66 193.961 808.686 194.008 808.702 194.059C808.718 194.109 808.724 194.163 808.719 194.216C808.321 198.251 810.286 199.97 810.342 200.043C810.384 200.076 810.418 200.118 810.442 200.165C810.467 200.211 810.482 200.263 810.487 200.315C810.491 200.368 810.485 200.421 810.469 200.471C810.452 200.521 810.426 200.568 810.391 200.608C810.356 200.652 810.312 200.687 810.261 200.712C810.211 200.738 810.155 200.751 810.099 200.753Z" fill="white"/>
</svg>
